<svg width="103" height="32" viewBox="0 0 103 32" fill="none" xmlns="http://www.w3.org/2000/svg">
<path fill-rule="evenodd" clip-rule="evenodd" d="M25.9043 29.7416L18.9398 25.1644C18.6743 24.9899 18.6761 24.4297 18.9427 24.259L20.8634 23.0296C20.9439 22.9781 21.0348 22.9757 21.1164 23.0231L25.9125 25.8049C25.9953 25.853 26.0876 25.8498 26.1688 25.7962L31.8347 22.0583C31.8627 22.0398 31.8884 22.016 31.9114 21.9879L26.1697 18.6673C26.0878 18.62 25.9966 18.6226 25.916 18.6747L8.78971 29.7436C8.70267 29.7998 8.60358 29.7982 8.51739 29.7392L0.193339 24.0364C0.0754768 23.9556 0 23.7805 0 23.5878V8.41188C0 8.21919 0.0754771 8.04409 0.19334 7.96335L8.51155 2.26461C8.60112 2.20325 8.70441 2.20403 8.79355 2.26674L15.5641 7.03002C15.822 7.21149 15.8165 7.75917 15.5549 7.929L13.6934 9.13793C13.6094 9.19249 13.5139 9.19318 13.4295 9.13984L8.78612 6.20403C8.70115 6.1503 8.60495 6.15141 8.52054 6.2071L2.91485 9.90529L8.52147 13.3865C8.6054 13.4386 8.70004 13.4375 8.78337 13.3833L25.9048 2.25686C25.992 2.20021 26.0913 2.20166 26.1777 2.26086L34.5014 7.96339C34.6193 8.04414 34.6947 8.21924 34.6947 8.41193V23.5879C34.6947 23.7806 34.6193 23.9557 34.5014 24.0364L26.1785 29.7384C26.0916 29.7979 25.9917 29.799 25.9043 29.7416ZM2.66243 13.2756L8.52191 17.0275C8.60555 17.0811 8.70032 17.0814 8.78412 17.0284L25.9086 6.20403C25.9936 6.15032 26.0898 6.15143 26.1742 6.20711L31.8347 9.94148C31.9549 10.0208 32.0323 10.1977 32.0323 10.3929V18.53L26.1693 15.0263C26.0877 14.9775 25.9963 14.9787 25.9153 15.0297L8.78586 25.7964C8.70103 25.8497 8.60511 25.8484 8.52093 25.7929L2.86006 22.0583C2.73988 21.979 2.66243 21.8021 2.66243 21.6069V13.2756Z" fill="#85E13A"/>
<path fill-rule="evenodd" clip-rule="evenodd" d="M45.7076 4.22915C45.5936 4.46997 45.5366 4.72706 45.5366 5.00042V14.9976C45.5366 15.271 45.5936 15.5313 45.7076 15.7787C45.8216 16.0195 45.9783 16.231 46.1778 16.4132C46.3772 16.5955 46.6088 16.7387 46.8724 16.8428C47.1431 16.947 47.428 16.999 47.7272 16.999H56.0408C56.34 16.999 56.6214 16.947 56.885 16.8428C57.1557 16.7387 57.3908 16.5955 57.5903 16.4132C57.7897 16.231 57.9465 16.0195 58.0604 15.7787C58.1744 15.5313 58.2314 15.271 58.2314 14.9976V9.75678C58.2314 9.6695 58.154 9.59874 58.0584 9.59874H52.057C51.9615 9.59874 51.884 9.6695 51.884 9.75678V11.4421C51.884 11.5294 51.9615 11.6001 52.057 11.6001H55.8678C55.9634 11.6001 56.0408 11.6709 56.0408 11.7582V14.8396C56.0408 14.9269 55.9634 14.9976 55.8678 14.9976H47.9002C47.8047 14.9976 47.7272 14.9269 47.7272 14.8396V5.15846C47.7272 5.07117 47.8047 5.00042 47.9002 5.00042H55.8678C55.9634 5.00042 56.0408 5.07117 56.0408 5.15846V6.64852C56.0408 6.7358 56.1183 6.80655 56.2138 6.80655H58.0584C58.154 6.80655 58.2314 6.7358 58.2314 6.64852V5.00042C58.2314 4.72706 58.1744 4.46997 58.0604 4.22915C57.9465 3.98182 57.7897 3.77029 57.5903 3.59456C57.3908 3.41232 57.1557 3.26913 56.885 3.16499C56.6214 3.05435 56.34 2.99902 56.0408 2.99902H47.7272C47.428 2.99902 47.1431 3.05435 46.8724 3.16499C46.6088 3.26913 46.3772 3.41232 46.1778 3.59456C45.9783 3.77029 45.8216 3.98182 45.7076 4.22915ZM62.1638 3.15706C62.1638 3.06978 62.2413 2.99902 62.3368 2.99902H73.1575C73.2531 2.99902 73.3305 3.06978 73.3305 3.15706V4.84238C73.3305 4.92966 73.2531 5.00042 73.1575 5.00042H64.5274C64.4319 5.00042 64.3544 5.07117 64.3544 5.15846V8.84517C64.3544 8.93245 64.4319 9.00321 64.5274 9.00321H71.8432C71.9387 9.00321 72.0162 9.07396 72.0162 9.16125V10.8466C72.0162 10.9338 71.9387 11.0046 71.8432 11.0046H64.5274C64.4319 11.0046 64.3544 11.0754 64.3544 11.1626V14.8396C64.3544 14.9269 64.4319 14.9976 64.5274 14.9976H73.1575C73.2531 14.9976 73.3305 15.0684 73.3305 15.1557V16.841C73.3305 16.9283 73.2531 16.999 73.1575 16.999H62.3368C62.2413 16.999 62.1638 16.9283 62.1638 16.841V3.15706ZM78.588 5.15846C78.588 5.07117 78.6654 5.00042 78.7609 5.00042H85.3501C85.4456 5.00042 85.5231 5.07117 85.5231 5.15846V7.79963C85.5231 7.86089 85.4843 7.91663 85.4237 7.94267L77.9254 11.1608C77.6619 11.278 77.4303 11.4081 77.2309 11.5513C77.0385 11.688 76.8818 11.841 76.7607 12.0102C76.6396 12.1794 76.547 12.3714 76.4829 12.5862C76.4259 12.801 76.3974 13.045 76.3974 13.3184V16.841C76.3974 16.9283 76.4748 16.999 76.5704 16.999H87.8185C87.9141 16.999 87.9915 16.9283 87.9915 16.841V13.3593C87.9915 13.272 87.9141 13.2013 87.8185 13.2013H85.9739C85.8784 13.2013 85.8009 13.272 85.8009 13.3593V14.8396C85.8009 14.9269 85.7235 14.9976 85.6279 14.9976H78.7609C78.6654 14.9976 78.588 14.9269 78.588 14.8396V13.0771C78.588 13.0159 78.6268 12.9601 78.6875 12.9341L86.1749 9.72566C86.4528 9.602 86.6878 9.47183 86.8802 9.33515C87.0725 9.19847 87.2293 9.04551 87.3504 8.87629C87.4786 8.70056 87.5712 8.5053 87.6282 8.29052C87.6852 8.07573 87.7137 7.83166 87.7137 7.5583V5.00042C87.7137 4.72706 87.6531 4.46997 87.532 4.22915C87.418 3.98182 87.2613 3.77029 87.0619 3.59456C86.8695 3.41232 86.638 3.26913 86.3673 3.16499C86.1037 3.05435 85.8223 2.99902 85.5231 2.99902H78.588C78.2888 2.99902 78.0038 3.05435 77.7331 3.16499C77.4695 3.26913 77.238 3.41232 77.0385 3.59456C76.8391 3.77029 76.6823 3.98182 76.5683 4.22915C76.4544 4.46997 76.3974 4.72706 76.3974 5.00042V6.64852C76.3974 6.7358 76.4748 6.80655 76.5704 6.80655H78.415C78.5105 6.80655 78.588 6.7358 78.588 6.64852V5.15846ZM91.8939 2.99902C91.7983 2.99902 91.7209 3.06978 91.7209 3.15706V16.841C91.7209 16.9283 91.7983 16.999 91.8939 16.999H102.715C102.81 16.999 102.888 16.9283 102.888 16.841V15.1557C102.888 15.0684 102.81 14.9976 102.715 14.9976H94.0845C93.9889 14.9976 93.9115 14.9269 93.9115 14.8396V11.1626C93.9115 11.0754 93.9889 11.0046 94.0845 11.0046H101.4C101.496 11.0046 101.573 10.9338 101.573 10.8466V9.16125C101.573 9.07396 101.496 9.00321 101.4 9.00321H94.0845C93.9889 9.00321 93.9115 8.93245 93.9115 8.84517V5.15846C93.9115 5.07117 93.9889 5.00042 94.0845 5.00042H102.715C102.81 5.00042 102.888 4.92966 102.888 4.84238V3.15706C102.888 3.06978 102.81 2.99902 102.715 2.99902H91.8939Z" fill="#85E13A"/>
<path d="M97.1655 21.999H102.698V23H98.2508V25.002H102.047V26.0029H98.2508V28H102.698V29.001H97.1655V21.999Z" fill="#FCFCFD"/>
<path d="M89.3574 21.999H95.4296V23H92.9362V29.001H91.8509V23H89.3574V21.999Z" fill="#FCFCFD"/>
<path d="M86.213 21.999L89.1406 29.001H88.0554L87.383 27.3896H83.9578L83.2855 29.001H82.2002L85.1278 21.999H86.213ZM84.3707 26.3887H86.9648L85.6731 23.3027L84.3707 26.3887Z" fill="#FCFCFD"/>
<path d="M80.4642 21.999V29.001H79.3789V21.999H80.4642Z" fill="#FCFCFD"/>
<path d="M73.7415 21.999V28H77.6432V29.001H72.6562V21.999H73.7415Z" fill="#FCFCFD"/>
<path d="M70.2689 21.999V29.001H69.1836V21.999H70.2689Z" fill="#FCFCFD"/>
<path d="M61.6982 21.999H67.2305V23H62.7835V25.002H66.5793V26.0029H62.7835V29.001H61.6982V21.999Z" fill="#FCFCFD"/>
<path d="M54.2129 21.999H59.7451V23H55.2982V25.002H59.094V26.0029H55.2982V29.001H54.2129V21.999Z" fill="#FCFCFD"/>
<path d="M49.5495 21.999L52.4771 29.001H51.3918L50.7194 27.3896H47.2942L46.6219 29.001H45.5366L48.4642 21.999H49.5495ZM47.7072 26.3887H50.3012L49.0095 23.3027L47.7072 26.3887Z" fill="#FCFCFD"/>
</svg>
