<svg width="35" height="32" viewBox="0 0 35 32" fill="none" xmlns="http://www.w3.org/2000/svg">
<g id="logo-ge2e-icon">
<path id="Union" fill-rule="evenodd" clip-rule="evenodd" d="M25.9043 29.7415L18.9398 25.1643C18.6743 24.9898 18.6761 24.4296 18.9427 24.259L20.8634 23.0295C20.9439 22.978 21.0348 22.9757 21.1164 23.023L25.9125 25.8049C25.9953 25.8529 26.0876 25.8498 26.1688 25.7962L31.8347 22.0583C31.8627 22.0398 31.8884 22.016 31.9114 21.9878L26.1697 18.6673C26.0878 18.6199 25.9966 18.6226 25.916 18.6747L8.78971 29.7435C8.70267 29.7997 8.60358 29.7981 8.51739 29.7391L0.193339 24.0363C0.0754768 23.9556 0 23.7805 0 23.5878V8.41182C0 8.21913 0.0754771 8.04403 0.19334 7.96328L8.51155 2.26455C8.60112 2.20319 8.70441 2.20397 8.79355 2.26668L15.5641 7.02995C15.822 7.21143 15.8165 7.75911 15.5549 7.92894L13.6934 9.13787C13.6094 9.19243 13.5139 9.19312 13.4295 9.13978L8.78612 6.20397C8.70115 6.15024 8.60495 6.15135 8.52054 6.20703L2.91485 9.90523L8.52147 13.3865C8.6054 13.4386 8.70004 13.4374 8.78337 13.3833L25.9048 2.2568C25.992 2.20015 26.0913 2.2016 26.1777 2.2608L34.5014 7.96333C34.6193 8.04408 34.6947 8.21918 34.6947 8.41187V23.5878C34.6947 23.7805 34.6193 23.9556 34.5014 24.0364L26.1785 29.7383C26.0916 29.7978 25.9917 29.799 25.9043 29.7415ZM2.66243 13.2755L8.52191 17.0275C8.60555 17.081 8.70032 17.0813 8.78412 17.0284L25.9086 6.20397C25.9936 6.15025 26.0898 6.15137 26.1742 6.20705L31.8347 9.94142C31.9549 10.0207 32.0323 10.1976 32.0323 10.3928V18.53L26.1693 15.0263C26.0877 14.9775 25.9963 14.9787 25.9153 15.0296L8.78586 25.7963C8.70103 25.8496 8.60511 25.8484 8.52093 25.7928L2.86006 22.0582C2.73988 21.9789 2.66243 21.802 2.66243 21.6068V13.2755Z" fill="#85E13A"/>
</g>
</svg>
