<svg width="20" height="20" viewBox="0 0 20 20" fill="none" xmlns="http://www.w3.org/2000/svg">
    <g id="bell-02">
        <path id="Icon"
            d="M11.6665 17.5H8.33315M14.9998 6.66669C14.9998 5.3406 14.473 4.06883 13.5353 3.13115C12.5977 2.19347 11.3259 1.66669 9.99981 1.66669C8.67373 1.66669 7.40196 2.19347 6.46428 3.13115C5.5266 4.06883 4.99981 5.3406 4.99981 6.66669C4.99981 9.24184 4.3502 11.005 3.62453 12.1712C3.01242 13.1549 2.70636 13.6468 2.71758 13.784C2.73001 13.9359 2.7622 13.9939 2.88463 14.0847C2.99519 14.1667 3.49364 14.1667 4.49052 14.1667H15.5091C16.506 14.1667 17.0044 14.1667 17.115 14.0847C17.2374 13.9939 17.2696 13.9359 17.282 13.784C17.2933 13.6468 16.9872 13.1549 16.3751 12.1712C15.6494 11.005 14.9998 9.24184 14.9998 6.66669Z"
            stroke="currentcolor" fill='none' stroke-width="1.66667" stroke-linecap="round" stroke-linejoin="round" />
    </g>
</svg>