<svg width="24" height="24" viewBox="0 0 24 24" fill="none" xmlns="http://www.w3.org/2000/svg">
    <g id="Sidebar">
        <path id="Subtract" fill-rule="evenodd" clip-rule="evenodd"
            d="M7.89101 2.54601C8 2.75992 8 3.03995 8 3.6L8 20.4C8 20.9601 8 21.2401 7.89101 21.454C7.79514 21.6422 7.64216 21.7951 7.45399 21.891C7.24008 22 6.96006 22 6.4 22H6.16144C5.6343 22 5.17954 22 4.80498 21.9694C4.40963 21.9371 4.01641 21.8658 3.63803 21.673C3.07355 21.3854 2.6146 20.9265 2.32698 20.362C2.13419 19.9836 2.06287 19.5904 2.03057 19.195C1.99997 18.8205 1.99998 18.3657 2 17.8386V17.8385V6.16142V6.16138C1.99998 5.63427 1.99997 5.17953 2.03057 4.80498C2.06287 4.40963 2.13419 4.01641 2.32698 3.63803C2.6146 3.07355 3.07355 2.6146 3.63803 2.32698C4.01641 2.13419 4.40963 2.06287 4.80498 2.03057C5.17953 1.99997 5.6343 1.99998 6.16142 2H6.16146H6.4C6.96005 2 7.24008 2 7.45399 2.109C7.64215 2.20487 7.79514 2.35785 7.89101 2.54601ZM10.109 21.454C10 21.2401 10 20.9601 10 20.4L10 3.6C10 3.03995 10 2.75992 10.109 2.54601C10.2049 2.35785 10.3578 2.20487 10.546 2.109C10.7599 2 11.0399 2 11.6 2H17.8386H17.8386C18.3657 1.99998 18.8205 1.99997 19.195 2.03057C19.5904 2.06287 19.9836 2.13419 20.362 2.32698C20.9265 2.6146 21.3854 3.07355 21.673 3.63803C21.8658 4.01641 21.9371 4.40963 21.9694 4.80498C22 5.17954 22 5.6343 22 6.16144V17.8386C22 18.3657 22 18.8205 21.9694 19.195C21.9371 19.5904 21.8658 19.9836 21.673 20.362C21.3854 20.9265 20.9265 21.3854 20.362 21.673C19.9836 21.8658 19.5904 21.9371 19.195 21.9694C18.8205 22 18.3657 22 17.8386 22H11.6C11.04 22 10.7599 22 10.546 21.891C10.3579 21.7951 10.2049 21.6422 10.109 21.454ZM14.1464 15.0245C13.9512 15.2477 13.9512 15.6095 14.1464 15.8326C14.3417 16.0558 14.6583 16.0558 14.8536 15.8326L17.8536 12.4041C18.0488 12.1809 18.0488 11.8191 17.8536 11.5959L14.8536 8.16737C14.6583 7.94421 14.3417 7.94421 14.1464 8.16737C13.9512 8.39052 13.9512 8.75233 14.1464 8.97549L16.7929 12L14.1464 15.0245Z"
            fill="current" />
    </g>
</svg>