<svg width="20" height="20" viewBox="0 0 20 20" fill="none" xmlns="http://www.w3.org/2000/svg">
<path fill-rule="evenodd" clip-rule="evenodd" d="M5.63217 2.50019L9.16659 2.50019C9.62682 2.50019 9.99992 2.87329 9.99992 3.33352C9.99992 3.79376 9.62682 4.16686 9.16659 4.16686H5.66659C4.95277 4.16686 4.46753 4.1675 4.09245 4.19815C3.7271 4.228 3.54027 4.2821 3.40994 4.34851C3.09633 4.5083 2.84136 4.76327 2.68158 5.07687C2.61517 5.20721 2.56106 5.39404 2.53121 5.75939C2.50057 6.13446 2.49992 6.61971 2.49992 7.33352V14.3335C2.49992 15.0473 2.50057 15.5326 2.53121 15.9077C2.56106 16.273 2.61517 16.4598 2.68158 16.5902C2.84136 16.9038 3.09633 17.1587 3.40994 17.3185C3.54027 17.3849 3.7271 17.439 4.09245 17.4689C4.46753 17.4995 4.95277 17.5002 5.66659 17.5002H12.6666C13.3804 17.5002 13.8656 17.4995 14.2407 17.4689C14.6061 17.439 14.7929 17.3849 14.9232 17.3185C15.2368 17.1587 15.4918 16.9038 15.6516 16.5902C15.718 16.4598 15.7721 16.273 15.802 15.9077C15.8326 15.5326 15.8333 15.0473 15.8333 14.3335V10.8335C15.8333 10.3733 16.2063 10.0002 16.6666 10.0002C17.1268 10.0002 17.4999 10.3733 17.4999 10.8335V14.368C17.4999 15.0388 17.4999 15.5924 17.4631 16.0434C17.4248 16.5118 17.3427 16.9424 17.1366 17.3468C16.817 17.974 16.3071 18.484 15.6799 18.8035C15.2754 19.0096 14.8449 19.0918 14.3764 19.13C13.9255 19.1669 13.3718 19.1669 12.701 19.1669H5.63215C4.96135 19.1669 4.40772 19.1669 3.95673 19.13C3.48832 19.0918 3.05773 19.0096 2.65328 18.8035C2.02608 18.484 1.51614 17.974 1.19656 17.3468C0.990489 16.9424 0.908352 16.5118 0.870081 16.0434C0.833233 15.5924 0.833242 15.0387 0.833252 14.3679V7.29911C0.833242 6.6283 0.833233 6.07466 0.870081 5.62367C0.908352 5.15525 0.990489 4.72467 1.19656 4.32022C1.51614 3.69301 2.02608 3.18308 2.65328 2.8635C3.05773 2.65743 3.48832 2.57529 3.95673 2.53702C4.40773 2.50017 4.96136 2.50018 5.63217 2.50019Z" fill="#E3E8EF"/>
<path fill-rule="evenodd" clip-rule="evenodd" d="M14.8273 1.49426C15.8431 0.478473 17.4901 0.478475 18.5058 1.49427C19.5216 2.51006 19.5216 4.15699 18.5058 5.17278L10.5369 13.1417C10.5204 13.1582 10.504 13.1746 10.4878 13.1909C10.2483 13.4308 10.0371 13.6424 9.78248 13.7985C9.5588 13.9355 9.31493 14.0365 9.05984 14.0978C8.76947 14.1675 8.47051 14.1672 8.13143 14.1669C8.10848 14.1669 8.08535 14.1669 8.06202 14.1669H6.66656C6.20633 14.1669 5.83323 13.7938 5.83323 13.3335V11.9381C5.83323 11.9148 5.83321 11.8916 5.83319 11.8687C5.83287 11.5296 5.83259 11.2306 5.90231 10.9403C5.96355 10.6852 6.06456 10.4413 6.20163 10.2176C6.35766 9.96302 6.56925 9.75182 6.80924 9.51227C6.82549 9.49606 6.84186 9.47972 6.85836 9.46322L14.8273 1.49426Z" fill="#E3E8EF"/>
</svg>
