<svg width="24" height="24" viewBox="0 0 24 24" fill="none" xmlns="http://www.w3.org/2000/svg">
<path fill-rule="evenodd" clip-rule="evenodd" d="M21.6748 17.2622C22.0824 17.6348 22.1108 18.2673 21.7382 18.6749L20.7381 19.769C20.0285 20.545 19.0459 21.0002 18.0002 21.0002C16.9549 21.0002 15.9727 20.5454 15.2631 19.7698C14.9112 19.3865 14.4549 19.1903 14.0003 19.1903C13.5454 19.1903 13.0889 19.3867 12.7369 19.7703C12.3635 20.1773 11.731 20.2045 11.324 19.8311C10.9171 19.4578 10.8899 18.8252 11.2632 18.4182C11.9736 17.644 12.9555 17.1903 14.0003 17.1903C15.045 17.1903 16.027 17.644 16.7373 18.4182L16.7385 18.4195C17.0897 18.8036 17.5458 19.0002 18.0002 19.0002C18.4546 19.0002 18.9107 18.8036 19.2619 18.4196L20.262 17.3255C20.6346 16.9179 21.2672 16.8895 21.6748 17.2622Z" fill="#9AA4B2"/>
<path fill-rule="evenodd" clip-rule="evenodd" d="M15.793 2.79312C17.012 1.57417 18.9883 1.57417 20.2072 2.79312C21.4262 4.01207 21.4262 5.98838 20.2072 7.20733L7.64449 19.7701C7.6247 19.7899 7.60508 19.8095 7.58562 19.829C7.29817 20.117 7.04474 20.3709 6.7392 20.5581C6.47078 20.7226 6.17815 20.8438 5.87204 20.9173C5.52359 21.001 5.16484 21.0007 4.75794 21.0003C4.7304 21.0003 4.70264 21.0002 4.67464 21.0002H3.0001C2.44782 21.0002 2.0001 20.5525 2.0001 20.0002V18.3257C2.0001 18.2977 2.00008 18.2699 2.00005 18.2424C1.99967 17.8355 1.99934 17.4768 2.08299 17.1283C2.15648 16.8222 2.2777 16.5296 2.44218 16.2612C2.62942 15.9556 2.88333 15.7022 3.17132 15.4147C3.19081 15.3953 3.21046 15.3757 3.23026 15.3559L15.793 2.79312Z" fill="#9AA4B2"/>
</svg>
