<svg width="20" height="20" viewBox="0 0 20 20" fill="none" xmlns="http://www.w3.org/2000/svg">
<path fill-rule="evenodd" clip-rule="evenodd" d="M9.16657 16.6665C9.16657 16.2063 9.53966 15.8332 9.9999 15.8332H17.4999C17.9601 15.8332 18.3332 16.2063 18.3332 16.6665C18.3332 17.1268 17.9601 17.4999 17.4999 17.4999H9.9999C9.53966 17.4999 9.16657 17.1268 9.16657 16.6665Z" fill="#15290A"/>
<path fill-rule="evenodd" clip-rule="evenodd" d="M13.1607 2.32727C14.1765 1.31148 15.8234 1.31148 16.8392 2.32727C17.855 3.34307 17.855 4.98999 16.8392 6.00579L6.37025 16.4747C6.35375 16.4912 6.3374 16.5076 6.32119 16.5239C6.08165 16.7638 5.87045 16.9754 5.61583 17.1315C5.39215 17.2685 5.14829 17.3695 4.8932 17.4308C4.60283 17.5005 4.30387 17.5002 3.96479 17.4999C3.94184 17.4999 3.9187 17.4999 3.89537 17.4999H2.49992C2.03968 17.4999 1.66659 17.1268 1.66659 16.6665V15.2711C1.66659 15.2478 1.66657 15.2246 1.66655 15.2017C1.66623 14.8626 1.66595 14.5636 1.73566 14.2733C1.79691 14.0182 1.89792 13.7743 2.03499 13.5506C2.19102 13.296 2.40261 13.0848 2.6426 12.8453C2.65885 12.8291 2.67522 12.8127 2.69172 12.7962L13.1607 2.32727Z" fill="#15290A"/>
</svg>
