<svg width="20" height="20" viewBox="0 0 20 20" fill="none" xmlns="http://www.w3.org/2000/svg">
<path fill-rule="evenodd" clip-rule="evenodd" d="M14.1601 8.78809C13.4563 6.95557 11.6676 5.66345 9.44445 6.07594C6.98673 6.53195 5.37551 8.76574 5.71071 11.1965C5.83065 12.0662 6.20815 13.4593 6.59539 14.7625C6.9886 16.0857 7.4124 17.383 7.64804 18.0915C7.64983 18.0969 7.65165 18.1023 7.6535 18.1079C7.68047 18.1891 7.71402 18.2901 7.75127 18.3781C7.79585 18.4834 7.86658 18.6232 7.99216 18.7562C8.15889 18.9327 8.37591 19.058 8.61219 19.1141C8.79015 19.1564 8.94655 19.1478 9.06002 19.1337C9.15483 19.122 9.25907 19.1006 9.34288 19.0833C9.34865 19.0821 9.35433 19.081 9.3599 19.0798C10.0913 18.9296 11.4267 18.648 12.7692 18.3269C14.0914 18.0107 15.4866 17.6411 16.2998 17.3101C18.5614 16.3895 19.7407 13.8808 18.8636 11.5056C18.0818 9.3886 16.0974 8.48014 14.1601 8.78809Z" fill="#E3E8EF"/>
<path d="M12.1629 1.24418C10.1131 0.300012 8.06755 1.06079 6.91542 2.64841C5.12192 1.85035 2.94349 2.20144 1.66315 4.06513C0.247729 6.12545 0.687949 8.84429 2.64378 10.3261C2.99344 10.591 3.48281 10.904 4.03617 11.2327C3.68716 7.98538 5.88072 5.04206 9.14039 4.43725C11.4777 4.00358 13.4436 4.92339 14.692 6.43973C15.1892 4.3784 14.22 2.19171 12.1629 1.24418Z" fill="#E3E8EF"/>
</svg>
