<svg width="20" height="20" viewBox="0 0 20 20" fill="none" xmlns="http://www.w3.org/2000/svg">
<path d="M9.61172 0.833496C9.01171 0.833496 8.46798 1.18685 8.22429 1.73515L5.42366 8.03656C5.35572 8.18944 5.32024 8.26829 5.29115 8.32379L5.28857 8.32869L5.28304 8.32906C5.22051 8.3331 5.13405 8.3335 4.96676 8.3335L4.30113 8.33349C3.86184 8.33348 3.48287 8.33347 3.17073 8.35897C2.84128 8.38589 2.51359 8.44532 2.19828 8.60598C1.72787 8.84566 1.34542 9.22811 1.10574 9.69852C0.945076 10.0138 0.885646 10.3415 0.858729 10.671C0.833226 10.9831 0.833238 11.3621 0.833253 11.8013V15.6989C0.833238 16.1382 0.833226 16.5172 0.858729 16.8294C0.885646 17.1588 0.945076 17.4865 1.10574 17.8018C1.34542 18.2722 1.72787 18.6547 2.19828 18.8943C2.51359 19.055 2.84128 19.1144 3.17073 19.1414C3.48287 19.1669 3.86183 19.1668 4.30112 19.1668C4.68705 19.1668 4.99992 18.854 4.99992 18.468L4.99992 11.6668C4.99992 11.2066 5.37302 10.8335 5.83325 10.8335C6.29349 10.8335 6.66659 11.2066 6.66659 11.6668L6.66659 17.8335C6.66659 18.3002 6.66659 18.5336 6.75741 18.7118C6.83731 18.8686 6.96479 18.9961 7.12159 19.076C7.29985 19.1668 7.53321 19.1668 7.99992 19.1668H13.2662C13.8486 19.1668 14.332 19.1668 14.7298 19.1366C15.1451 19.105 15.5279 19.0372 15.8975 18.8697C16.4755 18.6078 16.9667 18.1864 17.3135 17.6549C17.5352 17.3151 17.6604 16.947 17.7548 16.5413C17.8452 16.1528 17.9187 15.675 18.0073 15.0995L18.4536 12.1982C18.5709 11.4358 18.6671 10.8107 18.7011 10.3005C18.7362 9.77415 18.7133 9.28301 18.5337 8.81225C18.258 8.08939 17.7394 7.48495 17.0669 7.10253C16.6289 6.85348 16.147 6.75611 15.6214 6.71076C15.112 6.66681 14.4796 6.66682 13.7081 6.66683H12.9999C12.7528 6.66683 12.6176 6.66618 12.5204 6.65824L12.5095 6.65729L12.5085 6.6463C12.5006 6.54915 12.4999 6.41393 12.4999 6.16683V3.72169C12.4999 2.12659 11.2068 0.833496 9.61172 0.833496Z" fill="#E3E8EF"/>
</svg>
