<svg width="20" height="20" viewBox="0 0 20 20" fill="none" xmlns="http://www.w3.org/2000/svg">
<path d="M15.8925 4.10777C12.6381 0.8534 7.36176 0.8534 4.10739 4.10777C3.44231 4.77286 2.91631 5.32968 2.49992 5.79502V3.33366C2.49992 2.87342 2.12682 2.50033 1.66659 2.50033C1.20635 2.50033 0.833252 2.87342 0.833252 3.33366V8.33366C0.833252 8.7939 1.20635 9.16699 1.66659 9.16699H6.66658C7.12682 9.16699 7.49992 8.7939 7.49992 8.33366C7.49992 7.87342 7.12682 7.50033 6.66658 7.50033H3.22853C3.65535 6.986 4.30415 6.26803 5.28591 5.28628C7.8894 2.68279 12.1105 2.68279 14.714 5.28628C15.6373 6.20961 16.2321 7.33414 16.5008 8.51805C16.6026 8.96688 17.049 9.24817 17.4978 9.14634C17.9466 9.0445 18.2279 8.5981 18.1261 8.14927C17.7899 6.66771 17.0446 5.2599 15.8925 4.10777Z" fill="#E3E8EF"/>
<path d="M3.49914 11.4826C3.3973 11.0338 2.9509 10.7525 2.50207 10.8543C2.05324 10.9561 1.77195 11.4025 1.87378 11.8514C2.20994 13.3329 2.95525 14.7407 4.10738 15.8929C7.36175 19.1472 12.6381 19.1472 15.8925 15.8929C16.5573 15.228 17.0833 14.6712 17.4999 14.2057V16.667C17.4999 17.1272 17.873 17.5003 18.3333 17.5003C18.7935 17.5003 19.1666 17.1272 19.1666 16.667V11.667C19.1666 11.2068 18.7935 10.8337 18.3333 10.8337H13.3333C12.873 10.8337 12.4999 11.2068 12.4999 11.667C12.4999 12.1272 12.873 12.5003 13.3333 12.5003H16.7713C16.3451 13.014 15.6964 13.7319 14.714 14.7143C12.1105 17.3178 7.88939 17.3178 5.28589 14.7143C4.36256 13.791 3.76776 12.6665 3.49914 11.4826Z" fill="#E3E8EF"/>
</svg>
