<svg width="20" height="20" viewBox="0 0 20 20" fill="none" xmlns="http://www.w3.org/2000/svg">
<path fill-rule="evenodd" clip-rule="evenodd" d="M9.16675 1.66699C5.02461 1.66699 1.66675 5.02486 1.66675 9.16699C1.66675 13.3091 5.02461 16.667 9.16675 16.667C10.9376 16.667 12.5651 16.0533 13.8482 15.0269L16.9108 18.0896C17.2363 18.415 17.7639 18.415 18.0893 18.0896C18.4148 17.7641 18.4148 17.2365 18.0893 16.9111L15.0267 13.8484C16.053 12.5653 16.6667 10.9378 16.6667 9.16699C16.6667 5.02486 13.3089 1.66699 9.16675 1.66699ZM3.33341 9.16699C3.33341 5.94533 5.94509 3.33366 9.16675 3.33366C12.3884 3.33366 15.0001 5.94533 15.0001 9.16699C15.0001 12.3887 12.3884 15.0003 9.16675 15.0003C5.94509 15.0003 3.33341 12.3887 3.33341 9.16699Z" fill="#CDD5DF"/>
</svg>
