<svg width="20" height="20" viewBox="0 0 20 20" fill="none" xmlns="http://www.w3.org/2000/svg">
<path d="M17.996 1.21442C17.6662 1.10425 17.3591 1.18392 17.2065 1.22827C17.0401 1.27659 16.8418 1.354 16.6429 1.43167L2.51199 6.94617C2.28963 7.03291 2.07426 7.11693 1.90803 7.19912C1.7644 7.27014 1.45911 7.42821 1.28871 7.75622C1.10079 8.11794 1.10104 8.54856 1.28939 8.91006C1.46018 9.23787 1.76565 9.39558 1.90936 9.46643C2.07568 9.54842 2.29112 9.63217 2.51357 9.71865L6.44692 11.2483C6.74036 11.3624 6.88707 11.4195 7.03303 11.423C7.16205 11.4261 7.29002 11.3991 7.40686 11.3443C7.53905 11.2824 7.65036 11.171 7.87299 10.9484L11.9108 6.91058C12.2363 6.58514 12.7639 6.58514 13.0893 6.91058C13.4148 7.23602 13.4148 7.76366 13.0893 8.08909L9.0515 12.1269C8.82888 12.3496 8.71756 12.4609 8.65557 12.5931C8.60078 12.7099 8.57387 12.8379 8.57696 12.9669C8.58047 13.1128 8.63753 13.2596 8.75164 13.553L10.2812 17.4863C10.3677 17.7088 10.4515 17.9242 10.5335 18.0906C10.6043 18.2343 10.7621 18.5397 11.0899 18.7105C11.4514 18.8989 11.882 18.8991 12.2437 18.7112C12.5717 18.5408 12.7298 18.2355 12.8008 18.0919C12.883 17.9257 12.967 17.7103 13.0537 17.488L18.5683 3.35701C18.6459 3.15809 18.7233 2.95982 18.7717 2.79346C18.816 2.64081 18.8957 2.33376 18.7855 2.00395C18.661 1.63133 18.3686 1.33891 17.996 1.21442Z" fill="#15290A"/>
</svg>
