<svg width="20" height="20" viewBox="0 0 20 20" fill="none" xmlns="http://www.w3.org/2000/svg">
<path fill-rule="evenodd" clip-rule="evenodd" d="M8.61446 2.61606C8.85872 2.31636 9.22791 2.14656 9.61441 2.15615C9.95325 2.16455 10.2091 2.33436 10.338 2.42608C10.4754 2.52385 10.6317 2.65792 10.7868 2.79089C10.7944 2.79741 10.802 2.80392 10.8096 2.81043L17.8849 8.87496C17.9719 8.9495 18.073 9.0361 18.1545 9.11907C18.2466 9.21299 18.3756 9.36216 18.4529 9.57725C18.551 9.85043 18.551 10.1492 18.4529 10.4224C18.3756 10.6375 18.2466 10.7867 18.1545 10.8806C18.073 10.9636 17.9719 11.0502 17.8849 11.1247L10.7868 17.2088C10.6317 17.3418 10.4754 17.4758 10.338 17.5736C10.2091 17.6653 9.95325 17.8351 9.61441 17.8435C9.22791 17.8531 8.85872 17.6833 8.61446 17.3836C8.40033 17.1209 8.36273 16.8161 8.3485 16.6586C8.33334 16.4906 8.33337 16.2846 8.33341 16.0804L8.33342 13.4968C7.54825 13.6326 6.78342 13.8763 6.06115 14.2228C4.93506 14.763 3.93902 15.5402 3.14128 16.5012C2.917 16.7714 2.54742 16.872 2.21714 16.7528C1.88686 16.6336 1.66675 16.3201 1.66675 15.969V15.459C1.66788 13.275 2.47303 11.1675 3.92856 9.53933C5.10558 8.2227 6.64125 7.29376 8.33342 6.85694V3.94932C8.33342 3.93932 8.33341 3.92931 8.33341 3.9193C8.33337 3.71503 8.33334 3.50905 8.3485 3.34112C8.36273 3.18359 8.40033 2.87879 8.61446 2.61606Z" fill="#E3E8EF"/>
</svg>
