<svg width="20" height="20" viewBox="0 0 20 20" fill="none" xmlns="http://www.w3.org/2000/svg">
<path d="M6.66675 2.49984C6.66675 2.0396 7.03984 1.6665 7.50008 1.6665H12.5001C12.9603 1.6665 13.3334 2.0396 13.3334 2.49984C13.3334 2.96007 12.9603 3.33317 12.5001 3.33317H7.50008C7.03984 3.33317 6.66675 2.96007 6.66675 2.49984Z" fill="#F04438"/>
<path fill-rule="evenodd" clip-rule="evenodd" d="M1.66675 4.99984C1.66675 4.5396 2.03984 4.1665 2.50008 4.1665H17.5001C17.9603 4.1665 18.3334 4.5396 18.3334 4.99984C18.3334 5.46007 17.9603 5.83317 17.5001 5.83317H16.6131L16.0783 13.8544C16.0364 14.4839 16.0016 15.0049 15.9394 15.4289C15.8746 15.8704 15.7717 16.2739 15.5575 16.6499C15.2241 17.2352 14.7211 17.7057 14.1149 17.9995C13.7255 18.1882 13.3161 18.264 12.8713 18.2993C12.444 18.3332 11.9219 18.3332 11.291 18.3332H8.70922C8.0783 18.3332 7.55618 18.3332 7.12893 18.2993C6.6841 18.264 6.27471 18.1882 5.8853 17.9995C5.2791 17.7057 4.77613 17.2352 4.44268 16.6499C4.22848 16.2739 4.12566 15.8704 4.06083 15.4289C3.99857 15.0049 3.96385 14.4839 3.92189 13.8544L3.38714 5.83317H2.50008C2.03984 5.83317 1.66675 5.46007 1.66675 4.99984ZM8.33342 7.9165C8.79365 7.9165 9.16675 8.2896 9.16675 8.74984V12.9165C9.16675 13.3767 8.79365 13.7498 8.33342 13.7498C7.87318 13.7498 7.50008 13.3767 7.50008 12.9165V8.74984C7.50008 8.2896 7.87318 7.9165 8.33342 7.9165ZM12.5001 8.74984C12.5001 8.2896 12.127 7.9165 11.6667 7.9165C11.2065 7.9165 10.8334 8.2896 10.8334 8.74984V12.9165C10.8334 13.3767 11.2065 13.7498 11.6667 13.7498C12.127 13.7498 12.5001 13.3767 12.5001 12.9165V8.74984Z" fill="#F04438"/>
</svg>
