<svg width="21" height="20" viewBox="0 0 21 20" fill="none" xmlns="http://www.w3.org/2000/svg">
<g id="check-circle">
<path id="Solid" fill-rule="evenodd" clip-rule="evenodd" d="M10.5 0.833252C5.4374 0.833252 1.33334 4.93731 1.33334 9.99992C1.33334 15.0625 5.4374 19.1666 10.5 19.1666C15.5626 19.1666 19.6667 15.0625 19.6667 9.99992C19.6667 4.93731 15.5626 0.833252 10.5 0.833252ZM14.8393 8.08917C15.1647 7.76374 15.1647 7.2361 14.8393 6.91066C14.5138 6.58523 13.9862 6.58523 13.6608 6.91066L9.25001 11.3214L7.33926 9.41066C7.01383 9.08523 6.48619 9.08523 6.16075 9.41066C5.83532 9.7361 5.83532 10.2637 6.16075 10.5892L8.66075 13.0892C8.98619 13.4146 9.51383 13.4146 9.83927 13.0892L14.8393 8.08917Z" fill="#4CA30D"/>
</g>
</svg>
