<svg width="20" height="20" viewBox="0 0 20 20" fill="none" xmlns="http://www.w3.org/2000/svg">
    <g id="copy-04">
        <g id="Solid">
            <path fill-rule="evenodd" clip-rule="evenodd"
                d="M15.6987 14.1666H9.30114C8.86186 14.1667 8.48287 14.1667 8.17073 14.1412C7.84128 14.1143 7.5136 14.0548 7.19828 13.8942C6.72787 13.6545 6.34542 13.272 6.10574 12.8016C5.94508 12.4863 5.88565 12.1586 5.85873 11.8292C5.83323 11.517 5.83324 11.1381 5.83325 10.6988V4.30119C5.83324 3.86192 5.83323 3.48293 5.85873 3.17079C5.88565 2.84134 5.94508 2.51365 6.10574 2.19834C6.34542 1.72793 6.72787 1.34548 7.19828 1.1058C7.5136 0.945136 7.84128 0.885705 8.17073 0.858788C8.48286 0.833287 8.8618 0.833299 9.30105 0.833314H15.6987C16.1379 0.833299 16.517 0.833287 16.8291 0.858788C17.1586 0.885705 17.4862 0.945136 17.8016 1.1058C18.272 1.34548 18.6544 1.72793 18.8941 2.19834C19.0548 2.51365 19.1142 2.84134 19.1411 3.17079C19.1666 3.48294 19.1666 3.86191 19.1666 4.30121V10.6987C19.1666 11.138 19.1666 11.517 19.1411 11.8292C19.1142 12.1586 19.0548 12.4863 18.8941 12.8016C18.6544 13.272 18.272 13.6545 17.8016 13.8942C17.4862 14.0548 17.1586 14.1143 16.8291 14.1412C16.517 14.1667 16.138 14.1667 15.6987 14.1666Z"
                fill="current" />
            <path
                d="M4.30113 19.1666H10.6987C11.138 19.1667 11.517 19.1667 11.8291 19.1412C12.1586 19.1143 12.4862 19.0548 12.8016 18.8942C13.272 18.6545 13.6544 18.272 13.8941 17.8016C14.0548 17.4863 14.1142 17.1586 14.1411 16.8292C14.164 16.5494 14.1663 16.2158 14.1666 15.8333L9.26587 15.8333C8.85867 15.8334 8.41716 15.8335 8.03501 15.8023C7.60249 15.7669 7.03106 15.6795 6.44163 15.3792C5.65762 14.9797 5.0202 14.3423 4.62073 13.5583C4.3204 12.9688 4.23294 12.3974 4.1976 11.9649C4.16638 11.5827 4.16648 11.1412 4.16658 10.734L4.16659 5.83334C3.78406 5.83357 3.45054 5.83593 3.17073 5.85879C2.84127 5.8857 2.51359 5.94514 2.19828 6.1058C1.72787 6.34548 1.34542 6.72793 1.10573 7.19834C0.945073 7.51365 0.885643 7.84134 0.858725 8.17079C0.833224 8.48291 0.833238 8.86185 0.833253 9.30111V15.6987C0.833238 16.138 0.833224 16.517 0.858725 16.8292C0.885643 17.1586 0.945073 17.4863 1.10573 17.8016C1.34542 18.272 1.72787 18.6545 2.19828 18.8942C2.51359 19.0548 2.84127 19.1143 3.17073 19.1412C3.48286 19.1667 3.86186 19.1667 4.30113 19.1666Z"
                fill="current" />
        </g>
    </g>
</svg>