<svg xmlns="http://www.w3.org/2000/svg" width="24" height="24" viewBox="0 0 24 24" fill="none">
  <path d="M10.0004 12C10.0004 10.8954 10.8958 10 12.0004 10C13.105 10 14.0004 10.8954 14.0004 12C14.0004 13.1046 13.105 14 12.0004 14C10.8958 14 10.0004 13.1046 10.0004 12Z" fill="black"/>
  <path fill-rule="evenodd" clip-rule="evenodd" d="M12.0004 4C9.13873 4 6.80575 5.26472 5.07715 6.70743C3.3509 8.14818 2.16737 9.81429 1.57462 10.7528L1.55054 10.7908C1.43292 10.976 1.2802 11.2164 1.203 11.5532C1.14067 11.8251 1.14067 12.1749 1.203 12.4468C1.2802 12.7836 1.43291 13.024 1.55053 13.2092L1.57462 13.2472C2.16737 14.1857 3.3509 15.8518 5.07715 17.2926C6.80575 18.7353 9.13873 20 12.0004 20C14.8621 20 17.1951 18.7353 18.9237 17.2926C20.6499 15.8518 21.8334 14.1857 22.4262 13.2472L22.4503 13.2092C22.5679 13.024 22.7206 12.7837 22.7978 12.4468C22.8601 12.1749 22.8601 11.8251 22.7978 11.5532C22.7206 11.2163 22.5679 10.976 22.4503 10.7908L22.4262 10.7528C21.8334 9.81429 20.6499 8.14818 18.9237 6.70743C17.1951 5.26472 14.8621 4 12.0004 4ZM12.0004 8C9.79126 8 8.0004 9.79086 8.0004 12C8.0004 14.2091 9.79126 16 12.0004 16C14.2095 16 16.0004 14.2091 16.0004 12C16.0004 9.79086 14.2095 8 12.0004 8Z" fill="black"/>
</svg>