<svg width="20" height="20" viewBox="0 0 20 20" fill="none" xmlns="http://www.w3.org/2000/svg">
<g id="send-01">
<path id="Solid" d="M17.996 1.21461C17.6662 1.10443 17.3591 1.18411 17.2065 1.22845C17.0401 1.27677 16.8418 1.35418 16.6429 1.43185L2.51199 6.94635C2.28963 7.03309 2.07426 7.11711 1.90803 7.1993C1.7644 7.27032 1.45911 7.42839 1.28871 7.7564C1.10079 8.11812 1.10104 8.54874 1.28939 8.91024C1.46018 9.23805 1.76565 9.39576 1.90936 9.46661C2.07568 9.5486 2.29112 9.63235 2.51357 9.71883L6.44692 11.2485C6.74036 11.3626 6.88707 11.4196 7.03303 11.4231C7.16205 11.4262 7.29002 11.3993 7.40686 11.3445C7.53905 11.2825 7.65036 11.1712 7.87299 10.9486L11.9108 6.91077C12.2363 6.58533 12.7639 6.58533 13.0893 6.91077C13.4148 7.2362 13.4148 7.76384 13.0893 8.08928L9.0515 12.1271C8.82888 12.3497 8.71756 12.4611 8.65557 12.5932C8.60078 12.7101 8.57387 12.8381 8.57696 12.9671C8.58047 13.113 8.63753 13.2597 8.75164 13.5532L10.2812 17.4865C10.3677 17.7089 10.4515 17.9244 10.5335 18.0907C10.6043 18.2345 10.7621 18.5399 11.0899 18.7107C11.4514 18.8991 11.882 18.8993 12.2437 18.7114C12.5717 18.541 12.7298 18.2357 12.8008 18.0921C12.883 17.9258 12.967 17.7105 13.0537 17.4882L18.5683 3.3572C18.6459 3.15827 18.7233 2.96001 18.7717 2.79364C18.816 2.64099 18.8957 2.33394 18.7855 2.00413C18.661 1.63151 18.3686 1.33909 17.996 1.21461Z" fill="#15290A"/>
</g>
</svg>
