<svg width="20" height="20" viewBox="0 0 20 20" fill="none" xmlns="http://www.w3.org/2000/svg">
<g id="upload-03">
<path id="Solid" fill-rule="evenodd" clip-rule="evenodd" d="M10 0.833313C4.93743 0.833313 0.833374 4.93737 0.833374 9.99998C0.833374 15.0626 4.93743 19.1666 10 19.1666C15.0626 19.1666 19.1667 15.0626 19.1667 9.99998C19.1667 4.93737 15.0626 0.833313 10 0.833313ZM6.07745 9.41072L9.41078 6.07739C9.73622 5.75195 10.2639 5.75195 10.5893 6.07739L13.9226 9.41072C14.2481 9.73616 14.2481 10.2638 13.9226 10.5892C13.5972 10.9147 13.0696 10.9147 12.7441 10.5892L10.8334 8.67849V13.3333C10.8334 13.7935 10.4603 14.1666 10 14.1666C9.5398 14.1666 9.16671 13.7935 9.16671 13.3333V8.67849L7.25596 10.5892C6.93053 10.9147 6.40289 10.9147 6.07745 10.5892C5.75201 10.2638 5.75201 9.73616 6.07745 9.41072Z" fill="#85E13A"/>
</g>
</svg>
