<svg width="84" height="36" viewBox="0 0 84 36" fill="none" xmlns="http://www.w3.org/2000/svg">
<g filter="url(#filter0_d_7495_1352)">
<rect x="2" y="1" width="80" height="32" rx="8" fill="#121926"/>
<rect x="2.5" y="1.5" width="79" height="31" rx="7.5" stroke="#202939"/>
<rect x="14" y="7" width="20" height="20" rx="10" fill="#85E13A"/>
<path fill-rule="evenodd" clip-rule="evenodd" d="M27.2881 22.7257L24.6116 20.8185C24.5096 20.7458 24.5103 20.5124 24.6128 20.4413L25.3509 19.929C25.3818 19.9076 25.4168 19.9066 25.4481 19.9263L27.2913 21.0854C27.3231 21.1055 27.3586 21.1042 27.3898 21.0818L29.5672 19.5244C29.578 19.5167 29.5879 19.5067 29.5967 19.495L27.3901 18.1115C27.3587 18.0917 27.3236 18.0928 27.2926 18.1145L20.7109 22.7265C20.6775 22.75 20.6394 22.7493 20.6063 22.7247L17.4073 20.3485C17.362 20.3149 17.333 20.2419 17.333 20.1617V13.8383C17.333 13.7581 17.362 13.6851 17.4073 13.6515L20.604 11.277C20.6385 11.2514 20.6781 11.2517 20.7124 11.2779L23.3143 13.2626C23.4135 13.3382 23.4113 13.5664 23.3108 13.6371L22.5954 14.1409C22.5631 14.1636 22.5265 14.1639 22.494 14.1417L20.7096 12.9184C20.6769 12.896 20.6399 12.8965 20.6075 12.9197L18.4532 14.4606L20.6078 15.9111C20.6401 15.9328 20.6765 15.9323 20.7085 15.9098L27.2883 11.2737C27.3218 11.2501 27.36 11.2507 27.3932 11.2754L30.592 13.6515C30.6373 13.6851 30.6663 13.7581 30.6663 13.8384V20.1617C30.6663 20.242 30.6373 20.3149 30.592 20.3486L27.3935 22.7244C27.3601 22.7492 27.3217 22.7497 27.2881 22.7257ZM18.3562 15.8649L20.608 17.4282C20.6402 17.4505 20.6766 17.4506 20.7088 17.4286L27.2898 12.9184C27.3225 12.896 27.3594 12.8965 27.3919 12.9197L29.5672 14.4757C29.6134 14.5087 29.6432 14.5824 29.6432 14.6638V18.0542L27.39 16.5944C27.3586 16.574 27.3235 16.5745 27.2924 16.5958L20.7095 21.0819C20.6768 21.1041 20.64 21.1036 20.6076 21.0804L18.4321 19.5243C18.386 19.4913 18.3562 19.4176 18.3562 19.3362V15.8649Z" fill="#2B5314"/>
<path d="M43.0043 22V11.8182H49.6264V13.3643H44.8487V16.1286H49.2834V17.6747H44.8487V20.4538H49.6662V22H43.0043ZM51.4087 22V20.6676L54.9435 17.2024C55.2816 16.861 55.5633 16.5578 55.7887 16.2926C56.0141 16.0275 56.1831 15.7706 56.2958 15.522C56.4085 15.2734 56.4648 15.0083 56.4648 14.7266C56.4648 14.4051 56.3919 14.13 56.2461 13.9013C56.1003 13.6693 55.8997 13.4903 55.6445 13.3643C55.3893 13.2384 55.0993 13.1754 54.7745 13.1754C54.4397 13.1754 54.1464 13.245 53.8945 13.3842C53.6426 13.5201 53.4471 13.714 53.3079 13.9659C53.172 14.2178 53.104 14.5178 53.104 14.8658H51.3491C51.3491 14.2195 51.4966 13.6577 51.7915 13.1804C52.0865 12.7031 52.4925 12.3336 53.0096 12.0717C53.5299 11.8099 54.1265 11.679 54.7994 11.679C55.4821 11.679 56.082 11.8066 56.5991 12.0618C57.1161 12.317 57.5172 12.6667 57.8022 13.1108C58.0906 13.5549 58.2347 14.062 58.2347 14.6321C58.2347 15.0133 58.1618 15.3878 58.016 15.7557C57.8701 16.1236 57.6133 16.5312 57.2454 16.9787C56.8808 17.4261 56.3687 17.968 55.7092 18.6044L53.9542 20.3892V20.4588H58.3888V22H51.4087ZM60.2035 22V11.8182H66.8256V13.3643H62.0479V16.1286H66.4826V17.6747H62.0479V20.4538H66.8654V22H60.2035Z" fill="#FCFCFD"/>
</g>
<defs>
<filter id="filter0_d_7495_1352" x="0" y="0" width="84" height="36" filterUnits="userSpaceOnUse" color-interpolation-filters="sRGB">
<feFlood flood-opacity="0" result="BackgroundImageFix"/>
<feColorMatrix in="SourceAlpha" type="matrix" values="0 0 0 0 0 0 0 0 0 0 0 0 0 0 0 0 0 0 127 0" result="hardAlpha"/>
<feOffset dy="1"/>
<feGaussianBlur stdDeviation="1"/>
<feComposite in2="hardAlpha" operator="out"/>
<feColorMatrix type="matrix" values="0 0 0 0 0.253776 0 0 0 0 0.253776 0 0 0 0 0.253776 0 0 0 0.05 0"/>
<feBlend mode="normal" in2="BackgroundImageFix" result="effect1_dropShadow_7495_1352"/>
<feBlend mode="normal" in="SourceGraphic" in2="effect1_dropShadow_7495_1352" result="shape"/>
</filter>
</defs>
</svg>
