<svg width="24" height="32" viewBox="0 0 24 32" fill="none" xmlns="http://www.w3.org/2000/svg">
<g filter="url(#filter0_d_7495_932)">
<rect x="2" y="6" width="20" height="20" rx="10" fill="#85E13A"/>
<path fill-rule="evenodd" clip-rule="evenodd" d="M15.2881 21.7257L12.6116 19.8185C12.5096 19.7458 12.5103 19.5124 12.6128 19.4413L13.3509 18.929C13.3818 18.9076 13.4168 18.9066 13.4481 18.9263L15.2913 20.0854C15.3231 20.1055 15.3586 20.1042 15.3898 20.0818L17.5672 18.5244C17.578 18.5167 17.5879 18.5067 17.5967 18.495L15.3901 17.1115C15.3587 17.0917 15.3236 17.0928 15.2926 17.1145L8.71093 21.7265C8.67748 21.75 8.6394 21.7493 8.60628 21.7247L5.40731 19.3485C5.36201 19.3149 5.33301 19.2419 5.33301 19.1617V12.8383C5.33301 12.7581 5.36201 12.6851 5.40731 12.6515L8.60403 10.277C8.63845 10.2514 8.67815 10.2517 8.7124 10.2779L11.3143 12.2626C11.4135 12.3382 11.4113 12.5664 11.3108 12.6371L10.5954 13.1409C10.5631 13.1636 10.5265 13.1639 10.494 13.1417L8.70955 11.9184C8.67689 11.896 8.63993 11.8965 8.60749 11.9197L6.4532 13.4606L8.60785 14.9111C8.6401 14.9328 8.67647 14.9323 8.70849 14.9098L15.2883 10.2737C15.3218 10.2501 15.36 10.2507 15.3932 10.2754L18.592 12.6515C18.6373 12.6851 18.6663 12.7581 18.6663 12.8384V19.1617C18.6663 19.242 18.6373 19.3149 18.592 19.3486L15.3935 21.7244C15.3601 21.7492 15.3217 21.7497 15.2881 21.7257ZM6.35619 14.8649L8.60801 16.4282C8.64016 16.4505 8.67658 16.4506 8.70878 16.4286L15.2898 11.9184C15.3225 11.896 15.3594 11.8965 15.3919 11.9197L17.5672 13.4757C17.6134 13.5087 17.6432 13.5824 17.6432 13.6638V17.0542L15.39 15.5944C15.3586 15.574 15.3235 15.5745 15.2924 15.5958L8.70945 20.0819C8.67685 20.1041 8.63999 20.1036 8.60764 20.0804L6.43214 18.5243C6.38596 18.4913 6.35619 18.4176 6.35619 18.3362V14.8649Z" fill="#2B5314"/>
</g>
<defs>
<filter id="filter0_d_7495_932" x="0" y="-1" width="24" height="36" filterUnits="userSpaceOnUse" color-interpolation-filters="sRGB">
<feFlood flood-opacity="0" result="BackgroundImageFix"/>
<feColorMatrix in="SourceAlpha" type="matrix" values="0 0 0 0 0 0 0 0 0 0 0 0 0 0 0 0 0 0 127 0" result="hardAlpha"/>
<feOffset dy="1"/>
<feGaussianBlur stdDeviation="1"/>
<feComposite in2="hardAlpha" operator="out"/>
<feColorMatrix type="matrix" values="0 0 0 0 0.253776 0 0 0 0 0.253776 0 0 0 0 0.253776 0 0 0 0.05 0"/>
<feBlend mode="normal" in2="BackgroundImageFix" result="effect1_dropShadow_7495_932"/>
<feBlend mode="normal" in="SourceGraphic" in2="effect1_dropShadow_7495_932" result="shape"/>
</filter>
</defs>
</svg>
