<svg width="24" height="32" viewBox="0 0 24 32" fill="none" xmlns="http://www.w3.org/2000/svg">
<g filter="url(#filter0_d_7495_947)">
<path d="M20.6371 7.66663L13.3262 13.0965L14.6781 9.89296L20.6371 7.66663Z" fill="#E2761B"/>
<path d="M3.75978 7.66663L11.0119 13.148L9.72607 9.89296L3.75978 7.66663ZM18.0069 20.2531L16.0597 23.2363L20.2259 24.3825L21.4235 20.3193L18.0069 20.2531ZM2.98828 20.3193L4.1786 24.3825L8.34472 23.2363L6.39759 20.2531L2.98828 20.3193Z" fill="#E4761B"/>
<path d="M8.10917 15.2126L6.94824 16.9687L11.085 17.1524L10.938 12.7071L8.10917 15.2126ZM16.2871 15.2126L13.4215 12.6556L13.326 17.1524L17.4554 16.9687L16.2871 15.2126ZM8.3443 23.2363L10.8278 22.0239L8.68229 20.3486L8.3443 23.2363ZM13.5685 22.0239L16.0593 23.2363L15.714 20.3486L13.5685 22.0239Z" fill="#E4761B"/>
<path d="M16.0598 23.2362L13.5689 22.0238L13.7673 23.6476L13.7452 24.331L16.0598 23.2362ZM8.34473 23.2362L10.6592 24.331L10.6445 23.6476L10.8282 22.0238L8.34473 23.2362Z" fill="#D7C1B3"/>
<path d="M8.34459 23.2363L8.69727 20.2531L6.39746 20.3193L8.34459 23.2363ZM15.7069 20.2531L16.0596 23.2363L18.0067 20.3193L15.7069 20.2531ZM17.4557 16.9688L13.3263 17.1524L13.7084 19.2759L14.3182 17.9974L15.7878 18.6661L17.4557 16.9688ZM8.6238 18.6661L10.0933 17.9974L10.6958 19.2759L11.0853 17.1524L6.94853 16.9688L8.6238 18.6661Z" fill="#CD6116"/>
<path d="M10.6961 19.2758L8.62402 18.6659L10.0862 17.9973L10.6961 19.2758ZM13.7012 19.2758L14.3111 17.9973L15.7806 18.6659L13.7012 19.2758Z" fill="#233447"/>
<path d="M6.94824 16.9688L8.68229 20.3487L8.62351 18.6661L6.94824 16.9688ZM15.7875 18.6661L15.714 20.3487L17.4554 16.9688L15.7875 18.6661ZM11.085 17.1524L10.6955 19.2759L11.1805 21.7815L11.2907 18.4824L11.085 17.1524ZM13.326 17.1524L13.1276 18.475L13.2158 21.7815L13.7081 19.2759L13.326 17.1524Z" fill="#E4751F"/>
<path d="M13.7086 19.276L13.2163 21.7815L13.569 22.024L15.7145 20.3487L15.788 18.6661L13.7086 19.276ZM8.62402 18.6661L8.6828 20.3487L10.8283 22.024L11.181 21.7815L10.6961 19.276L8.62402 18.6661Z" fill="#F6851B"/>
<path d="M13.7452 24.3311L13.7673 23.6478L13.5836 23.4861H10.8135L10.6445 23.6478L10.6592 24.3311L8.34473 23.2363L9.15297 23.8976L10.7915 25.0365H13.6056L15.2515 23.8976L16.0598 23.2363L13.7452 24.3311Z" fill="#C0AD9E"/>
<path d="M13.5689 22.024L13.2162 21.7815H11.1809L10.8282 22.024L10.6445 23.6478L10.8135 23.4861H13.5836L13.7673 23.6478L13.5689 22.024Z" fill="#161616"/>
<path d="M20.9459 13.4492L21.5705 10.4514L20.6373 7.66663L13.5689 12.9128L16.2875 15.2127L20.1303 16.3368L20.9827 15.3449L20.6153 15.0804L21.2031 14.544L20.7475 14.1913L21.3354 13.7431L20.9459 13.4492ZM2.83398 10.4514L3.45853 13.4492L3.06176 13.7431L3.64957 14.1913L3.20137 14.544L3.78918 15.0804L3.4218 15.3449L4.26678 16.3368L8.10959 15.2127L10.8282 12.9128L3.75979 7.66663L2.83398 10.4514Z" fill="#763D16"/>
<path d="M20.1303 16.3368L16.2875 15.2126L17.4558 16.9687L15.7144 20.3486L18.0069 20.3193H21.4235L20.1303 16.3368ZM8.10959 15.2126L4.26677 16.3368L2.98828 20.3193H6.39759L8.68271 20.3486L6.94866 16.9687L8.10959 15.2126ZM13.3264 17.1524L13.5689 12.9128L14.6857 9.89294H9.72607L10.8282 12.9128L11.0854 17.1524L11.1736 18.4897L11.1809 21.7814H13.2162L13.2309 18.4897L13.3264 17.1524Z" fill="#F6851B"/>
</g>
<defs>
<filter id="filter0_d_7495_947" x="0" y="-1" width="24" height="36" filterUnits="userSpaceOnUse" color-interpolation-filters="sRGB">
<feFlood flood-opacity="0" result="BackgroundImageFix"/>
<feColorMatrix in="SourceAlpha" type="matrix" values="0 0 0 0 0 0 0 0 0 0 0 0 0 0 0 0 0 0 127 0" result="hardAlpha"/>
<feOffset dy="1"/>
<feGaussianBlur stdDeviation="1"/>
<feComposite in2="hardAlpha" operator="out"/>
<feColorMatrix type="matrix" values="0 0 0 0 0.253776 0 0 0 0 0.253776 0 0 0 0 0.253776 0 0 0 0.05 0"/>
<feBlend mode="normal" in2="BackgroundImageFix" result="effect1_dropShadow_7495_947"/>
<feBlend mode="normal" in="SourceGraphic" in2="effect1_dropShadow_7495_947" result="shape"/>
</filter>
</defs>
</svg>
