<svg width="32" height="32" viewBox="0 0 32 32" fill="none" xmlns="http://www.w3.org/2000/svg">
<g filter="url(#filter0_d_7372_14188)">
<path d="M12.667 8.50008C12.667 8.03984 13.0401 7.66675 13.5003 7.66675H18.5003C18.9606 7.66675 19.3337 8.03984 19.3337 8.50008C19.3337 8.96032 18.9606 9.33341 18.5003 9.33341H13.5003C13.0401 9.33341 12.667 8.96032 12.667 8.50008Z" fill="#EEF2F6"/>
<path fill-rule="evenodd" clip-rule="evenodd" d="M7.66699 11.0001C7.66699 10.5398 8.04009 10.1667 8.50033 10.1667H23.5003C23.9606 10.1667 24.3337 10.5398 24.3337 11.0001C24.3337 11.4603 23.9606 11.8334 23.5003 11.8334H22.6133L22.0786 19.8547C22.0366 20.4842 22.0019 21.0051 21.9396 21.4292C21.8748 21.8707 21.772 22.2741 21.5578 22.6501C21.2243 23.2354 20.7214 23.706 20.1152 23.9998C19.7257 24.1885 19.3164 24.2642 18.8715 24.2995C18.4443 24.3335 17.9222 24.3335 17.2912 24.3334H14.7095C14.0785 24.3335 13.5564 24.3335 13.1292 24.2995C12.6843 24.2642 12.275 24.1885 11.8855 23.9998C11.2793 23.706 10.7764 23.2354 10.4429 22.6501C10.2287 22.2741 10.1259 21.8707 10.0611 21.4292C9.99882 21.0051 9.96409 20.4842 9.92214 19.8546L9.38739 11.8334H8.50033C8.04009 11.8334 7.66699 11.4603 7.66699 11.0001ZM14.3337 13.9167C14.7939 13.9167 15.167 14.2898 15.167 14.7501V18.9167C15.167 19.377 14.7939 19.7501 14.3337 19.7501C13.8734 19.7501 13.5003 19.377 13.5003 18.9167V14.7501C13.5003 14.2898 13.8734 13.9167 14.3337 13.9167ZM18.5003 14.7501C18.5003 14.2898 18.1272 13.9167 17.667 13.9167C17.2068 13.9167 16.8337 14.2898 16.8337 14.7501V18.9167C16.8337 19.377 17.2068 19.7501 17.667 19.7501C18.1272 19.7501 18.5003 19.377 18.5003 18.9167V14.7501Z" fill="#EEF2F6"/>
</g>
<defs>
<filter id="filter0_d_7372_14188" x="-2" y="-1" width="36" height="36" filterUnits="userSpaceOnUse" color-interpolation-filters="sRGB">
<feFlood flood-opacity="0" result="BackgroundImageFix"/>
<feColorMatrix in="SourceAlpha" type="matrix" values="0 0 0 0 0 0 0 0 0 0 0 0 0 0 0 0 0 0 127 0" result="hardAlpha"/>
<feOffset dy="1"/>
<feGaussianBlur stdDeviation="1"/>
<feComposite in2="hardAlpha" operator="out"/>
<feColorMatrix type="matrix" values="0 0 0 0 0.253776 0 0 0 0 0.253776 0 0 0 0 0.253776 0 0 0 0.05 0"/>
<feBlend mode="normal" in2="BackgroundImageFix" result="effect1_dropShadow_7372_14188"/>
<feBlend mode="normal" in="SourceGraphic" in2="effect1_dropShadow_7372_14188" result="shape"/>
</filter>
</defs>
</svg>
