<svg width="24" height="24" viewBox="0 0 24 24" fill="none" xmlns="http://www.w3.org/2000/svg">
<g clip-path="url(#clip0_6346_28512)">
<path d="M17.2165 1.19072C15.6389 0.427875 13.869 0 11.9991 0C10.1293 0 8.35939 0.427875 6.78177 1.19072L5.73828 12L6.78177 22.8093C8.35939 23.5721 10.1293 24 11.9991 24C13.869 24 15.6389 23.5721 17.2165 22.8093L18.26 12L17.2165 1.19072Z" fill="#D80027"/>
<path d="M6.78262 1.19128C2.76872 3.13224 0 7.24266 0 12.0001C0 16.7576 2.76872 20.868 6.78262 22.809V1.19128Z" fill="black"/>
<path d="M17.2168 1.19128V22.809C21.2307 20.868 23.9994 16.7576 23.9994 12.0001C23.9994 7.24266 21.2307 3.13224 17.2168 1.19128Z" fill="#496E2D"/>
<path d="M12.0001 7.82678C9.69484 7.82678 7.82617 9.6955 7.82617 12.0007C7.82617 14.3058 9.69489 16.1746 12.0001 16.1746C14.3052 16.1746 16.174 14.3058 16.174 12.0007C16.174 9.6955 14.3053 7.82678 12.0001 7.82678ZM12.0001 14.6094C10.5593 14.6094 9.39138 13.4414 9.39138 12.0007C9.39138 10.56 10.5594 9.39199 12.0001 9.39199C13.4408 9.39199 14.6088 10.56 14.6088 12.0007C14.6088 13.4414 13.4408 14.6094 12.0001 14.6094Z" fill="#FFDA44"/>
<path d="M12.0005 10.4363C11.4242 10.4363 10.957 10.9034 10.957 11.4798V13.045H13.044V11.4798C13.044 10.9034 12.5768 10.4363 12.0005 10.4363Z" fill="#FFDA44"/>
</g>
<defs>
<clipPath id="clip0_6346_28512">
<rect width="24" height="24" fill="white"/>
</clipPath>
</defs>
</svg>
