<svg width="24" height="24" viewBox="0 0 24 24" fill="none" xmlns="http://www.w3.org/2000/svg">
<g clip-path="url(#clip0_6346_28486)">
<path d="M12 24C18.6274 24 24 18.6274 24 12C24 5.37258 18.6274 0 12 0C5.37258 0 0 5.37258 0 12C0 18.6274 5.37258 24 12 24Z" fill="#F0F0F0"/>
<path d="M17.8217 1.50525C16.0974 0.54675 14.1127 0 12 0C5.37309 0 0.00084375 5.37178 0 11.9986L8.34783 7.82611L17.8217 1.50525Z" fill="#0052B4"/>
<path d="M0 12.002C0.00084375 18.6288 5.37309 24.0005 12 24.0005C14.1127 24.0005 16.0974 23.4539 17.8217 22.4953L8.34783 16.1744L0 12.002Z" fill="#0052B4"/>
<path d="M18.8217 2.12697C18.4994 1.90389 18.1654 1.69642 17.8213 1.50513L0 11.9983C0 11.9988 0 11.9992 0 11.9997C0 12.0002 0 12.0007 0 12.0011L17.8213 22.4942C18.1655 22.3029 18.4994 22.0954 18.8218 21.8724L2.05416 11.9997L18.8217 2.12697Z" fill="#D80027"/>
<path d="M20.8692 11.5527H19.4398C19.8115 11.1064 19.7885 10.4425 19.3698 10.0239C19.8133 9.58041 19.8133 8.8613 19.3698 8.41772L19.3431 8.44454C19.7866 8.00105 19.8133 7.25513 19.3698 6.81165L12.9453 13.2361C13.3888 13.6797 14.0953 13.6744 14.5388 13.2309L14.6625 13.1179L17.7388 12.8382V14.1613H18.7823V12.7433L20.3475 12.6011L20.8692 11.5527Z" fill="#A2001D"/>
<path d="M13.0439 14.6089L12 14.0872L13.0439 13.5654H19.8264V14.6089H13.0439Z" fill="#FFDA44"/>
</g>
<defs>
<clipPath id="clip0_6346_28486">
<rect width="24" height="24" fill="white"/>
</clipPath>
</defs>
</svg>
