<svg width="24" height="24" viewBox="0 0 24 24" fill="none" xmlns="http://www.w3.org/2000/svg">
<g clip-path="url(#clip0_6346_28514)">
<path d="M24 12C24 18.6274 18.6274 24 12 24C5.37262 24 0 18.6274 0 12C0 12.0028 12 0.00135937 12 0C18.6274 0 24 5.37262 24 12Z" fill="#0052B4"/>
<path d="M11.9688 12.0004H12.0009C12.0009 11.9895 12.0009 11.9791 12.0009 11.9683C11.9902 11.979 11.9795 11.9897 11.9688 12.0004Z" fill="#F0F0F0"/>
<path d="M12 6.26171C12 4.15023 12 2.76662 12 0.000854492H11.998C5.3715 0.00193262 0 5.37404 0 12.0008H6.26086V8.47524L9.78642 12.0008H11.9679C11.9787 11.9901 11.9894 11.9794 12 11.9687C12 11.1602 12 10.4389 12 9.78732L8.47443 6.26171H12Z" fill="#F0F0F0"/>
<path d="M6.07027 1.56567C4.19344 2.63438 2.63316 4.19466 1.56445 6.07149V12.0005H4.69491V4.69617V4.69613H11.9993C11.9993 3.7088 11.9993 2.76821 11.9993 1.56567H6.07027Z" fill="#D80027"/>
<path d="M11.9989 10.5249L7.73544 6.2615H6.25977C6.25977 6.26145 6.25977 6.2615 6.25977 6.2615L11.9988 12.0005H11.9989C11.9989 12.0005 11.9989 10.9831 11.9989 10.5249Z" fill="#D80027"/>
<path d="M7.23827 14.0865L7.89686 15.4636L9.38406 15.1198L8.71806 16.4934L9.91403 17.4418L8.42495 17.7774L8.42913 19.3039L7.23827 18.3489L6.04745 19.3039L6.05163 17.7774L4.5625 17.4418L5.75852 16.4934L5.09242 15.1198L6.57972 15.4636L7.23827 14.0865Z" fill="#F0F0F0"/>
<path d="M17.9687 16.6954L18.298 17.3839L19.0416 17.212L18.7086 17.8988L19.3066 18.373L18.5621 18.5408L18.5641 19.3041L17.9687 18.8265L17.3733 19.3041L17.3754 18.5408L16.6309 18.373L17.2288 17.8988L16.8958 17.212L17.6394 17.3839L17.9687 16.6954Z" fill="#F0F0F0"/>
<path d="M14.9043 9.39142L15.2336 10.08L15.9772 9.90807L15.6442 10.5948L16.2422 11.0691L15.4977 11.2369L15.4997 12.0001L14.9043 11.5226L14.3089 12.0001L14.3109 11.2369L13.5664 11.0691L14.1644 10.5948L13.8314 9.90807L14.575 10.08L14.9043 9.39142Z" fill="#F0F0F0"/>
<path d="M17.9687 5.21765L18.298 5.90625L19.0416 5.73436L18.7086 6.42112L19.3066 6.89531L18.5621 7.06317L18.5641 7.82639L17.9687 7.34887L17.3733 7.82639L17.3754 7.06317L16.6309 6.89531L17.2288 6.42112L16.8958 5.73436L17.6394 5.90625L17.9687 5.21765Z" fill="#F0F0F0"/>
<path d="M20.6426 8.34778L20.9718 9.03637L21.7155 8.86443L21.3825 9.5512L21.9804 10.0254L21.2359 10.1933L21.2379 10.9565L20.6426 10.479L20.0472 10.9565L20.0492 10.1933L19.3047 10.0254L19.9027 9.5512L19.5697 8.86443L20.3132 9.03637L20.6426 8.34778Z" fill="#F0F0F0"/>
<path d="M18.73 12.0004L18.989 12.7975H19.8272L19.1491 13.2902L19.4082 14.0873L18.73 13.5947L18.0519 14.0873L18.3109 13.2902L17.6328 12.7975H18.471L18.73 12.0004Z" fill="#F0F0F0"/>
</g>
<defs>
<clipPath id="clip0_6346_28514">
<rect width="24" height="24" fill="white"/>
</clipPath>
</defs>
</svg>
