<svg width="24" height="24" viewBox="0 0 24 24" fill="none" xmlns="http://www.w3.org/2000/svg">
<g clip-path="url(#clip0_6346_28515)">
<path d="M23.5866 15.1298C23.8556 14.1317 24 13.0825 24 11.9994C24 10.9162 23.8556 9.86709 23.5866 8.86893L10.9565 0.0450439C8.61178 0.247075 6.46008 1.12317 4.69566 2.47884L0.413391 8.86893C0.144375 9.86709 0 10.9162 0 11.9994C0 13.0762 0.142641 14.1196 0.408656 15.1125L4.69561 21.5199C6.46003 22.8756 8.61173 23.7517 10.9565 23.9537L23.5866 15.1298Z" fill="#FFDA44"/>
<path d="M0.412109 15.1305C1.10642 17.7067 2.63666 19.9395 4.69438 21.5206V15.1305H0.412109Z" fill="#0052B4"/>
<path d="M10.9551 23.9544C11.299 23.984 11.6469 24.0001 11.9986 24.0001C17.5429 24.0001 22.2082 20.2397 23.5852 15.1305H10.9551V23.9544Z" fill="#0052B4"/>
<path d="M23.5852 8.86955C22.2082 3.76036 17.5429 0 11.9986 0C11.6469 0 11.299 0.0160312 10.9551 0.0456562V8.86955H23.5852Z" fill="#0052B4"/>
<path d="M4.69438 2.47974C2.63666 4.06083 1.10642 6.29363 0.412109 8.86983H4.69438V2.47974Z" fill="#0052B4"/>
<path d="M23.8984 10.4342H9.39136H9.39131V0.284668C8.28234 0.530574 7.23098 0.929152 6.26086 1.45851V10.4342H0.101578C0.0347813 10.9466 0 11.4689 0 11.9994C0 12.5299 0.0347813 13.0523 0.101578 13.5646H6.26081H6.26086V22.5403C7.23098 23.0696 8.28234 23.4683 9.39131 23.7142V13.5648V13.5647H23.8984C23.9651 13.0523 24 12.5299 24 11.9994C24 11.4689 23.9651 10.9466 23.8984 10.4342Z" fill="#D80027"/>
</g>
<defs>
<clipPath id="clip0_6346_28515">
<rect width="24" height="24" fill="white"/>
</clipPath>
</defs>
</svg>
