<svg width="24" height="24" viewBox="0 0 24 24" fill="none" xmlns="http://www.w3.org/2000/svg">
<g clip-path="url(#clip0_6346_28474)">
<path d="M24 12C24 10.5322 23.736 9.12608 23.2536 7.82615L12 7.30438L0.746391 7.8261C0.264047 9.12608 0 10.5322 0 12C0 13.4679 0.264047 14.874 0.746391 16.1739L12 16.6957L23.2536 16.174C23.736 14.874 24 13.4679 24 12Z" fill="#D80027"/>
<path d="M11.9997 23.9995C17.1593 23.9995 21.5578 20.743 23.2533 16.1734H0.746094C2.44161 20.743 6.84013 23.9995 11.9997 23.9995Z" fill="#6DA544"/>
<path d="M0.746094 7.82519H23.2534C21.5578 3.25558 17.1593 -0.000915527 11.9997 -0.000915527C6.84013 -0.000915527 2.44161 3.25558 0.746094 7.82519Z" fill="#338AF3"/>
<path d="M12.2614 15.3911C10.3885 15.3911 8.87012 13.8727 8.87012 11.9997C8.87012 10.1268 10.3885 8.60843 12.2614 8.60843C12.8454 8.60843 13.3949 8.75609 13.8746 9.01606C13.122 8.28007 12.0928 7.82581 10.9571 7.82581C8.65187 7.82581 6.7832 9.69452 6.7832 11.9997C6.7832 14.3049 8.65192 16.1736 10.9571 16.1736C12.0929 16.1736 13.1221 15.7193 13.8746 14.9833C13.3949 15.2434 12.8454 15.3911 12.2614 15.3911Z" fill="#F0F0F0"/>
<path d="M14.8713 9.65082L15.3205 10.9141L16.5314 10.3384L15.9558 11.5494L17.2191 11.9986L15.9558 12.4479L16.5314 13.6589L15.3205 13.0831L14.8713 14.3465L14.4221 13.0831L13.2111 13.6589L13.7868 12.4479L12.5234 11.9986L13.7868 11.5494L13.2111 10.3384L14.4221 10.9141L14.8713 9.65082Z" fill="#F0F0F0"/>
</g>
<defs>
<clipPath id="clip0_6346_28474">
<rect width="24" height="24" fill="white"/>
</clipPath>
</defs>
</svg>
