<svg width="24" height="24" viewBox="0 0 24 24" fill="none" xmlns="http://www.w3.org/2000/svg">
<g clip-path="url(#clip0_6346_28399)">
<path d="M17.2165 1.1909C15.6389 0.428058 13.869 0.000183105 11.9991 0.000183105C10.1293 0.000183105 8.35939 0.428058 6.78177 1.1909L5.73828 12.0002L6.78177 22.8095C8.35939 23.5723 10.1293 24.0002 11.9991 24.0002C13.869 24.0002 15.6389 23.5723 17.2165 22.8095L18.26 12.0002L17.2165 1.1909Z" fill="#FFDA44"/>
<path d="M6.78262 1.19128C2.76872 3.13219 0 7.24261 0 12.0001C0 16.7577 2.76872 20.8681 6.78262 22.809V1.19128Z" fill="#0052B4"/>
<path d="M17.2168 1.19171V22.8094C21.2307 20.8685 23.9994 16.7581 23.9994 12.0006C23.9994 7.24309 21.2307 3.13262 17.2168 1.19171Z" fill="#0052B4"/>
<path d="M15.6528 7.30337L16.3528 7.65334L15.6528 7.30337L14.9527 6.9534C14.9105 7.03783 13.9965 8.8975 13.8472 11.7382H12.7832V7.30337L12.0006 6.25989L11.218 7.30337V11.7382H10.154C10.0046 8.8975 9.09064 7.03783 9.04841 6.9534L7.64844 7.65339C7.65809 7.67261 8.60933 9.60878 8.60933 12.5208V13.3034H11.218V17.7382H12.7832V13.3034H15.3919V12.5207C15.3919 11.0152 15.6524 9.77378 15.871 8.99744C16.1092 8.15087 16.3512 7.65648 16.3536 7.65156L15.6528 7.30337Z" fill="black"/>
</g>
<defs>
<clipPath id="clip0_6346_28399">
<rect width="24" height="24" fill="white"/>
</clipPath>
</defs>
</svg>
