<svg width="24" height="24" viewBox="0 0 24 24" fill="none" xmlns="http://www.w3.org/2000/svg">
<g clip-path="url(#clip0_6346_28485)">
<path d="M16.1745 0.746574C14.8745 0.26423 13.4684 0.000183105 12.0006 0.000183105C10.5327 0.000183105 9.12667 0.26423 7.82669 0.746574L6.7832 12.0002L7.82669 23.2538C9.12667 23.7362 10.5327 24.0002 12.0006 24.0002C13.4684 24.0002 14.8745 23.7362 16.1745 23.2538L17.218 12.0002L16.1745 0.746574Z" fill="#FFDA44"/>
<path d="M23.9999 11.9993C23.9999 6.83976 20.7434 2.4412 16.1738 0.745728V23.253C20.7434 21.5574 23.9999 17.1589 23.9999 11.9993Z" fill="#D80027"/>
<path d="M0 12C0 17.1596 3.2565 21.5581 7.82611 23.2536V0.746399C3.2565 2.44187 0 6.84043 0 12Z" fill="black"/>
</g>
<defs>
<clipPath id="clip0_6346_28485">
<rect width="24" height="24" fill="white"/>
</clipPath>
</defs>
</svg>
