<svg width="24" height="24" viewBox="0 0 24 24" fill="none" xmlns="http://www.w3.org/2000/svg">
<g clip-path="url(#clip0_6346_28507)">
<path d="M12 24C18.6274 24 24 18.6274 24 12C24 5.37258 18.6274 0 12 0C5.37258 0 0 5.37258 0 12C0 18.6274 5.37258 24 12 24Z" fill="#F0F0F0"/>
<path d="M11.9997 -0.000915527C9.59141 -0.000915527 7.34928 0.709006 5.46997 1.93024L8.55617 3.99879L4.69531 5.99876L8.55617 7.99872L4.69531 9.99869L8.55617 11.9984L4.69531 13.9984L8.55617 15.9983L4.69531 17.9984L8.55617 19.9984L5.46959 22.0676C7.349 23.2891 9.59127 23.9991 11.9997 23.9991C18.627 23.9991 23.9997 18.6265 23.9997 11.9991C23.9997 5.37171 18.627 -0.000915527 11.9997 -0.000915527Z" fill="#D80027"/>
</g>
<defs>
<clipPath id="clip0_6346_28507">
<rect width="24" height="24" fill="white"/>
</clipPath>
</defs>
</svg>
