<svg width="24" height="24" viewBox="0 0 24 24" fill="none" xmlns="http://www.w3.org/2000/svg">
<g clip-path="url(#clip0_6346_28473)">
<path d="M24 12C24 18.6274 18.6274 24 12 24C5.37262 24 0 18.6274 0 12C0 12.0029 12 0.0013125 12 0C18.6274 0 24 5.37262 24 12Z" fill="#D80027"/>
<path d="M11.9981 5.73886V9.78619L7.82422 5.73886H11.9981Z" fill="#0052B4"/>
<path d="M6.26 11.9996H9.78552L6.26 7.30392L5.73828 10.9561L6.26 11.9996Z" fill="#0052B4"/>
<path d="M11.9688 12.0012H12.0009C12.0009 11.9904 12.0009 11.9799 12.0009 11.969C11.9902 11.9798 11.9795 11.9905 11.9688 12.0012Z" fill="#F0F0F0"/>
<path d="M12 6.26141C12 4.14992 12 2.76641 12 0.000549316H11.998C5.37145 0.00167432 0 5.37378 0 12.0005H6.26086V8.47503L9.78638 12.0005H11.9679C11.9786 11.9899 11.9893 11.9792 12 11.9684C12 11.16 12 10.4386 12 9.78702L8.47444 6.26141H12Z" fill="#F0F0F0"/>
<path d="M6.07027 1.56525C4.19344 2.63395 2.63311 4.19423 1.56445 6.07106V12.5218H4.69491V4.6958V4.6957H12.521C12.521 3.70837 12.521 2.76778 12.521 1.56525H6.07027Z" fill="#D80027"/>
<path d="M12.476 11.0002L7.73539 6.25977H6.25977V6.25986L12.4758 12.4759H12.4759C12.476 12.476 12.476 11.4584 12.476 11.0002Z" fill="#D80027"/>
<path d="M13.5645 6.25989V11.999C13.5645 14.7946 20.8688 14.7946 20.8688 11.999V6.25989H13.5645Z" fill="#F3F3F3"/>
<path d="M13.5645 12.0006V12.0005C13.5645 14.7961 17.2166 15.6527 17.2166 15.6527C17.2166 15.6527 20.8688 14.7961 20.8688 12.0005V12.0006H13.5645Z" fill="#6DA544"/>
<path d="M17.2171 9.7045L15.5215 10.4349V12.0001L17.2171 13.0436L18.9128 12.0001V10.4349L17.2171 9.7045Z" fill="#A2001D"/>
<path d="M18.9128 8.86859H15.5215V10.4338H18.9128V8.86859Z" fill="#338AF3"/>
</g>
<defs>
<clipPath id="clip0_6346_28473">
<rect width="24" height="24" fill="white"/>
</clipPath>
</defs>
</svg>
