<svg width="24" height="24" viewBox="0 0 24 24" fill="none" xmlns="http://www.w3.org/2000/svg">
<g clip-path="url(#clip0_6346_28315)">
<path d="M12 24C18.6274 24 24 18.6274 24 12C24 5.37258 18.6274 0 12 0C5.37258 0 0 5.37258 0 12C0 18.6274 5.37258 24 12 24Z" fill="#F0F0F0"/>
<path d="M12 0.00095049C11.9888 -0.00748701 -0.00318686 11.9978 6.35322e-07 12.0009C6.35322e-07 5.37358 5.37262 0.00095049 12 0.00095049Z" fill="#D80027"/>
<path d="M12 -2.60721e-05C12.0112 -0.00846357 24.0032 11.9968 24 12C24 5.3726 18.6274 -2.60721e-05 12 -2.60721e-05Z" fill="#D80027"/>
<path d="M12 23.9994C11.9888 24.0078 -0.00318686 12.0026 6.35322e-07 11.9994C6.35322e-07 18.6268 5.37262 23.9994 12 23.9994Z" fill="#0052B4"/>
<path d="M12 23.999C12.0112 24.0074 24.0032 12.0021 24 11.999C24 18.6263 18.6274 23.999 12 23.999Z" fill="#0052B4"/>
<path d="M11.9995 6.26068L13.2946 10.2464H17.4855L14.0949 12.7097L15.39 16.6955L11.9995 14.2322L8.60908 16.6955L9.90414 12.7097L6.51367 10.2464H10.7045L11.9995 6.26068Z" fill="#FFDA44"/>
</g>
<defs>
<clipPath id="clip0_6346_28315">
<rect width="24" height="24" fill="white"/>
</clipPath>
</defs>
</svg>
