<svg width="24" height="24" viewBox="0 0 24 24" fill="none" xmlns="http://www.w3.org/2000/svg">
<g clip-path="url(#clip0_6346_28304)">
<path d="M5.23633 21.9127C7.16223 23.2292 9.49084 23.9997 11.9998 23.9997C14.5087 23.9997 16.8374 23.2292 18.7632 21.9127L11.9998 20.8693L5.23633 21.9127Z" fill="#D80027"/>
<path d="M18.7632 2.08709C16.8374 0.770606 14.5087 0.00012207 11.9998 0.00012207C9.49084 0.00012207 7.16214 0.770606 5.23633 2.08709L11.9998 3.13057L18.7632 2.08709Z" fill="#D80027"/>
<path d="M5.23633 21.9127C7.16223 23.2292 9.49084 23.9997 11.9998 23.9997C14.5087 23.9997 16.8374 23.2292 18.7632 21.9127L11.9998 20.8693L5.23633 21.9127Z" fill="#D80027"/>
<path d="M18.7632 2.08709C16.8374 0.770606 14.5087 0.00012207 11.9998 0.00012207C9.49084 0.00012207 7.16214 0.770606 5.23633 2.08709L11.9998 3.13057L18.7632 2.08709Z" fill="#D80027"/>
<path d="M23.9716 11.2165C23.6873 7.51292 21.4369 3.91217 18.7656 2.08606H5.23867C2.27917 4.10923 0.271656 7.42274 0.0273438 11.2165L12.0021 11.9991L23.9716 11.2165Z" fill="#0052B4"/>
<path d="M0.0253906 12.7823C0.269703 16.5761 2.27717 19.8895 5.23667 21.9127H18.7636C21.7232 19.8896 23.7306 16.5761 23.9749 12.7823L12.0002 11.9996L0.0253906 12.7823Z" fill="#0052B4"/>
<path d="M23.9694 11.2173H12.7826V1.56519H11.2174V11.2173H0.0252656C0.008625 11.4761 0 11.737 0 12C0 12.2629 0.00857813 12.5238 0.0252187 12.7826H11.2174V22.4348H12.7826V12.7826H23.9748C23.9914 12.5238 24 12.2629 24 12C24 11.7389 23.9895 11.4779 23.9694 11.2173Z" fill="#D80027"/>
<path d="M4.69531 11.9992L11.9996 7.4082L19.304 11.9992L11.9996 16.5903L4.69531 11.9992Z" fill="#F0F0F0"/>
<path d="M7.82617 14.0872H17.2174L15.1305 10.9568L14.087 12.0003L13.0435 11.4786L12.0001 13.0438H9.91309L8.86961 12.0003L7.82617 14.0872Z" fill="#6DA544"/>
<path d="M11.9994 8.8689L12.2585 9.66601H13.0966L12.4185 10.1587L12.6775 10.9559L11.9994 10.4632L11.3214 10.9559L11.5804 10.1587L10.9023 9.66601H11.7404L11.9994 8.8689Z" fill="#FFDA44"/>
<path d="M12.0006 6.09656L2.60938 11.9993L12.0006 17.9021L21.392 11.9993L12.0006 6.09656ZM5.55069 11.9993L12.0006 7.94526L18.4507 11.9993L12.0006 16.0534L5.55069 11.9993Z" fill="#D80027"/>
</g>
<defs>
<clipPath id="clip0_6346_28304">
<rect width="24" height="24" fill="white"/>
</clipPath>
</defs>
</svg>
