<svg width="24" height="24" viewBox="0 0 24 24" fill="none" xmlns="http://www.w3.org/2000/svg">
<g clip-path="url(#clip0_6346_28489)">
<path d="M12 24C18.6274 24 24 18.6274 24 12C24 5.37258 18.6274 0 12 0C5.37258 0 0 5.37258 0 12C0 18.6274 5.37258 24 12 24Z" fill="#FFDA44"/>
<path d="M7.30681 7.82519H23.256C21.5606 3.25558 17.162 -0.000915527 12.0025 -0.000915527C8.68869 -0.000915527 5.68902 1.34247 3.51758 3.51419L7.30681 7.82519Z" fill="#338AF3"/>
<path d="M7.30486 16.1725H23.2541C21.5586 20.7421 17.16 23.9986 12.0005 23.9986C8.68673 23.9986 5.68706 22.6552 3.51562 20.4835L7.30486 16.1725Z" fill="#338AF3"/>
<path d="M3.51471 3.51428C-1.17157 8.20056 -1.17157 15.7986 3.51471 20.4849C5.45126 18.5484 7.31374 16.6859 12 11.9996L3.51471 3.51428Z" fill="black"/>
</g>
<defs>
<clipPath id="clip0_6346_28489">
<rect width="24" height="24" fill="white"/>
</clipPath>
</defs>
</svg>
