<svg width="24" height="24" viewBox="0 0 24 24" fill="none" xmlns="http://www.w3.org/2000/svg">
<g clip-path="url(#clip0_6346_28508)">
<path d="M3.51471 20.4854C-1.17157 15.7991 -1.17157 8.20118 3.51471 3.51485C8.20099 -1.17148 15.799 -1.17143 20.4853 3.51485C20.4853 3.51649 23.6713 14.2988 18.985 18.9851C14.2988 23.6715 3.51799 20.4887 3.51471 20.4854Z" fill="#FFDA44"/>
<path d="M3.51562 20.4846C8.20191 25.1709 15.7999 25.1709 20.4862 20.4846C25.1726 15.7983 25.1725 8.20033 20.4862 3.51401L3.51562 20.4846Z" fill="#FF9811"/>
<path d="M18.7877 6.78198V4.69501H14.7875L14.4819 5.00059C13.3949 6.08757 13.5778 7.35563 13.7113 8.28151C13.8351 9.1404 13.85 9.46941 13.5305 9.78887C13.2111 10.1082 12.882 10.0934 12.0232 9.96952C11.0974 9.83607 9.82934 9.65321 8.74236 10.7401C7.65542 11.8271 7.83837 13.0951 7.97197 14.0209C8.09586 14.8797 8.11077 15.2087 7.79145 15.528C7.47209 15.8472 7.14298 15.8324 6.28437 15.7085C5.94959 15.6601 5.60342 15.6103 5.23386 15.6061L5.21094 17.693C5.44222 17.6956 5.70655 17.7337 5.98639 17.7741C6.3177 17.8219 6.6927 17.876 7.08767 17.876C7.49698 17.876 7.92758 17.8177 8.35283 17.6341V19.3038H11.4833V17.7386H9.91808V16.6951H10.9616V15.1299H10.1276C10.1671 14.6236 10.0976 14.1387 10.0376 13.723C9.91367 12.8642 9.89877 12.5352 10.2181 12.216C10.5375 11.8966 10.8665 11.9114 11.7254 12.0352C12.4001 12.1325 13.2564 12.2554 14.092 11.8946V13.5646H17.2225V11.9994H15.6573V10.956H16.7008V9.39076H15.8668C15.9064 8.88437 15.8369 8.39954 15.7769 7.98371C15.6904 7.38366 15.657 7.04223 15.7538 6.78202H18.7877V6.78198Z" fill="#F0F0F0"/>
</g>
<defs>
<clipPath id="clip0_6346_28508">
<rect width="24" height="24" fill="white"/>
</clipPath>
</defs>
</svg>
