<svg width="24" height="24" viewBox="0 0 24 24" fill="none" xmlns="http://www.w3.org/2000/svg">
<g clip-path="url(#clip0_6346_28434)">
<path d="M12 24C18.6274 24 24 18.6274 24 12C24 5.37258 18.6274 0 12 0C5.37258 0 0 5.37258 0 12C0 18.6274 5.37258 24 12 24Z" fill="#FCFCFC"/>
<path d="M4.95669 11.1289L3.65234 8.76256L4.95669 6.43329L6.26103 8.76256L4.95669 11.1289Z" fill="#A2001D"/>
<path d="M2.34731 11.1289L1.04297 8.76256L2.34731 6.43329L3.65166 8.76256L2.34731 11.1289Z" fill="#A2001D"/>
<path d="M4.95669 17.5644L3.65234 15.198L4.95669 12.8688L6.26103 15.198L4.95669 17.5644Z" fill="#A2001D"/>
<path d="M2.34731 17.5644L1.04297 15.198L2.34731 12.8688L3.65166 15.198L2.34731 17.5644Z" fill="#A2001D"/>
<path d="M6.26041 2.32881L5.89113 1.66937C5.22878 2.06181 4.60755 2.51617 4.03516 3.02448L4.95606 4.69516L6.26041 2.32881Z" fill="#A2001D"/>
<path d="M4.95605 19.3043L4.02539 20.9663C4.59727 21.4752 5.21808 21.9303 5.88014 22.3235L6.26044 21.6336L4.95605 19.3043Z" fill="#A2001D"/>
<path d="M7.30469 15.1307V23.0461C8.74698 23.6601 10.3338 24.0002 12.0003 24.0002C17.1599 24.0002 21.5584 20.7437 23.254 16.1741L7.30469 15.1307Z" fill="#6DA544"/>
<path d="M23.254 16.1741C23.7364 14.8741 24.0004 13.468 24.0004 12.0002C24.0004 5.37281 18.6277 0.000183105 12.0003 0.000183105C10.334 0.000183105 8.74699 0.340167 7.30469 0.953996V16.1741H23.254V16.1741Z" fill="#A2001D"/>
</g>
<defs>
<clipPath id="clip0_6346_28434">
<rect width="24" height="24" fill="white"/>
</clipPath>
</defs>
</svg>
