<svg width="24" height="24" viewBox="0 0 24 24" fill="none" xmlns="http://www.w3.org/2000/svg">
<g clip-path="url(#clip0_6346_28493)">
<path d="M24 12C24 7.88156 21.9249 4.24814 18.7635 2.08701L12 1.56525L5.23655 2.08697C2.07516 4.24814 0 7.88161 0 12C0 16.1186 2.07516 19.752 5.23655 21.9131L12 22.4348L18.7635 21.9131C21.9249 19.752 24 16.1186 24 12Z" fill="#0052B4"/>
<path d="M18.7632 2.08715C16.8374 0.770621 14.5087 0.000183105 11.9998 0.000183105C9.49089 0.000183105 7.16219 0.770621 5.23633 2.08715H18.7632Z" fill="#A2001D"/>
<path d="M5.23633 21.9134C7.16214 23.2299 9.49089 24.0003 11.9998 24.0003C14.5087 24.0003 16.8374 23.2299 18.7632 21.9134H5.23633Z" fill="#A2001D"/>
<path d="M12.0009 17.7382C15.1705 17.7382 17.74 15.1687 17.74 11.999C17.74 8.82939 15.1705 6.25989 12.0009 6.25989C8.83122 6.25989 6.26172 8.82939 6.26172 11.999C6.26172 15.1687 8.83122 17.7382 12.0009 17.7382Z" fill="#F0F0F0"/>
<path d="M12.0003 16.6955C14.5937 16.6955 16.696 14.5931 16.696 11.9998C16.696 9.40646 14.5937 7.30414 12.0003 7.30414C9.40701 7.30414 7.30469 9.40646 7.30469 11.9998C7.30469 14.5931 9.40701 16.6955 12.0003 16.6955Z" fill="#6DA544"/>
<path d="M11.9996 15.1295C13.7285 15.1295 15.13 13.7279 15.13 11.999C15.13 10.2701 13.7285 8.86859 11.9996 8.86859C10.2707 8.86859 8.86914 10.2701 8.86914 11.999C8.86914 13.7279 10.2707 15.1295 11.9996 15.1295Z" fill="#F0F0F0"/>
<path d="M12.0003 11.2171L10.3047 11.9997V13.3041L12.0003 14.3476L13.696 13.3041V11.9997L12.0003 11.2171Z" fill="#0052B4"/>
<path d="M13.696 10.4359H10.3047V12.0011H13.696V10.4359Z" fill="#FFDA44"/>
</g>
<defs>
<clipPath id="clip0_6346_28493">
<rect width="24" height="24" fill="white"/>
</clipPath>
</defs>
</svg>
