<svg width="24" height="24" viewBox="0 0 24 24" fill="none" xmlns="http://www.w3.org/2000/svg">
<g clip-path="url(#clip0_6346_28427)">
<path d="M22.667 6.49836C22.1125 5.42403 21.3857 4.41566 20.4852 3.5151C19.5845 2.61449 18.5761 1.88769 17.5018 1.33325L9.04798 9.04916L1.33203 17.503C1.88652 18.5773 2.61331 19.5858 3.51387 20.4863C4.41444 21.3869 5.42286 22.1137 6.49714 22.6682L14.951 14.9522L22.667 6.49836Z" fill="#FFDA44"/>
<path d="M3.51553 20.4854C4.01892 20.9888 4.55606 21.4378 5.11945 21.8331L21.8343 5.11811C21.4391 4.55472 20.9902 4.01758 20.4868 3.51419C19.9833 3.0108 19.4462 2.56188 18.8828 2.16663L2.16797 18.8815C2.56317 19.4448 3.01209 19.982 3.51553 20.4854Z" fill="#D80027"/>
<path d="M3.51441 3.51443C-0.271541 7.30038 -0.998338 12.9862 1.33257 17.5024L17.5024 1.33263C12.9862 -0.998225 7.30032 -0.271335 3.51441 3.51443Z" fill="#338AF3"/>
<path d="M20.486 20.4851C24.2719 16.6992 24.9986 11.0134 22.6679 6.49719L6.49805 22.667C11.0142 24.9978 16.7001 24.2711 20.486 20.4851Z" fill="#338AF3"/>
<path d="M6.39547 3.65112L7.043 5.64411H9.1385L7.44322 6.87579L8.09075 8.86873L6.39547 7.637L4.70009 8.86873L5.34772 6.87579L3.65234 5.64411H5.74784L6.39547 3.65112Z" fill="#FFDA44"/>
</g>
<defs>
<clipPath id="clip0_6346_28427">
<rect width="24" height="24" fill="white"/>
</clipPath>
</defs>
</svg>
