<svg width="24" height="24" viewBox="0 0 24 24" fill="none" xmlns="http://www.w3.org/2000/svg">
<g clip-path="url(#clip0_6346_28453)">
<path d="M12 24C18.6274 24 24 18.6274 24 12C24 5.37258 18.6274 0 12 0C5.37258 0 0 5.37258 0 12C0 18.6274 5.37258 24 12 24Z" fill="#F0F0F0"/>
<path d="M22.5396 6.2603C20.989 3.41831 18.3226 1.27289 15.1291 0.41217L14.6074 6.2603H22.5396Z" fill="#0052B4"/>
<path d="M1.45898 6.26048H9.39117L8.86945 0.412354C5.676 1.27307 3.00966 3.41854 1.45898 6.26048Z" fill="#0052B4"/>
<path d="M14.6094 12.0016V17.7408H22.5416C23.4718 16.0359 24.0007 14.0806 24.0007 12.0016H14.6094Z" fill="#6DA544"/>
<path d="M9.39131 12.0007H0C0 14.0796 0.528891 16.035 1.45908 17.7399H9.39127V12.0007H9.39131Z" fill="#6DA544"/>
<path d="M1.45898 17.7396C3.00966 20.5816 5.676 22.727 8.86945 23.5878L9.39117 18.4733L1.45898 17.7396Z" fill="#FFDA44"/>
<path d="M15.1291 23.5884C18.3226 22.7276 20.989 20.5822 22.5396 17.7402L14.6074 18.4738L15.1291 23.5884Z" fill="#FFDA44"/>
<path d="M14.6074 18.4738L22.5397 17.7402H14.6074V18.4738Z" fill="#FFDA44"/>
<path d="M9.39122 17.7396H1.45898L9.39122 18.4732V17.7396Z" fill="#FFDA44"/>
<path d="M11.9996 0.000366211C10.9165 0.000366211 9.8673 0.144741 8.86914 0.413757V23.587C9.8673 23.856 10.9165 24.0004 11.9996 24.0004C13.0827 24.0004 14.1319 23.856 15.13 23.587V0.413757C14.1319 0.144741 13.0827 0.000366211 11.9996 0.000366211Z" fill="#D80027"/>
<path d="M6.45341 2.60913L6.77712 3.60555H7.82492L6.97733 4.2214L7.30109 5.21782L6.45341 4.60202L5.60577 5.21782L5.92962 4.2214L5.08203 3.60555H6.12973L6.45341 2.60913Z" fill="#FFDA44"/>
</g>
<defs>
<clipPath id="clip0_6346_28453">
<rect width="24" height="24" fill="white"/>
</clipPath>
</defs>
</svg>
