<svg width="24" height="24" viewBox="0 0 24 24" fill="none" xmlns="http://www.w3.org/2000/svg">
<g clip-path="url(#clip0_6346_28426)">
<path d="M12 24C18.6274 24 24 18.6274 24 12C24 5.37258 18.6274 0 12 0C5.37258 0 0 5.37258 0 12C0 18.6274 5.37258 24 12 24Z" fill="#D80027"/>
<path d="M6.56719 7.30145L7.60313 10.489H10.9547L8.24531 12.4624L9.28125 15.6499L6.56719 13.6811L3.85313 15.6499L4.89375 12.4624L2.17969 10.489H5.53125L6.56719 7.30145Z" fill="#FFDA44"/>
<path d="M14.227 18.5846L13.4348 17.6096L12.2629 18.0643L12.9426 17.0096L12.1504 16.03L13.3645 16.3534L14.0488 15.2987L14.1145 16.555L15.3332 16.8784L14.1566 17.3284L14.227 18.5846Z" fill="#FFDA44"/>
<path d="M15.802 15.7253L16.177 14.5253L15.1504 13.7987L16.4066 13.78L16.777 12.58L17.1848 13.7706L18.441 13.7565L17.4332 14.5065L17.8363 15.6971L16.8098 14.9706L15.802 15.7253Z" fill="#FFDA44"/>
<path d="M17.9246 8.80662L17.3715 9.9363L18.2715 10.8129L17.0293 10.6347L16.4762 11.7597L16.2605 10.5222L15.0137 10.3441L16.1293 9.75818L15.9137 8.51599L16.8137 9.39255L17.9246 8.80662Z" fill="#FFDA44"/>
<path d="M14.2582 5.38507L14.1645 6.63664L15.3316 7.11007L14.1082 7.41007L14.0191 8.66632L13.3582 7.59757L12.1348 7.89757L12.9457 6.93664L12.2801 5.87257L13.4473 6.34601L14.2582 5.38507Z" fill="#FFDA44"/>
</g>
<defs>
<clipPath id="clip0_6346_28426">
<rect width="24" height="24" fill="white"/>
</clipPath>
</defs>
</svg>
