<svg width="24" height="24" viewBox="0 0 24 24" fill="none" xmlns="http://www.w3.org/2000/svg">
<g clip-path="url(#clip0_6346_28483)">
<path d="M12 24C18.6274 24 24 18.6274 24 12C24 5.37258 18.6274 0 12 0C5.37258 0 0 5.37258 0 12C0 18.6274 5.37258 24 12 24Z" fill="#FCFCFC"/>
<path d="M18.782 10.4344C18.4167 10.4344 17.9645 10.4344 17.2167 10.4344C17.2167 13.316 14.8808 15.6518 11.9994 15.6518C9.11783 15.6518 6.782 13.316 6.782 10.4344C6.27763 10.4344 5.72108 10.4344 5.2168 10.4344C5.2168 13.5383 7.30161 16.1552 10.1474 16.9611C9.83539 17.5538 9.88292 18.3 10.3286 18.8562C10.914 18.387 11.52 17.9013 12.0342 17.4894C12.5483 17.9014 13.1544 18.387 13.7397 18.8562C14.1898 18.2945 14.2341 17.5388 13.9117 16.9432C16.7263 16.1175 18.782 13.5162 18.782 10.4344Z" fill="#6DA544"/>
<path d="M7.82617 9.9128C7.82617 9.9128 7.82617 12.5215 10.4349 12.5215L10.9566 13.0432H12.0001C12.0001 13.0432 12.5218 11.478 13.5653 11.478C13.5653 11.478 13.5653 10.4345 14.6088 10.4345C15.6522 10.4345 16.174 10.4345 16.174 10.4345C16.174 10.4345 15.6522 8.34754 18.2609 6.78234L17.2174 6.26062C17.2174 6.26062 13.5653 8.86931 10.9566 8.34759V9.39108H9.91309L9.39138 8.86936L7.82617 9.9128Z" fill="#FFDA44"/>
</g>
<defs>
<clipPath id="clip0_6346_28483">
<rect width="24" height="24" fill="white"/>
</clipPath>
</defs>
</svg>
