<svg width="24" height="24" viewBox="0 0 24 24" fill="none" xmlns="http://www.w3.org/2000/svg">
<g clip-path="url(#clip0_6346_28420)">
<path d="M12 24C18.6274 24 24 18.6274 24 12C24 5.37258 18.6274 0 12 0C5.37258 0 0 5.37258 0 12C0 18.6274 5.37258 24 12 24Z" fill="#F0F0F0"/>
<path d="M9.39262 10.4349H23.8997C23.1327 4.54709 18.0982 0.00012207 12.0013 0.00012207C11.1052 0.00012207 10.2326 0.099169 9.39258 0.285356V10.4349H9.39262Z" fill="#D80027"/>
<path d="M6.26085 10.4356V1.45996C2.96586 3.2578 0.607016 6.55551 0.101562 10.4357H6.26085V10.4356Z" fill="#D80027"/>
<path d="M6.2608 13.5656H0.101562C0.607016 17.4457 2.96586 20.7434 6.26085 22.5412L6.2608 13.5656Z" fill="#D80027"/>
<path d="M9.39258 13.5656V23.7151C10.2326 23.9013 11.1052 24.0003 12.0013 24.0003C18.0982 24.0003 23.1327 19.4534 23.8997 13.5656H9.39258V13.5656Z" fill="#D80027"/>
</g>
<defs>
<clipPath id="clip0_6346_28420">
<rect width="24" height="24" fill="white"/>
</clipPath>
</defs>
</svg>
