<svg width="24" height="24" viewBox="0 0 24 24" fill="none" xmlns="http://www.w3.org/2000/svg">
<g clip-path="url(#clip0_6346_28398)">
<path d="M12 24C18.6274 24 24 18.6274 24 12C24 5.37258 18.6274 0 12 0C5.37258 0 0 5.37258 0 12C0 18.6274 5.37258 24 12 24Z" fill="#F0F0F0"/>
<path d="M14.3477 23.7693C19.0915 22.8282 22.8285 19.0913 23.7695 14.3474H14.3477V23.7693Z" fill="#496E2D"/>
<path d="M0.230469 14.3474C1.17148 19.0913 4.90845 22.8282 9.65234 23.7693V14.3474H0.230469Z" fill="#496E2D"/>
<path d="M23.7695 9.65222C22.8285 4.90838 19.0915 1.17141 14.3477 0.230347V9.65222H23.7695Z" fill="#496E2D"/>
<path d="M9.65234 0.230469C4.90845 1.17153 1.17148 4.9085 0.230469 9.65234H9.65234V0.230469Z" fill="#496E2D"/>
<path d="M11.2175 14.3481H9.65234V23.77C10.1631 23.8713 10.6857 23.9399 11.2175 23.9742V14.3481Z" fill="#FFDA44"/>
<path d="M11.2175 9.6528V0.0267334C10.6857 0.0609522 10.1631 0.129624 9.65234 0.230921V9.6528H11.2175Z" fill="#FFDA44"/>
<path d="M12.782 0.0265977C12.5232 0.00986328 12.2624 0.000488281 11.9994 0.000488281C11.7364 0.000488281 11.4756 0.00986328 11.2168 0.0265977V9.65271H12.782V0.0265977H12.782Z" fill="black"/>
<path d="M11.2168 23.9738C11.4756 23.9906 11.7364 24 11.9994 24C12.2624 24 12.5232 23.9906 12.782 23.9738V14.3478H11.2168V23.9738H11.2168Z" fill="black"/>
<path d="M9.65145 11.2178V9.65259H0.229578C0.128234 10.1634 0.0596094 10.6859 0.0253906 11.2178H9.65145Z" fill="#FFDA44"/>
<path d="M14.3477 11.2183H23.9738C23.9395 10.6864 23.8709 10.1639 23.7696 9.65308H14.3477V11.2183H14.3477Z" fill="#FFDA44"/>
<path d="M14.3477 12.7832H23.9738C23.9904 12.5244 23.9998 12.2635 23.9998 12.0005C23.9998 11.7375 23.9904 11.4767 23.9737 11.2179H14.3477V12.7832Z" fill="black"/>
<path d="M0.0261094 11.2179C0.00942187 11.4767 0 11.7375 0 12.0005C0 12.2635 0.00942187 12.5244 0.0261094 12.7832H9.65222V11.2179H0.0261094V11.2179Z" fill="black"/>
<path d="M11.9989 17.7389C15.1685 17.7389 17.738 15.1694 17.738 11.9998C17.738 8.83012 15.1685 6.26062 11.9989 6.26062C8.82927 6.26062 6.25977 8.83012 6.25977 11.9998C6.25977 15.1694 8.82927 17.7389 11.9989 17.7389Z" fill="#D80027"/>
<path d="M13.3056 12.6408C12.8787 11.7871 12.3238 10.9218 12.3238 10.9218C12.3238 10.9218 12.3376 10.5278 12.3376 10.293C12.3376 9.9394 12.0509 9.65271 11.6973 9.65271C11.3623 9.65271 11.0878 9.9101 11.0598 10.2378C10.7963 10.255 10.5879 10.4735 10.5879 10.7413C10.5879 10.936 10.6982 11.1047 10.8596 11.189C10.9399 11.0013 11.097 10.8548 11.2913 10.788C11.323 10.8139 11.3571 10.8371 11.3934 10.8567L11.4754 10.896C11.4754 10.896 11.1712 11.7534 11.1712 12.214C11.1712 13.5088 12.025 13.9082 12.025 13.9082V13.9215L11.5981 14.3484H12.4519V13.4946L12.8788 13.9215C12.8825 13.9135 13.6874 13.4044 13.3056 12.6408Z" fill="#496E2D"/>
<path d="M11.9986 7.30444L12.1929 7.90229H12.8215L12.3129 8.2718L12.5072 8.86964L11.9986 8.50018L11.49 8.86964L11.6843 8.2718L11.1758 7.90229H11.8044L11.9986 7.30444Z" fill="#496E2D"/>
<path d="M9.23817 8.20183L9.74667 8.57135L10.2553 8.20178L10.061 8.79972L10.5696 9.16914L9.94097 9.16919L9.74672 9.76704L9.55242 9.16919L8.92383 9.16914L9.43237 8.79963L9.23817 8.20183Z" fill="#496E2D"/>
<path d="M7.5332 10.5491H8.16175L8.35605 9.95129L8.55029 10.5491L9.17893 10.5491L8.67039 10.9187L8.86468 11.5165L8.35605 11.147L7.8475 11.5165L8.0417 10.9186L7.5332 10.5491Z" fill="#496E2D"/>
<path d="M7.5332 13.4513L8.0417 13.0819L7.84745 12.484L8.35605 12.8535L8.86464 12.484L8.67039 13.0819L9.17898 13.4514L8.5503 13.4514L8.35605 14.0492L8.16175 13.4513H7.5332Z" fill="#496E2D"/>
<path d="M9.23822 15.7989L9.43242 15.2012L8.92383 14.8317H9.55247L9.74676 14.2338L9.94101 14.8316H10.5697L10.0611 15.2012L10.2553 15.799L9.74672 15.4295L9.23822 15.7989Z" fill="#496E2D"/>
<path d="M11.9986 16.6963L11.8044 16.0986H11.1758L11.6843 15.729L11.49 15.1312L11.9986 15.5006L12.5072 15.1311L12.3129 15.729L12.8215 16.0985L12.1929 16.0986L11.9986 16.6963Z" fill="#496E2D"/>
<path d="M14.7592 15.7989L14.2507 15.4295L13.7421 15.799L13.9363 15.2012L13.4277 14.8317L14.0564 14.8316L14.2506 14.2338L14.4449 14.8317H15.0735L14.565 15.2012L14.7592 15.7989Z" fill="#496E2D"/>
<path d="M16.4661 13.4514H15.8375L15.6433 14.0493L15.449 13.4515H14.8203L15.3289 13.0819L15.1346 12.4841L15.6433 12.8536L16.1518 12.4841L15.9576 13.082L16.4661 13.4514Z" fill="#496E2D"/>
<path d="M16.4661 10.5491L15.9576 10.9186L16.1518 11.5164L15.6433 11.1469L15.1347 11.5165L15.3289 10.9186L14.8203 10.5491L15.449 10.549L15.6432 9.95129L15.8375 10.5491H16.4661Z" fill="#496E2D"/>
<path d="M14.7592 8.20178L14.565 8.79958L15.0735 9.1691H14.4449L14.2507 9.76699L14.0564 9.16915L13.4277 9.16919L13.9363 8.79958L13.7421 8.20183L14.2507 8.57125L14.7592 8.20178Z" fill="#496E2D"/>
</g>
<defs>
<clipPath id="clip0_6346_28398">
<rect width="24" height="24" fill="white"/>
</clipPath>
</defs>
</svg>
