<svg width="24" height="24" viewBox="0 0 24 24" fill="none" xmlns="http://www.w3.org/2000/svg">
<g clip-path="url(#clip0_6346_28415)">
<path d="M12.0008 0C18.6281 0 24.0007 5.37262 24.0007 12C24.0007 18.6274 18.6281 24 12.0008 24C12.0008 23.4783 10.4355 12 10.4355 12L12.0008 0Z" fill="#F0F0F0"/>
<path d="M12 24C5.37262 24 0 18.6274 0 12C0 5.37262 5.37262 0 12 0" fill="#496E2D"/>
<path d="M14.5791 9.69873L13.5945 11.0555L12 10.5384L12.9862 11.894L12.0017 13.2508L13.5956 12.7319L14.5818 14.0875L14.5808 12.4112L16.1747 11.8922L14.5802 11.3751L14.5791 9.69873Z" fill="#D80027"/>
<path d="M12.9958 15.392C11.1229 15.392 9.6045 13.8737 9.6045 12.0007C9.6045 10.1278 11.1229 8.60941 12.9958 8.60941C13.5798 8.60941 14.1293 8.75706 14.609 9.01703C13.8564 8.28105 12.8272 7.82678 11.6915 7.82678C9.38625 7.82678 7.51758 9.6955 7.51758 12.0007C7.51758 14.3058 9.3863 16.1746 11.6915 16.1746C12.8273 16.1746 13.8564 15.7203 14.609 14.9843C14.1293 15.2444 13.5798 15.392 12.9958 15.392Z" fill="#D80027"/>
</g>
<defs>
<clipPath id="clip0_6346_28415">
<rect width="24" height="24" fill="white"/>
</clipPath>
</defs>
</svg>
