<svg width="24" height="24" viewBox="0 0 24 24" fill="none" xmlns="http://www.w3.org/2000/svg">
<g clip-path="url(#clip0_6346_28492)">
<path fill-rule="evenodd" clip-rule="evenodd" d="M12 0C18.627 0 24 5.37305 24 12C24 18.627 18.627 24 12 24C5.37305 24 0 18.627 0 12C0 5.37305 5.37305 0 12 0Z" fill="#2394E0"/>
<path fill-rule="evenodd" clip-rule="evenodd" d="M2.29688 18.1993C1.58984 17.127 1.06055 15.9258 0.75 14.6387L2.86328 15.6583L2.875 16.2891C2.875 16.5215 2.48047 17.0137 2.35352 17.2012L2.29688 18.1993ZM15.2949 1.26959C19.3223 2.60748 22.3438 6.1524 22.9258 10.4688L22.5449 10.4278C22.4766 10.7208 22.4141 10.7266 22.4141 11.0782C22.4141 11.3887 22.8047 11.5958 22.8047 12.2501C22.8047 12.4258 22.3926 12.7755 22.375 12.838L21.7637 12.1212V13.0333L21.6719 13.0294L21.5078 11.3458L21.166 11.4532L20.7598 10.2012L19.4219 11.5997L19.4062 12.6231L18.9688 12.9161L18.5039 10.2911L18.2266 10.4942L17.5977 9.64459L16.6582 9.67194L16.2988 9.25983L15.9297 9.36139L15.2051 8.53131L15.0645 8.62701L15.5137 9.77545H16.0352V9.51569H16.2949C16.4824 10.0352 16.6855 9.72662 16.6855 10.0372C16.6855 11.1212 15.3477 11.918 14.4707 12.1212C14.5176 12.3165 14.5 12.5118 14.7305 12.5118C15.2207 12.5118 14.9766 12.4258 15.5117 12.3809C15.4863 13.4883 14.2422 14.8106 13.7109 15.6329L13.9492 17.3301C14.0117 17.6993 13.1836 18.088 12.9023 18.504L13.0371 19.1544L12.6563 19.3087C12.5898 19.9766 11.9414 20.7169 11.2129 20.7169H10.4316C10.4316 19.8028 9.7793 18.4962 9.7793 17.8497C9.7793 17.3008 10.0391 17.2266 10.0391 16.5469C10.0391 15.918 9.38867 15.0176 9.38867 14.8536V13.8106H8.86719C8.78906 13.5196 8.83789 13.42 8.47656 13.42H8.3457C7.77734 13.42 7.87305 13.6797 7.30273 13.6797H6.78125C6.31055 13.6797 5.47852 12.1719 5.47852 11.9864V10.4239C5.47852 9.75006 6.0957 9.01569 6.52148 8.73053V8.08014L7.10742 7.48444L7.43359 7.42975C8.13281 7.42975 8.04883 7.03912 8.47656 7.03912H9.64844V7.95123L10.9375 8.50201L11.0586 7.94537C11.6426 8.08209 11.7949 8.34186 12.5137 8.34186H12.7734C13.2676 8.34186 13.2949 7.68561 13.2949 7.16998L12.252 7.2735L11.7969 6.28522L11.3457 6.40436C11.4277 6.75787 11.4707 6.61139 11.4707 6.91022C11.4707 7.086 11.3262 7.10553 11.209 7.16998L10.7578 6.02545L9.78711 5.33209L9.6582 5.45905L10.4844 6.32819C10.375 6.64069 10.3613 7.54108 9.90625 6.91022L10.332 6.70514L9.26953 5.59186L8.63281 5.8399L8.00391 6.44147C7.9375 6.92584 7.80664 7.16998 7.29883 7.16998C6.96094 7.16998 7.16406 7.08209 6.64648 7.03912V5.73639H7.81836L7.4375 4.8692L7.29688 4.95514V4.69342L9.20117 3.81647C9.16602 3.54303 9.12109 3.68951 9.12109 3.39069C9.12109 3.37311 9.24805 3.13287 9.25195 3.12897L9.74414 3.43561L9.62695 2.87506L8.86719 3.03131L8.72656 2.34967C9.32812 2.03326 10.6543 0.916077 11.0762 0.916077H11.4668C11.8789 0.916077 12.9805 1.32233 13.1602 1.56647L12.1152 1.461L12.8906 2.09967L12.9648 1.82623L13.543 1.66803L13.5508 1.3067H13.8125V1.69733L15.2949 1.26959Z" fill="#A1E367"/>
</g>
<defs>
<clipPath id="clip0_6346_28492">
<rect width="24" height="24" fill="white"/>
</clipPath>
</defs>
</svg>
