<svg width="24" height="24" viewBox="0 0 24 24" fill="none" xmlns="http://www.w3.org/2000/svg">
<g clip-path="url(#clip0_6346_28405)">
<path d="M24 12C24 18.6274 18.6274 24 12 24C5.37262 24 0 18.6274 0 12C0 12.0029 12 0.0013125 12 0C18.6274 0 24 5.37262 24 12Z" fill="#338AF3"/>
<path d="M11.9981 5.7403V9.78762L7.82422 5.7403H11.9981Z" fill="#0052B4"/>
<path d="M6.26 12.0019H9.78556L6.26 7.30621L5.73828 10.9584L6.26 12.0019Z" fill="#0052B4"/>
<path d="M11.9668 12.0001H11.999C11.999 11.9893 11.999 11.9788 11.999 11.968C11.9883 11.9787 11.9776 11.9894 11.9668 12.0001Z" fill="#F0F0F0"/>
<path d="M12 6.26153C12 4.15005 12 2.76653 12 0.000671387H11.998C5.3715 0.00179639 0 5.37391 0 12.0007H6.26086V8.47516L9.78642 12.0007H11.968C11.9787 11.99 11.9894 11.9793 12.0001 11.9686C12.0001 11.1601 12.0001 10.4387 12.0001 9.78714L8.47443 6.26153H12Z" fill="#F0F0F0"/>
<path d="M6.07027 1.56586C4.19344 2.63456 2.63316 4.19484 1.56445 6.07167V12.0007H4.69491V4.69641V4.69631H11.9993C11.9993 3.70898 11.9993 2.76839 11.9993 1.56586H6.07027Z" fill="#D80027"/>
<path d="M11.9989 10.525L7.73544 6.2616H6.25977V6.26169L11.9988 12.0007H11.9989C11.9989 12.0007 11.9989 10.9832 11.9989 10.525Z" fill="#D80027"/>
<path d="M13.5664 7.82718V12.001C13.5664 14.7966 17.2186 15.6532 17.2186 15.6532C17.2186 15.6532 20.8707 14.7966 20.8707 12.001V7.82718L17.2186 6.78369L13.5664 7.82718Z" fill="#F3F3F3"/>
<path d="M20.8707 7.82625V6.26105H13.5664V7.82625H16.6968V10.9567H13.5664V12.0001C13.5664 12.0002 13.5664 12.0002 13.5664 12.0002L16.6968 12.0003V15.4923C17.0117 15.6037 17.2186 15.6524 17.2186 15.6524C17.2186 15.6524 17.4254 15.6038 17.7402 15.4923V12.0002H20.8707V12.0001V10.9567H17.7402V7.8262H20.8707V7.82625Z" fill="#D80027"/>
</g>
<defs>
<clipPath id="clip0_6346_28405">
<rect width="24" height="24" fill="white"/>
</clipPath>
</defs>
</svg>
