<svg width="24" height="24" viewBox="0 0 24 24" fill="none" xmlns="http://www.w3.org/2000/svg">
<g clip-path="url(#clip0_6346_28409)">
<path d="M24 12C24 18.6274 18.6274 24 12 24C5.37262 24 0 18.6274 0 12C0 12.0029 12 0.0013125 12 0C18.6274 0 24 5.37262 24 12Z" fill="#0052B4"/>
<path d="M11.9668 12.0003H11.999C11.999 11.9895 11.999 11.979 11.999 11.9681C11.9883 11.9789 11.9776 11.9896 11.9668 12.0003Z" fill="#F0F0F0"/>
<path d="M12 6.26074C12 4.14925 12 2.76574 12 -0.00012207H11.998C5.3715 0.00100293 0 5.37311 0 11.9999H6.26086V8.47436L9.78642 11.9999H11.9679C11.9786 11.9892 11.9893 11.9785 12 11.9678C12 11.1593 12 10.438 12 9.78635L8.47443 6.26074H12Z" fill="#F0F0F0"/>
<path d="M6.07027 1.56494C4.19344 2.63364 2.63316 4.19393 1.56445 6.07075V11.9997H4.69491V4.69549V4.69539H11.9993C11.9993 3.70807 11.9993 2.76747 11.9993 1.56494H6.07027Z" fill="#D80027"/>
<path d="M11.9989 10.5243L7.73544 6.26093H6.25977V6.26102L11.9988 12H11.9989C11.9989 12 11.9989 10.9825 11.9989 10.5243Z" fill="#D80027"/>
<path d="M19.3055 14.0864V14.6081H15.1317V14.0864H13.5664V16.1733H14.6099V16.6951H19.8273V16.1733H20.8707V14.0864H19.3055Z" fill="#FFDA44"/>
<path d="M13.5664 6.26154V12.0007C13.5664 14.7963 17.2186 15.6528 17.2186 15.6528C17.2186 15.6528 20.8707 14.7963 20.8707 12.0007V6.26154H13.5664Z" fill="#338AF3"/>
<path d="M17.2183 10.5428C16.3054 10.5428 16.3054 11.3776 15.3924 11.3776C14.4794 11.3776 14.4794 10.5428 13.5664 10.5428V12.0037C14.4794 12.0037 14.4794 12.8385 15.3924 12.8385C16.3054 12.8385 16.3054 12.0037 17.2183 12.0037C18.1314 12.0037 18.1314 12.8385 19.0445 12.8385C19.9577 12.8385 19.9576 12.0037 20.8708 12.0037V10.5428C19.9577 10.5428 19.9577 11.3776 19.0445 11.3776C18.1314 11.3776 18.1314 10.5428 17.2183 10.5428Z" fill="#F3F3F3"/>
<path d="M17.2183 7.6181C16.3054 7.6181 16.3054 8.4529 15.3924 8.4529C14.4794 8.4529 14.4794 7.6181 13.5664 7.6181V9.07896C14.4794 9.07896 14.4794 9.91376 15.3924 9.91376C16.3054 9.91376 16.3054 9.07896 17.2183 9.07896C18.1314 9.07896 18.1314 9.91376 19.0445 9.91376C19.9577 9.91376 19.9576 9.07896 20.8708 9.07896V7.6181C19.9577 7.6181 19.9577 8.4529 19.0445 8.4529C18.1314 8.4529 18.1314 7.6181 17.2183 7.6181Z" fill="#F3F3F3"/>
</g>
<defs>
<clipPath id="clip0_6346_28409">
<rect width="24" height="24" fill="white"/>
</clipPath>
</defs>
</svg>
