<svg width="24" height="24" viewBox="0 0 24 24" fill="none" xmlns="http://www.w3.org/2000/svg">
<g clip-path="url(#clip0_6346_28450)">
<path d="M0 12C0 5.37262 5.37262 0 12 0C18.6274 0 24 5.37262 24 12C23.4783 12 12 13.5652 12 13.5652L0 12Z" fill="#F0F0F0"/>
<path d="M24 12.0005C24 18.6279 18.6274 24.0005 12 24.0005C5.37262 24.0005 0 18.6279 0 12.0005" fill="#D80027"/>
<path d="M8.34657 17.7396C11.5162 17.7396 14.0857 15.1701 14.0857 12.0005C14.0857 8.83085 11.5162 6.26135 8.34657 6.26135C5.17692 6.26135 2.60742 8.83085 2.60742 12.0005C2.60742 15.1701 5.17692 17.7396 8.34657 17.7396Z" fill="#F0F0F0"/>
<path d="M2.60742 12.0005C2.60742 8.83095 5.17692 6.26135 8.34657 6.26135C11.5163 6.26135 14.0857 8.8309 14.0857 12.0005" fill="#D80027"/>
</g>
<defs>
<clipPath id="clip0_6346_28450">
<rect width="24" height="24" fill="white"/>
</clipPath>
</defs>
</svg>
