<svg width="24" height="24" viewBox="0 0 24 24" fill="none" xmlns="http://www.w3.org/2000/svg">
<g clip-path="url(#clip0_6346_28496)">
<path d="M12 24C18.6274 24 24 18.6274 24 12C24 5.37258 18.6274 0 12 0C5.37258 0 0 5.37258 0 12C0 18.6274 5.37258 24 12 24Z" fill="#F0F0F0"/>
<path d="M7.30486 7.8258H23.2541C21.5586 3.25619 17.16 -0.000305176 12.0005 -0.000305176C8.68673 -0.000305176 5.68706 1.34309 3.51562 3.5148L7.30486 7.8258Z" fill="#6DA544"/>
<path d="M7.30486 16.1742H23.2541C21.5586 20.7438 17.16 24.0003 12.0005 24.0003C8.68673 24.0003 5.68706 22.6569 3.51562 20.4852L7.30486 16.1742Z" fill="#D80027"/>
<path d="M3.51471 3.5155C-1.17157 8.20178 -1.17157 15.7998 3.51471 20.4861C5.45126 18.5496 7.31375 16.6871 12 12.0008L3.51471 3.5155Z" fill="#0052B4"/>
<path d="M14.0879 9.91272V12.5214C14.0879 14.1189 16.1749 14.6084 16.1749 14.6084C16.1749 14.6084 18.2618 14.1189 18.2618 12.5214V9.91272H14.0879Z" fill="#DEDDE0"/>
<path d="M16.6958 12.0523H15.6523V13.5653H16.6958V12.0523Z" fill="#786145"/>
<path d="M17.2181 11.4789C17.2181 10.9025 16.7509 10.4354 16.1746 10.4354C15.5982 10.4354 15.1311 10.9025 15.1311 11.4789C14.843 11.4789 14.6094 11.7124 14.6094 12.0006C14.6094 12.2887 14.843 12.5223 15.1311 12.5223C15.3022 12.5223 17.047 12.5223 17.2181 12.5223C17.5062 12.5223 17.7398 12.2887 17.7398 12.0006C17.7398 11.7124 17.5062 11.4789 17.2181 11.4789Z" fill="#6DA544"/>
</g>
<defs>
<clipPath id="clip0_6346_28496">
<rect width="24" height="24" fill="white"/>
</clipPath>
</defs>
</svg>
