<svg width="24" height="24" viewBox="0 0 24 24" fill="none" xmlns="http://www.w3.org/2000/svg">
<g clip-path="url(#clip0_6346_28380)">
<path d="M12 24C18.6274 24 24 18.6274 24 12C24 5.37258 18.6274 0 12 0C5.37258 0 0 5.37258 0 12C0 18.6274 5.37258 24 12 24Z" fill="#D80027"/>
<path d="M13.2387 9.07758C12.966 10.2119 12.4815 9.99558 12.2437 10.9848C10.8429 10.648 9.98021 9.23944 10.317 7.83858C10.6537 6.43781 12.0624 5.57512 13.4632 5.91192C12.9876 7.89037 13.4827 8.06306 13.2387 9.07758Z" fill="#F0F0F0"/>
<path d="M9.60395 9.91761C10.5985 10.5275 10.243 10.9215 11.1103 11.4534C10.3571 12.6816 8.75092 13.0667 7.5227 12.3135C6.29453 11.5604 5.90936 9.95412 6.66255 8.72595C8.3972 9.78964 8.71431 9.37212 9.60395 9.91761Z" fill="#F0F0F0"/>
<path d="M9.28044 13.635C10.1678 12.8776 10.4326 13.3374 11.2065 12.6769C12.1419 13.7727 12.0117 15.4194 10.916 16.3548C9.82015 17.2901 8.17353 17.1599 7.23828 16.0642C8.78581 14.7431 8.4867 14.3124 9.28044 13.635Z" fill="#F0F0F0"/>
<path d="M12.7145 15.0916C12.2683 14.0136 12.7875 13.9037 12.3984 12.9637C13.7296 12.4128 15.2555 13.0453 15.8065 14.3765C16.3574 15.7077 15.7248 17.2336 14.3936 17.7845C13.6156 15.9044 13.1136 16.0558 12.7145 15.0916Z" fill="#F0F0F0"/>
<path d="M15.1627 12.274C13.9996 12.3653 14.0555 11.8375 13.0413 11.917C12.9287 10.4808 14.0018 9.22501 15.4381 9.11228C16.8744 8.99982 18.1302 10.0729 18.2428 11.5092C16.2141 11.6683 16.2029 12.1925 15.1627 12.274Z" fill="#F0F0F0"/>
</g>
<defs>
<clipPath id="clip0_6346_28380">
<rect width="24" height="24" fill="white"/>
</clipPath>
</defs>
</svg>
