<svg width="24" height="24" viewBox="0 0 24 24" fill="none" xmlns="http://www.w3.org/2000/svg">
<g clip-path="url(#clip0_6346_28377)">
<path d="M12 24C18.6274 24 24 18.6274 24 12C24 5.37258 18.6274 0 12 0C5.37258 0 0 5.37258 0 12C0 18.6274 5.37258 24 12 24Z" fill="#F0F0F0"/>
<path d="M0.414062 15.1301C1.10838 17.7063 2.63861 19.9391 4.69633 21.5202V15.1301H0.414062Z" fill="#0052B4"/>
<path d="M10.957 23.954C11.301 23.9836 11.6489 23.9996 12.0005 23.9996C17.5448 23.9996 22.2101 20.2393 23.5871 15.1301H10.957V23.954Z" fill="#0052B4"/>
<path d="M23.5871 8.86912C22.2101 3.75993 17.5448 -0.000427246 12.0005 -0.000427246C11.6489 -0.000427246 11.301 0.015604 10.957 0.045229V8.86912H23.5871Z" fill="#0052B4"/>
<path d="M4.69633 2.47937C2.63861 4.06046 1.10838 6.29326 0.414062 8.86946H4.69633V2.47937Z" fill="#0052B4"/>
<path d="M23.8984 10.4351H9.39136H9.39131V0.285583C8.28234 0.53149 7.23098 0.930068 6.26086 1.45943V10.4351H0.101578C0.0347813 10.9475 0 11.4699 0 12.0003C0 12.5308 0.0347813 13.0532 0.101578 13.5656H6.26081H6.26086V22.5412C7.23098 23.0705 8.28234 23.4692 9.39131 23.7151V13.5657V13.5656H23.8984C23.9651 13.0532 24 12.5308 24 12.0003C24 11.4699 23.9651 10.9475 23.8984 10.4351Z" fill="#D80027"/>
</g>
<defs>
<clipPath id="clip0_6346_28377">
<rect width="24" height="24" fill="white"/>
</clipPath>
</defs>
</svg>
