<svg width="24" height="24" viewBox="0 0 24 24" fill="none" xmlns="http://www.w3.org/2000/svg">
<g clip-path="url(#clip0_6346_28365)">
<path d="M12 24C18.6274 24 24 18.6274 24 12C24 5.37258 18.6274 0 12 0C5.37258 0 0 5.37258 0 12C0 18.6274 5.37258 24 12 24Z" fill="#F0F0F0"/>
<path d="M21.5209 19.3072L14.2143 12.0006H14.2142L21.5209 4.69388C21.2058 4.28438 20.861 3.89039 20.486 3.51525C20.1109 3.14016 19.7169 2.79539 19.3074 2.48035L12.0007 9.78699L12.0007 9.78703L4.69405 2.48035C4.28459 2.79544 3.89056 3.14011 3.51542 3.51525C3.14028 3.89039 2.79556 4.28438 2.48052 4.69388L9.78716 12.0005L9.7872 12.0005L2.48047 19.3073C2.79561 19.7168 3.14033 20.1107 3.51538 20.4859C3.89052 20.861 4.28445 21.2057 4.694 21.5208L12.0007 14.2141L12.0007 14.2141L19.3074 21.5207C19.7168 21.2056 20.1109 20.8609 20.486 20.4858C20.8611 20.1107 21.2058 19.7167 21.5209 19.3072Z" fill="#D80027"/>
<path d="M9.91211 3.65288L11.9991 4.1746L14.086 3.65288V1.87899L13.2513 2.29636L11.9991 1.04419L10.7469 2.29636L9.91211 1.87899V3.65288Z" fill="#FFDA44"/>
<path d="M9.91211 3.65283V4.95727C9.91211 6.55477 11.9991 7.04424 11.9991 7.04424C11.9991 7.04424 14.086 6.55472 14.086 4.95727V3.65283H9.91211Z" fill="#D80027"/>
</g>
<defs>
<clipPath id="clip0_6346_28365">
<rect width="24" height="24" fill="white"/>
</clipPath>
</defs>
</svg>
