<svg width="24" height="24" viewBox="0 0 24 24" fill="none" xmlns="http://www.w3.org/2000/svg">
<g clip-path="url(#clip0_6346_28361)">
<path d="M12 24C18.6274 24 24 18.6274 24 12C24 5.37258 18.6274 0 12 0C5.37258 0 0 5.37258 0 12C0 18.6274 5.37258 24 12 24Z" fill="#F0F0F0"/>
<path d="M7.30486 7.82623H23.2541C21.5586 3.25662 17.16 0.00012207 12.0005 0.00012207C8.68673 0.00012207 5.68706 1.34351 3.51562 3.51523L7.30486 7.82623Z" fill="black"/>
<path d="M7.30486 16.1744H23.2541C21.5586 20.7441 17.16 24.0006 12.0005 24.0006C8.68673 24.0006 5.68706 22.6572 3.51562 20.4854L7.30486 16.1744Z" fill="#6DA544"/>
<path d="M3.51471 3.51379C-1.17157 8.20008 -1.17157 15.7981 3.51471 20.4844C5.45126 18.5479 7.31375 16.6854 12 11.9991L3.51471 3.51379Z" fill="#D80027"/>
<path d="M4.76366 9.39172L5.4222 10.7689L6.9095 10.4251L6.24341 11.7986L7.43942 12.7471L5.95034 13.0827L5.95447 14.6091L4.76366 13.6541L3.5728 14.6091L3.57697 13.0827L2.08789 12.7471L3.28386 11.7986L2.61786 10.4251L4.10506 10.7689L4.76366 9.39172Z" fill="#F0F0F0"/>
</g>
<defs>
<clipPath id="clip0_6346_28361">
<rect width="24" height="24" fill="white"/>
</clipPath>
</defs>
</svg>
