<svg width="24" height="24" viewBox="0 0 24 24" fill="none" xmlns="http://www.w3.org/2000/svg">
<g clip-path="url(#clip0_6346_28470)">
<path d="M12 24C18.6274 24 24 18.6274 24 12C24 5.37258 18.6274 0 12 0C5.37258 0 0 5.37258 0 12C0 18.6274 5.37258 24 12 24Z" fill="#F0F0F0"/>
<path d="M11.999 -0.000244141C8.36188 -0.000244141 5.10298 1.61807 2.90234 4.17365H21.0955C18.8949 1.61807 15.636 -0.000244141 11.999 -0.000244141Z" fill="#0052B4"/>
<path d="M21.0956 19.827H2.90234C5.10298 22.3826 8.36188 24.0009 11.999 24.0009C15.636 24.0009 18.8949 22.3826 21.0956 19.827Z" fill="#0052B4"/>
<path d="M22.2387 5.73865H1.76128C0.644297 7.56138 0 9.70512 0 11.9995C0 14.2939 0.644297 16.4377 1.76128 18.2604H22.2387C23.3557 16.4377 24 14.2939 24 11.9995C24 9.70512 23.3557 7.56138 22.2387 5.73865Z" fill="#D80027"/>
<path d="M7.383 16.6182C9.9331 16.6182 12.0004 14.5509 12.0004 12.0008C12.0004 9.45069 9.9331 7.38342 7.383 7.38342C4.83289 7.38342 2.76562 9.45069 2.76562 12.0008C2.76562 14.5509 4.83289 16.6182 7.383 16.6182Z" fill="#F0F0F0"/>
<path d="M7.38181 7.38342L8.4178 10.5719H11.7758L9.05816 12.5426L10.1022 15.7406L7.38181 13.7605L4.6655 15.7369L5.70547 12.5426L2.99023 10.5719H6.34578L7.38181 7.38342Z" fill="#D80027"/>
</g>
<defs>
<clipPath id="clip0_6346_28470">
<rect width="24" height="24" fill="white"/>
</clipPath>
</defs>
</svg>
