<svg width="24" height="24" viewBox="0 0 24 24" fill="none" xmlns="http://www.w3.org/2000/svg">
<g clip-path="url(#clip0_6346_28504)">
<path d="M12 24C18.6274 24 24 18.6274 24 12C24 5.37258 18.6274 0 12 0C5.37258 0 0 5.37258 0 12C0 18.6274 5.37258 24 12 24Z" fill="#F0F0F0"/>
<path d="M16.174 11.9996C16.174 13.0431 14.3052 15.6518 12.0001 15.6518C9.69489 15.6518 7.82617 13.0431 7.82617 11.9996C7.82617 9.69442 9.69489 7.82574 12.0001 7.82574C14.3052 7.82574 16.174 9.69442 16.174 11.9996Z" fill="#D80027"/>
<path d="M16.174 11.9995C16.174 14.3047 14.3052 16.1734 12.0001 16.1734C9.69489 16.1734 7.82617 14.3047 7.82617 11.9995" fill="#0052B4"/>
<path d="M17.5345 14.5826L16.4277 15.6893L17.1656 16.4272L18.2723 15.3204L17.5345 14.5826Z" fill="black"/>
<path d="M15.6888 16.4268L14.582 17.5336L15.3199 18.2714L16.4266 17.1647L15.6888 16.4268Z" fill="black"/>
<path d="M19.7474 16.7947L18.6406 17.9015L19.3785 18.6393L20.4852 17.5326L19.7474 16.7947Z" fill="black"/>
<path d="M17.9036 18.6409L16.7969 19.7477L17.5347 20.4855L18.6415 19.3788L17.9036 18.6409Z" fill="black"/>
<path d="M18.64 15.6896L17.5332 16.7964L18.2711 17.5342L19.3778 16.4275L18.64 15.6896Z" fill="black"/>
<path d="M16.7962 17.5339L15.6895 18.6406L16.4273 19.3785L17.5341 18.2717L16.7962 17.5339Z" fill="black"/>
<path d="M15.6893 5.35815L18.6406 8.30951L19.3785 7.57166L16.4271 4.62031L15.6893 5.35815Z" fill="black"/>
<path d="M14.5827 6.46618L15.6895 7.57294L16.4273 6.83512L15.3205 5.72837L14.5827 6.46618Z" fill="black"/>
<path d="M16.4265 8.31L17.5332 9.41675L18.271 8.67893L17.1643 7.57218L16.4265 8.31Z" fill="black"/>
<path d="M16.7956 4.25225L17.9023 5.35901L18.6402 4.62116L17.5334 3.5144L16.7956 4.25225Z" fill="black"/>
<path d="M18.6413 6.09765L19.748 7.20441L20.4859 6.46656L19.3791 5.3598L18.6413 6.09765Z" fill="black"/>
<path d="M7.20331 19.7479L4.25195 16.7966L3.5141 17.5344L6.46546 20.4858L7.20331 19.7479Z" fill="black"/>
<path d="M8.30988 18.64L7.20312 17.5332L6.46531 18.271L7.57207 19.3778L8.30988 18.64Z" fill="black"/>
<path d="M6.46613 16.7959L5.35938 15.6891L4.62153 16.427L5.72828 17.5337L6.46613 16.7959Z" fill="black"/>
<path d="M9.41816 17.5337L6.4668 14.5823L5.72895 15.3202L8.68031 18.2715L9.41816 17.5337Z" fill="black"/>
<path d="M4.25177 7.20471L7.20312 4.25336L6.46528 3.51551L3.51392 6.46687L4.25177 7.20471Z" fill="black"/>
<path d="M5.35919 8.30982L8.31055 5.35846L7.5727 4.62061L4.62134 7.57197L5.35919 8.30982Z" fill="black"/>
<path d="M6.46661 9.41706L9.41797 6.4657L8.68015 5.72788L5.7288 8.67924L6.46661 9.41706Z" fill="black"/>
</g>
<defs>
<clipPath id="clip0_6346_28504">
<rect width="24" height="24" fill="white"/>
</clipPath>
</defs>
</svg>
