<svg width="24" height="24" viewBox="0 0 24 24" fill="none" xmlns="http://www.w3.org/2000/svg">
<g clip-path="url(#clip0_6346_28396)">
<path d="M24 12C24 18.6274 18.6274 24 12 24C5.37262 24 0 18.6274 0 12C0 12.0029 12 0.0013125 12 0C18.6274 0 24 5.37262 24 12Z" fill="#0052B4"/>
<path d="M11.9688 12.0004H12.0009C12.0009 11.9896 12.0009 11.9791 12.0009 11.9683C11.9902 11.979 11.9795 11.9897 11.9688 12.0004Z" fill="#F0F0F0"/>
<path d="M12 6.26037C12 4.14889 12 2.76537 12 -0.000488281H11.998C5.37145 0.000636719 0 5.37275 0 11.9995H6.26086V8.474L9.78638 11.9995H11.9679C11.9786 11.9888 11.9893 11.9781 12 11.9674C12 11.1589 12 10.4376 12 9.78598L8.47444 6.26037H12Z" fill="#F0F0F0"/>
<path d="M17.2178 8.86919C18.3704 8.86919 19.3048 7.93482 19.3048 6.78222C19.3048 5.62962 18.3704 4.69525 17.2178 4.69525C16.0652 4.69525 15.1309 5.62962 15.1309 6.78222C15.1309 7.93482 16.0652 8.86919 17.2178 8.86919Z" fill="#6DA544"/>
<path d="M6.07027 1.56525C4.19344 2.63395 2.63311 4.19423 1.56445 6.07106V12H4.69491V4.69579V4.6957H11.9993C11.9993 3.70837 11.9993 2.76778 11.9993 1.56525H6.07027Z" fill="#D80027"/>
<path d="M11.9989 10.5238L7.73539 6.26038H6.25977V6.26047L11.9988 11.9995H11.9989C11.9989 11.9995 11.9989 10.9819 11.9989 10.5238Z" fill="#D80027"/>
<path d="M20.8688 6.26038H13.5645V9.39083H20.8688V6.26038Z" fill="#D80027"/>
<path d="M13.5645 14.0869V16.1738H14.6625C15.3208 16.819 16.222 17.2173 17.2166 17.2173C18.2113 17.2173 19.1124 16.819 19.7708 16.1738H19.8253H20.8688V14.0869H13.5645Z" fill="#FFDA44"/>
<path d="M13.5645 8.86902V11.9995C13.5645 14.7951 17.2166 15.6516 17.2166 15.6516C17.2166 15.6516 20.8688 14.7951 20.8688 11.9995V8.86902H13.5645Z" fill="#338AF3"/>
<path d="M17.2164 10.5403C16.3034 10.5403 16.3034 11.3751 15.3904 11.3751C14.4774 11.3751 14.4774 10.5403 13.5645 10.5403V12.0012C14.4774 12.0012 14.4774 12.836 15.3904 12.836C16.3034 12.836 16.3034 12.0012 17.2164 12.0012C18.1295 12.0012 18.1295 12.836 19.0426 12.836C19.9557 12.836 19.9557 12.0012 20.8688 12.0012V10.5403C19.9557 10.5403 19.9557 11.3751 19.0426 11.3751C18.1295 11.3751 18.1295 10.5403 17.2164 10.5403Z" fill="#F3F3F3"/>
<path d="M17.2164 7.61664C16.3034 7.61664 16.3034 8.45144 15.3904 8.45144C14.4774 8.45144 14.4774 7.61664 13.5645 7.61664V9.0775C14.4774 9.0775 14.4774 9.91229 15.3904 9.91229C16.3034 9.91229 16.3034 9.0775 17.2164 9.0775C18.1295 9.0775 18.1295 9.91229 19.0426 9.91229C19.9557 9.91229 19.9557 9.0775 20.8688 9.0775V7.61664C19.9557 7.61664 19.9557 8.45144 19.0426 8.45144C18.1295 8.45144 18.1295 7.61664 17.2164 7.61664Z" fill="#F3F3F3"/>
</g>
<defs>
<clipPath id="clip0_6346_28396">
<rect width="24" height="24" fill="white"/>
</clipPath>
</defs>
</svg>
