<svg width="24" height="24" viewBox="0 0 24 24" fill="none" xmlns="http://www.w3.org/2000/svg">
<g clip-path="url(#clip0_6346_28378)">
<path d="M22.81 6.78189C20.869 2.76794 16.7582 -0.000732422 12.0007 -0.000732422C7.24316 -0.000732422 3.13241 2.76794 1.19141 6.78189L12.0007 7.82538L22.81 6.78189Z" fill="#D80027"/>
<path d="M1.19141 17.2162C3.13241 21.2302 7.24316 23.9988 12.0007 23.9988C16.7582 23.9988 20.869 21.2302 22.81 17.2162L12.0007 16.1727L1.19141 17.2162Z" fill="#D80027"/>
<path d="M22.8093 6.78174H1.19072C0.427875 8.35932 0 10.1292 0 11.9991C0 13.869 0.427875 15.6389 1.19072 17.2165H22.8092C23.5722 15.6389 24 13.869 24 11.9991C24 10.1292 23.5722 8.35932 22.8093 6.78174Z" fill="#0052B4"/>
<path d="M12.0001 16.1736C14.3052 16.1736 16.174 14.3049 16.174 11.9997C16.174 9.69452 14.3052 7.82581 12.0001 7.82581C9.69489 7.82581 7.82617 9.69452 7.82617 11.9997C7.82617 14.3049 9.69489 16.1736 12.0001 16.1736Z" fill="#F0F0F0"/>
</g>
<defs>
<clipPath id="clip0_6346_28378">
<rect width="24" height="24" fill="white"/>
</clipPath>
</defs>
</svg>
