<svg width="24" height="24" viewBox="0 0 24 24" fill="none" xmlns="http://www.w3.org/2000/svg">
<g clip-path="url(#clip0_6346_28410)">
<path d="M12 24C18.6274 24 24 18.6274 24 12C24 5.37258 18.6274 0 12 0C5.37258 0 0 5.37258 0 12C0 18.6274 5.37258 24 12 24Z" fill="#F0F0F0"/>
<path d="M2.74219 4.36307H21.2563C20.5725 3.53502 19.7794 2.80073 18.8996 2.18127H5.09892C4.21913 2.80063 3.42605 3.53498 2.74219 4.36307Z" fill="#F0F0F0"/>
<path d="M0 12.0005C0 12.3684 0.0174844 12.732 0.049875 13.0915H23.9501C23.9825 12.732 24 12.3684 24 12.0005C24 11.6327 23.9825 11.2691 23.9501 10.9097H0.049875C0.0174844 11.2691 0 11.6327 0 12.0005Z" fill="#F0F0F0"/>
<path d="M1.30981 17.4546H22.6927C23.046 16.7634 23.3342 16.0335 23.5494 15.2729H0.453125C0.668234 16.0335 0.956516 16.7635 1.30981 17.4546Z" fill="#F0F0F0"/>
<path d="M5.09892 21.8181H18.8995C19.7793 21.1986 20.5725 20.4643 21.2563 19.6363H2.74219C3.42605 20.4642 4.21913 21.1986 5.09892 21.8181Z" fill="#F0F0F0"/>
<path d="M0.451172 8.72788H23.5475C23.3324 7.96719 23.0441 7.23725 22.6908 6.54608H1.30791C0.954609 7.23725 0.666328 7.96719 0.451172 8.72788Z" fill="#F0F0F0"/>
<path d="M5.73828 2.18186H18.8995C16.9476 0.807577 14.5677 6.10352e-05 11.9991 6.10352e-05C10.4339 6.10352e-05 7.69016 0.807577 5.73828 2.18186Z" fill="#D80027"/>
<path d="M11.4785 6.54526H22.6917C22.2926 5.76465 21.8107 5.03345 21.2573 4.36346H11.4785V6.54526Z" fill="#D80027"/>
<path d="M11.4785 10.9085H23.9504C23.8829 10.1593 23.7472 9.42976 23.5484 8.72668H11.4785V10.9085Z" fill="#D80027"/>
<path d="M0.450828 15.2736H23.5471C23.7459 14.5706 23.8816 13.841 23.9491 13.0919H0.0488281C0.116328 13.841 0.251984 14.5706 0.450828 15.2736Z" fill="#D80027"/>
<path d="M2.74297 19.6369H21.2571C21.8105 18.9668 22.2924 18.2356 22.6915 17.4551H1.30859C1.70764 18.2357 2.18961 18.9669 2.74297 19.6369Z" fill="#D80027"/>
<path d="M11.998 24.0005C14.5666 24.0005 16.9464 23.193 18.8983 21.8187H5.09766C7.04953 23.193 9.42938 24.0005 11.998 24.0005Z" fill="#D80027"/>
<path d="M0.452734 8.72685C0.25389 9.42998 0.118281 10.1595 0.0507812 10.9087H12.0009V-0.000427246C6.50809 -0.000427246 1.87736 3.69014 0.452734 8.72685Z" fill="#0052B4"/>
<path d="M7.14308 3.13049L7.92003 5.52182H10.4347L8.40041 6.99989L9.17731 9.39136L7.14308 7.91339L5.10875 9.39136L5.88584 6.99989L3.85156 5.52182H6.36608L7.14308 3.13049Z" fill="#F0F0F0"/>
</g>
<defs>
<clipPath id="clip0_6346_28410">
<rect width="24" height="24" fill="white"/>
</clipPath>
</defs>
</svg>
