<svg width="24" height="24" viewBox="0 0 24 24" fill="none" xmlns="http://www.w3.org/2000/svg">
<g clip-path="url(#clip0_6346_28498)">
<path d="M23.2536 16.1743C23.736 14.8744 24 13.4683 24 12.0005C24 10.5326 23.736 9.1265 23.2536 7.82656L12 6.78308L0.746391 7.82656C0.264 9.1265 0 10.5326 0 12.0005C0 13.4683 0.264 14.8744 0.746391 16.1743L12 17.2178L23.2536 16.1743Z" fill="#6DA544"/>
<path d="M23.2533 7.82568C21.5578 3.25607 17.1593 -0.000427246 11.9997 -0.000427246C6.84013 -0.000427246 2.44161 3.25607 0.746094 7.82568H23.2533Z" fill="#FFDA44"/>
<path d="M11.9997 24.0008C17.1593 24.0008 21.5578 20.7443 23.2533 16.1747H0.746094C2.44161 20.7443 6.84012 24.0008 11.9997 24.0008Z" fill="#D80027"/>
</g>
<defs>
<clipPath id="clip0_6346_28498">
<rect width="24" height="24" fill="white"/>
</clipPath>
</defs>
</svg>
