<svg width="24" height="24" viewBox="0 0 24 24" fill="none" xmlns="http://www.w3.org/2000/svg">
<g clip-path="url(#clip0_6346_28343)">
<path d="M12.0003 24.0006C13.4682 24.0006 14.8743 23.7366 16.1742 23.2542L16.696 12.0006L16.1743 0.747001C14.8743 0.264657 13.4682 0.000610352 12.0003 0.000610352C10.5325 0.000610352 9.12639 0.264657 7.82645 0.747001L7.30469 12.0006L7.82641 23.2542C9.12639 23.7366 10.5325 24.0006 12.0003 24.0006Z" fill="#0052B4"/>
<path d="M0 12.0001C0 17.1596 3.2565 21.5582 7.82611 23.2537V0.74646C3.2565 2.44198 0 6.84049 0 12.0001Z" fill="#A2001D"/>
<path d="M16.1738 0.745972V23.2532C20.7434 21.5577 23.9999 17.1592 23.9999 11.9996C23.9999 6.84 20.7434 2.44149 16.1738 0.745972Z" fill="#A2001D"/>
<path d="M6.78177 11.9989H5.73828V16.1728H6.78177V11.9989Z" fill="#FFDA44"/>
<path d="M2.60794 11.9989H1.56445V16.1728H2.60794V11.9989Z" fill="#FFDA44"/>
<path d="M4.17239 14.6085C4.74869 14.6085 5.21588 14.1413 5.21588 13.565C5.21588 12.9887 4.74869 12.5215 4.17239 12.5215C3.59609 12.5215 3.12891 12.9887 3.12891 13.565C3.12891 14.1413 3.59609 14.6085 4.17239 14.6085Z" fill="#FFDA44"/>
<path d="M4.17211 10.4336C4.46025 10.4336 4.69383 10.2 4.69383 9.91185C4.69383 9.62372 4.46025 9.39014 4.17211 9.39014C3.88397 9.39014 3.65039 9.62372 3.65039 9.91185C3.65039 10.2 3.88397 10.4336 4.17211 10.4336Z" fill="#FFDA44"/>
<path d="M5.21588 15.1288H3.12891V16.1723H5.21588V15.1288Z" fill="#FFDA44"/>
<path d="M5.21588 10.9551H3.12891V11.9986H5.21588V10.9551Z" fill="#FFDA44"/>
<path d="M4.17262 6.26001L4.54219 7.3972H5.73787L4.77061 8.10004L5.13989 9.23723L4.17262 8.53439L3.20541 9.23723L3.57469 8.10004L2.60742 7.3972H3.80311L4.17262 6.26001Z" fill="#FFDA44"/>
</g>
<defs>
<clipPath id="clip0_6346_28343">
<rect width="24" height="24" fill="white"/>
</clipPath>
</defs>
</svg>
