<svg width="24" height="24" viewBox="0 0 24 24" fill="none" xmlns="http://www.w3.org/2000/svg">
<g clip-path="url(#clip0_6346_28478)">
<path d="M12 24C18.6274 24 24 18.6274 24 12C24 5.37258 18.6274 0 12 0C5.37258 0 0 5.37258 0 12C0 18.6274 5.37258 24 12 24Z" fill="#338AF3"/>
<path d="M11.6206 19.5561C11.2971 19.5405 11.0294 19.3302 10.9246 19.0448C10.7394 19.2864 10.4211 19.408 10.1076 19.3271C9.79345 19.2462 9.57384 18.9864 9.52842 18.6848C9.29779 18.8841 8.96179 18.9383 8.67121 18.796C8.38007 18.653 8.21732 18.354 8.23401 18.0498C7.96846 18.199 7.62829 18.1844 7.37212 17.9861C7.11646 17.7879 7.01681 17.4628 7.09401 17.168C6.8039 17.2609 6.47418 17.1785 6.26287 16.9327C6.05156 16.6875 6.01917 16.3489 6.15384 16.076C5.85121 16.1083 5.54446 15.9612 5.38687 15.6785C5.22876 15.3957 5.26532 15.0571 5.45259 14.8165C5.14945 14.7873 4.87814 14.5812 4.7811 14.2723C4.68356 13.9635 4.7879 13.639 5.02007 13.4412C4.72893 13.3514 4.50562 13.0947 4.47276 12.7728C4.4399 12.451 4.60687 12.1551 4.87345 12.008C4.60682 11.8619 4.43882 11.5661 4.47065 11.2447C4.47065 11.2447 4.47065 11.2447 4.47117 11.2447C4.503 10.9222 4.72631 10.6651 5.01689 10.5742C4.78471 10.377 4.67934 10.053 4.77585 9.74411C4.87237 9.43474 5.14312 9.22811 5.44631 9.19783C5.259 8.95783 5.22145 8.61916 5.37848 8.33594C5.53551 8.05315 5.84231 7.90549 6.14545 7.93732C6.00979 7.66446 6.04162 7.32583 6.25242 7.0796C6.4627 6.83388 6.79242 6.75091 7.08304 6.84274C7.00476 6.54846 7.1039 6.22291 7.35956 6.02416C7.6147 5.82532 7.95487 5.81018 8.22042 5.95835C8.20321 5.65422 8.36545 5.35521 8.65607 5.21172C8.94618 5.06875 9.2827 5.122 9.51379 5.32127C9.55814 5.01977 9.77779 4.75891 10.0913 4.67744C10.4044 4.59607 10.7227 4.71658 10.9084 4.95761C11.0132 4.67224 11.2804 4.46144 11.6039 4.44527C11.9268 4.42863 12.2137 4.61013 12.3473 4.88308C12.507 4.62429 12.8107 4.47091 13.1305 4.51943C13.4508 4.56743 13.6966 4.80321 13.7728 5.09805C13.9814 4.87572 14.3101 4.7876 14.6138 4.89921C14.918 5.01138 15.111 5.29207 15.1256 5.59675C15.3745 5.42149 15.7147 5.4011 15.9896 5.57224C16.2646 5.74286 16.3966 6.05641 16.3496 6.35744C16.6288 6.2359 16.9658 6.28441 17.2006 6.50664C17.4354 6.72944 17.5021 7.06282 17.3957 7.34819C17.6936 7.28505 18.014 7.39985 18.1997 7.66539C18.3854 7.93043 18.3839 8.2706 18.2227 8.52888C18.5269 8.52677 18.8175 8.70419 18.9464 9.00105C19.0747 9.29843 19.0042 9.63185 18.794 9.85254C19.093 9.91202 19.3418 10.1442 19.4076 10.4614C19.4728 10.7786 19.3366 11.0901 19.0867 11.2638C19.3664 11.3823 19.5636 11.6593 19.5641 11.9828C19.5641 11.9864 19.5641 11.9896 19.5641 11.9933C19.5641 11.9954 19.5641 11.998 19.5641 12.0001C19.5641 12.3235 19.3679 12.6011 19.0882 12.7206C19.3387 12.8933 19.4759 13.2048 19.4107 13.522C19.346 13.8392 19.0977 14.0719 18.7987 14.1324C19.0095 14.3526 19.081 14.6854 18.9532 14.9834C18.8253 15.2808 18.5347 15.4587 18.23 15.4571C18.3917 15.7154 18.3944 16.0556 18.2092 16.3211C18.0239 16.5867 17.7041 16.7025 17.4062 16.6399C17.5132 16.9248 17.4469 17.2587 17.2126 17.482C16.9778 17.7048 16.6413 17.7538 16.3622 17.6333C16.4097 17.9338 16.2782 18.2479 16.0037 18.4196C15.7293 18.5913 15.3891 18.5714 15.1397 18.3966C15.1256 18.7013 14.9336 18.9826 14.63 19.0953C14.63 19.0953 14.63 19.0953 14.6295 19.0953C14.3258 19.2074 13.9972 19.1198 13.7879 18.8981C13.7128 19.1934 13.4676 19.4297 13.1473 19.4788C12.8274 19.5273 12.5233 19.375 12.3631 19.1162C12.2358 19.3786 11.9666 19.557 11.6598 19.557C11.6467 19.5572 11.6337 19.5567 11.6206 19.5561Z" fill="#F3F3F3"/>
<path d="M12.0006 17.2183C14.8821 17.2183 17.218 14.8824 17.218 12.0009C17.218 9.11947 14.8821 6.78357 12.0006 6.78357C9.1191 6.78357 6.7832 9.11947 6.7832 12.0009C6.7832 14.8824 9.1191 17.2183 12.0006 17.2183Z" fill="#338AF3"/>
<path d="M13.141 10.229C13.3974 10.0388 13.5642 9.73494 13.5642 9.39125V8.86953C13.5642 8.29321 13.0971 7.82605 12.5208 7.82605H11.4773C10.901 7.82605 10.4338 8.29321 10.4338 8.86953V9.39125C10.4338 9.73494 10.6007 10.0388 10.857 10.229L9.91211 19.826C9.91211 19.826 10.4338 20.3478 11.9991 20.3478C13.5643 20.3478 14.086 19.826 14.086 19.826L13.141 10.229Z" fill="#BDBCC1"/>
<path d="M12.0002 7.82605L12.9067 10.616H15.8404L13.4671 12.3404L14.3735 15.1304L12.0002 13.4061L9.62687 15.1304L10.5335 12.3404L8.16016 10.616H11.0937L12.0002 7.82605Z" fill="#F0F0F0"/>
</g>
<defs>
<clipPath id="clip0_6346_28478">
<rect width="24" height="24" fill="white"/>
</clipPath>
</defs>
</svg>
