<svg width="24" height="24" viewBox="0 0 24 24" fill="none" xmlns="http://www.w3.org/2000/svg">
<g clip-path="url(#clip0_6346_28488)">
<path d="M12 24C18.6274 24 24 18.6274 24 12C24 5.37258 18.6274 0 12 0C5.37258 0 0 5.37258 0 12C0 18.6274 5.37258 24 12 24Z" fill="#F0F0F0"/>
<path d="M23.8984 10.4353C23.5673 7.90475 22.4306 5.45947 20.4865 3.51533C18.5423 1.57119 16.097 0.434425 13.5664 0.103394L13.5665 10.4353H23.8984Z" fill="#0052B4"/>
<path d="M10.4355 0.104004C7.90488 0.435035 5.45955 1.57175 3.51541 3.51589C1.57131 5.46008 0.434547 7.90541 0.103516 10.4361L10.4355 10.436L10.4355 0.104004Z" fill="#0052B4"/>
<path d="M0.103516 13.5664C0.434547 16.097 1.57131 18.5424 3.51541 20.4865C5.45955 22.4306 7.90483 23.5673 10.4355 23.8984L10.4355 13.5665L0.103516 13.5664Z" fill="#0052B4"/>
<path d="M13.5664 23.8983C16.097 23.5673 18.5423 22.4306 20.4864 20.4864C22.4306 18.5423 23.5673 16.097 23.8983 13.5664H13.5664V23.8983Z" fill="#0052B4"/>
<path d="M16.0951 7.61471C16.0951 7.45515 16.2248 7.32545 16.3844 7.32545H17.0043C17.9842 7.32545 18.7814 6.52829 18.7814 5.54846C18.7814 4.56863 17.9842 3.77143 17.0043 3.77143H16.4156C16.2235 3.6271 15.9657 3.53809 15.6814 3.53809C15.0883 3.53809 14.6075 3.9227 14.6075 4.39716C14.6075 4.86704 15.0791 5.24823 15.6643 5.25563L15.664 5.25906H17.0043C17.1639 5.25906 17.2936 5.38881 17.2936 5.54837C17.2936 5.70793 17.1639 5.83763 17.0043 5.83763H16.3844C15.4045 5.83763 14.6074 6.63479 14.6074 7.61462C14.6074 8.59445 15.4045 9.39165 16.3844 9.39165H18.7813V7.90393H16.3844C16.2248 7.90398 16.0951 7.77428 16.0951 7.61471Z" fill="#F0F0F0"/>
<path d="M6.70442 7.61484C6.70442 7.45527 6.83413 7.32557 6.99373 7.32557H7.61361C8.59348 7.32557 9.39069 6.52841 9.39069 5.54858C9.39069 4.56876 8.59353 3.77155 7.61361 3.77155H7.02495C6.83281 3.62722 6.57505 3.53821 6.2907 3.53821C5.69759 3.53821 5.2168 3.92282 5.2168 4.39729C5.2168 4.86716 5.68841 5.24835 6.27359 5.25576L6.27331 5.25918H7.61366C7.77327 5.25918 7.90297 5.38893 7.90297 5.54849C7.90297 5.70805 7.77327 5.83776 7.61366 5.83776H6.99378C6.01391 5.83776 5.2168 6.63491 5.2168 7.61474C5.2168 8.59457 6.01386 9.39177 6.99378 9.39177H9.39064V7.90406H6.99373C6.83413 7.9041 6.70442 7.7744 6.70442 7.61484Z" fill="#F0F0F0"/>
<path d="M16.0951 18.6859C16.0951 18.5263 16.2248 18.3966 16.3845 18.3966H17.0043C17.9842 18.3966 18.7814 17.5995 18.7814 16.6196C18.7814 15.6398 17.9843 14.8426 17.0043 14.8426H16.4157C16.2235 14.6983 15.9658 14.6093 15.6814 14.6093C15.0883 14.6093 14.6075 14.9939 14.6075 15.4683C14.6075 15.9382 15.0791 16.3194 15.6643 16.3268L15.664 16.3302H17.0043C17.1639 16.3302 17.2936 16.46 17.2936 16.6195C17.2936 16.7791 17.1639 16.9088 17.0043 16.9088H16.3844C15.4045 16.9088 14.6074 17.706 14.6074 18.6858C14.6074 19.6656 15.4045 20.4628 16.3844 20.4628H18.7814V18.9751H16.3845C16.2248 18.9752 16.0951 18.8454 16.0951 18.6859Z" fill="#F0F0F0"/>
<path d="M6.70447 18.6859C6.70447 18.5263 6.83417 18.3966 6.99378 18.3966H7.61365C8.59353 18.3966 9.39073 17.5995 9.39073 16.6196C9.39073 15.6398 8.59358 14.8426 7.61365 14.8426H7.025C6.83286 14.6983 6.57509 14.6093 6.29075 14.6093C5.69759 14.6093 5.2168 14.9939 5.2168 15.4683C5.2168 15.9382 5.68841 16.3194 6.27359 16.3268L6.27331 16.3302H7.61365C7.77326 16.3302 7.90297 16.46 7.90297 16.6195C7.90297 16.7791 7.77326 16.9088 7.61365 16.9088H6.99378C6.01391 16.9088 5.2168 17.706 5.2168 18.6858C5.2168 19.6656 6.01386 20.4628 6.99378 20.4628H9.39068V18.9751H6.99378C6.83417 18.9752 6.70447 18.8454 6.70447 18.6859Z" fill="#F0F0F0"/>
</g>
<defs>
<clipPath id="clip0_6346_28488">
<rect width="24" height="24" fill="white"/>
</clipPath>
</defs>
</svg>
