<svg width="24" height="24" viewBox="0 0 24 24" fill="none" xmlns="http://www.w3.org/2000/svg">
<g clip-path="url(#clip0_6346_28436)">
<path d="M12 24C18.6274 24 24 18.6274 24 12C24 5.37258 18.6274 0 12 0C5.37258 0 0 5.37258 0 12C0 18.6274 5.37258 24 12 24Z" fill="#F0F0F0"/>
<path d="M6.4847 16.696L3.51367 20.4852C5.68511 22.6569 8.68478 24.0003 11.9986 24.0003C16.9593 24.0003 21.2162 20.9896 23.0438 16.696H6.4847Z" fill="#FFDA44"/>
<path d="M23.0624 7.34841C21.2451 3.03164 16.9761 0.000610352 11.9986 0.000610352C8.68478 0.000610352 5.68511 1.344 3.51367 3.51572L6.51883 7.34841H23.0624Z" fill="#496E2D"/>
<path d="M2.60938 8.82593V15.1302H23.5873C23.8565 14.1322 24.0007 13.083 24.0007 11.9998C24.0007 10.901 23.8526 9.83693 23.5759 8.82593H2.60938Z" fill="black"/>
<path d="M3.51471 3.51428C-1.17157 8.20056 -1.17157 15.7986 3.51471 20.4849C5.45126 18.5484 7.31374 16.6859 12 11.9996L3.51471 3.51428Z" fill="#A2001D"/>
<path d="M4.85792 8.86945L5.63487 11.2608H8.14953L6.11525 12.7389L6.89216 15.1304L4.85792 13.6523L2.82359 15.1304L3.60069 12.7389L1.56641 11.2608H4.08087L4.85792 8.86945Z" fill="#FFDA44"/>
<path d="M7.13198 11.9992H2.58398V14.0862H7.13198V11.9992Z" fill="#F0F0F0"/>
<path d="M7.99155 9.60735L7.25369 8.86945L4.85612 11.267L2.45856 8.86945L1.7207 9.60735L4.12038 12.0028L1.7207 14.4025L2.45856 15.1304L4.85612 12.7371L7.25369 15.1304L7.99155 14.4025L5.59188 12.0028L7.99155 9.60735Z" fill="black"/>
</g>
<defs>
<clipPath id="clip0_6346_28436">
<rect width="24" height="24" fill="white"/>
</clipPath>
</defs>
</svg>
