<svg width="24" height="24" viewBox="0 0 24 24" fill="none" xmlns="http://www.w3.org/2000/svg">
<g clip-path="url(#clip0_6346_28363)">
<path d="M1.19072 6.7821C0.427875 8.35973 0 10.1296 0 11.9995C0 13.8694 0.427875 15.6392 1.19072 17.2169L12 18.2603L22.8093 17.2169C23.5721 15.6392 24 13.8694 24 11.9995C24 10.1296 23.5721 8.35973 22.8093 6.7821L12 5.73862L1.19072 6.7821Z" fill="#F0F0F0"/>
<path d="M1.19141 17.2183C3.13231 21.2323 7.24273 24.0009 12.0003 24.0009C16.7578 24.0009 20.8682 21.2323 22.8091 17.2183H1.19141Z" fill="#6DA544"/>
<path d="M1.19141 6.78235H22.8091C20.8682 2.7684 16.7577 -0.000274658 12.0003 -0.000274658C7.24278 -0.000274658 3.13231 2.7684 1.19141 6.78235Z" fill="#FF9811"/>
<path d="M12.0001 16.1742C14.3052 16.1742 16.174 14.3055 16.174 12.0003C16.174 9.6951 14.3052 7.82639 12.0001 7.82639C9.69489 7.82639 7.82617 9.6951 7.82617 12.0003C7.82617 14.3055 9.69489 16.1742 12.0001 16.1742Z" fill="#FF9811"/>
</g>
<defs>
<clipPath id="clip0_6346_28363">
<rect width="24" height="24" fill="white"/>
</clipPath>
</defs>
</svg>
