<svg width="24" height="24" viewBox="0 0 24 24" fill="none" xmlns="http://www.w3.org/2000/svg">
<g clip-path="url(#clip0_6346_28510)">
<path d="M17.2165 1.19047C15.6389 0.427631 13.869 -0.000244141 11.9991 -0.000244141C10.1292 -0.000244141 8.35939 0.427631 6.78176 1.19047L5.73828 11.9998L6.78176 22.809C8.35939 23.5719 10.1292 23.9998 11.9991 23.9998C13.869 23.9998 15.6389 23.5719 17.2165 22.809L18.26 11.9998L17.2165 1.19047Z" fill="#F0F0F0"/>
<path d="M6.78262 1.19128C2.76867 3.13219 0 7.24261 0 12.0001C0 16.7577 2.76867 20.8681 6.78262 22.809V1.19128Z" fill="#6DA544"/>
<path d="M17.2168 1.19128V22.809C21.2307 20.8681 23.9994 16.7576 23.9994 12.0001C23.9994 7.24266 21.2307 3.13219 17.2168 1.19128Z" fill="#6DA544"/>
<path d="M15.13 15.6517L11.9996 5.73865L8.86914 15.6517H11.217V18.2604H12.7822V15.6517H15.13Z" fill="#6DA544"/>
</g>
<defs>
<clipPath id="clip0_6346_28510">
<rect width="24" height="24" fill="white"/>
</clipPath>
</defs>
</svg>
