<svg width="24" height="24" viewBox="0 0 24 24" fill="none" xmlns="http://www.w3.org/2000/svg">
<g clip-path="url(#clip0_6346_28342)">
<path d="M12 24C18.6274 24 24 18.6274 24 12C24 5.37258 18.6274 0 12 0C5.37258 0 0 5.37258 0 12C0 18.6274 5.37258 24 12 24Z" fill="#F0F0F0"/>
<path d="M12.0007 -0.000183105C7.24316 -0.000183105 3.13241 2.76849 1.19141 6.78244H22.8099C20.869 2.76849 16.7582 -0.000183105 12.0007 -0.000183105Z" fill="#338AF3"/>
<path d="M12.0007 24.001C16.7582 24.001 20.869 21.2323 22.81 17.2184H1.19141C3.13241 21.2323 7.24316 24.001 12.0007 24.001Z" fill="#338AF3"/>
<path d="M11.9998 8.34772C9.9828 8.34772 8.34766 9.98286 8.34766 11.9999C8.34766 14.0169 9.9828 15.6521 11.9998 15.6521C14.0169 15.6521 15.652 14.0169 15.652 11.9999C15.652 9.98286 14.0169 8.34772 11.9998 8.34772ZM11.9998 14.0869C10.8473 14.0869 9.91286 13.1525 9.91286 11.9999C9.91286 10.8472 10.8472 9.91292 11.9998 9.91292C13.1524 9.91292 14.0868 10.8472 14.0868 11.9999C14.0868 13.1525 13.1524 14.0869 11.9998 14.0869Z" fill="#FFDA44"/>
<path d="M13.8071 12.5222L11.9997 12.0005L10.1923 12.5222L9.58984 13.5657H14.4095L13.8071 12.5222Z" fill="#0052B4"/>
<path d="M11.9998 9.39136L10.7949 11.4783L11.9998 12L13.2048 11.4783L11.9998 9.39136Z" fill="#338AF3"/>
<path d="M10.1914 12.5211H13.8062L13.2037 11.4777H10.7939L10.1914 12.5211Z" fill="#6DA544"/>
</g>
<defs>
<clipPath id="clip0_6346_28342">
<rect width="24" height="24" fill="white"/>
</clipPath>
</defs>
</svg>
