<svg width="24" height="24" viewBox="0 0 24 24" fill="none" xmlns="http://www.w3.org/2000/svg">
<g clip-path="url(#clip0_6346_28331)">
<path d="M12 24C18.6274 24 24 18.6274 24 12C24 5.37258 18.6274 0 12 0C5.37258 0 0 5.37258 0 12C0 18.6274 5.37258 24 12 24Z" fill="#F0F0F0"/>
<path d="M0.414062 15.131C1.10838 17.7072 2.63861 19.94 4.69633 21.5211V15.131H0.414062Z" fill="#D80027"/>
<path d="M10.957 23.9549C11.301 23.9845 11.6489 24.0005 12.0005 24.0005C17.5448 24.0005 22.2101 20.2402 23.5871 15.131H10.957V23.9549Z" fill="#D80027"/>
<path d="M23.5871 8.87004C22.2101 3.76085 17.5448 0.000488281 12.0005 0.000488281C11.6489 0.000488281 11.301 0.0165195 10.957 0.0461445V8.87004H23.5871Z" fill="#D80027"/>
<path d="M4.69633 2.48022C2.63861 4.06132 1.10838 6.29412 0.414062 8.87032H4.69633V2.48022Z" fill="#D80027"/>
<path d="M23.8984 10.4344H9.39136H9.39131V0.28479C8.28234 0.530696 7.23098 0.929274 6.26086 1.45863V10.4343V10.4343H0.101578C0.0347813 10.9467 0 11.4691 0 11.9996C0 12.53 0.0347813 13.0524 0.101578 13.5648H6.26081H6.26086V22.5404C7.23098 23.0697 8.28234 23.4684 9.39131 23.7143V13.5649V13.5648H23.8984C23.9651 13.0524 24 12.53 24 11.9996C24 11.4691 23.9651 10.9467 23.8984 10.4344Z" fill="#0052B4"/>
</g>
<defs>
<clipPath id="clip0_6346_28331">
<rect width="24" height="24" fill="white"/>
</clipPath>
</defs>
</svg>
