<svg width="24" height="24" viewBox="0 0 24 24" fill="none" xmlns="http://www.w3.org/2000/svg">
<g clip-path="url(#clip0_6346_28475)">
<path d="M12 24C18.6274 24 24 18.6274 24 12C24 5.37258 18.6274 0 12 0C5.37258 0 0 5.37258 0 12C0 18.6274 5.37258 24 12 24Z" fill="#F0F0F0"/>
<path d="M1.45898 6.26162H22.5408C20.5056 2.5315 16.5484 0.000762939 11.9999 0.000762939C7.45139 0.000762939 3.49425 2.5315 1.45898 6.26162Z" fill="#D80027"/>
<path d="M11.9999 23.9999C16.5484 23.9999 20.5056 21.4691 22.5408 17.739H1.45898C3.49425 21.4691 7.45139 23.9999 11.9999 23.9999Z" fill="#D80027"/>
<path d="M16.174 11.9997C16.174 14.3049 14.3052 15.6518 12.0001 15.6518C9.69489 15.6518 7.82617 14.3049 7.82617 11.9997C7.82617 9.69445 9.69489 7.82578 12.0001 7.82578C14.3052 7.82578 16.174 9.69445 16.174 11.9997Z" fill="#FFDA44"/>
<path d="M16.174 11.9998C16.174 14.305 14.3052 16.1737 12.0001 16.1737C9.69489 16.1737 7.82617 14.305 7.82617 11.9998" fill="#0052B4"/>
<path d="M10.4361 10.956H9.39258V13.043H10.4361V10.956Z" fill="#D80027"/>
<path d="M14.6099 10.956H13.5664V13.043H14.6099V10.956Z" fill="#D80027"/>
<path d="M12.522 9.39093H11.4785V13.0431H12.522V9.39093Z" fill="#D80027"/>
</g>
<defs>
<clipPath id="clip0_6346_28475">
<rect width="24" height="24" fill="white"/>
</clipPath>
</defs>
</svg>
