<svg width="24" height="24" viewBox="0 0 24 24" fill="none" xmlns="http://www.w3.org/2000/svg">
<g clip-path="url(#clip0_6346_28389)">
<path d="M12 24C18.6274 24 24 18.6274 24 12C24 5.37258 18.6274 0 12 0C5.37258 0 0 5.37258 0 12C0 18.6274 5.37258 24 12 24Z" fill="#F0F0F0"/>
<path d="M12.0009 0V12L3.51562 20.4853C5.6872 22.6568 8.6872 24 12.0009 24C18.6283 24 24.0009 18.6274 24.0009 12C24.0009 5.37262 12.0009 0 12.0009 0Z" fill="#D80027"/>
<path d="M12.0009 0C8.6872 0 5.6872 1.34316 3.51562 3.51469C6.45984 6.45891 7.50501 7.50412 12.0009 12H24.0009C24.0009 5.37262 18.6283 0 12.0009 0Z" fill="#0052B4"/>
<path d="M8.2182 11.9998L6.7527 11.3104L7.53312 9.89111L5.94172 10.1956L5.74006 8.58789L4.63156 9.77027L3.52311 8.58789L3.32141 10.1956L1.73005 9.89106L2.51047 11.3104L1.04492 11.9998L2.51047 12.6891L1.73005 14.1085L3.32155 13.8041L3.52306 15.4117L4.63156 14.2293L5.74006 15.4117L5.94172 13.8041L7.53303 14.1085L6.75266 12.6892L8.2182 11.9998Z" fill="#FFDA44"/>
<path d="M3.2018 4.69519L3.68948 5.37689L4.48847 5.12382L3.99075 5.79825L4.47844 6.47996L3.68316 6.21507L3.18548 6.88946L3.19172 6.05133L2.39648 5.78639L3.19561 5.53332L3.2018 4.69519Z" fill="#FFDA44"/>
<path d="M3.2018 17.1095L3.68948 17.7912L4.48847 17.5381L3.99075 18.2126L4.47844 18.8943L3.68316 18.6294L3.18548 19.3038L3.19172 18.4656L2.39648 18.2007L3.19561 17.9476L3.2018 17.1095Z" fill="#FFDA44"/>
<path d="M10.1578 10.9032L9.67013 11.5849L8.87109 11.3317L9.36881 12.0062L8.88113 12.688L9.67641 12.423L10.1741 13.0974L10.1678 12.2593L10.9631 11.9944L10.164 11.7413L10.1578 10.9032Z" fill="#FFDA44"/>
</g>
<defs>
<clipPath id="clip0_6346_28389">
<rect width="24" height="24" fill="white"/>
</clipPath>
</defs>
</svg>
