<svg width="24" height="24" viewBox="0 0 24 24" fill="none" xmlns="http://www.w3.org/2000/svg">
<g clip-path="url(#clip0_6346_28329)">
<path d="M12 24C18.6274 24 24 18.6274 24 12C24 5.37258 18.6274 0 12 0C5.37258 0 0 5.37258 0 12C0 18.6274 5.37258 24 12 24Z" fill="#F0F0F0"/>
<path d="M0 12.0002C0 16.5487 2.53074 20.5058 6.26086 22.5411V1.45923C2.53074 3.49449 0 7.45163 0 12.0002Z" fill="#F0F0F0"/>
<path d="M11.9989 0.000854492C9.92 0.000854492 7.96466 0.529745 6.25977 1.45993V22.5417C7.96466 23.472 9.92 24.0009 11.9989 24.0009C18.6263 24.0009 23.9989 18.6282 23.9989 12.0009C23.9989 5.37348 18.6263 0.000854492 11.9989 0.000854492Z" fill="#496E2D"/>
<path d="M17.1317 13.9861C15.6135 15.083 13.4936 14.7415 12.3967 13.2234C11.2997 11.7053 11.6412 9.58533 13.1593 8.48846C13.6327 8.14646 14.1645 7.94428 14.7056 7.87402C13.6647 7.71835 12.5643 7.95291 11.6438 8.61802C9.77534 9.96811 9.35501 12.5772 10.7051 14.4458C12.0551 16.3142 14.6643 16.7345 16.5328 15.3843C17.4534 14.7192 18.0216 13.7483 18.2005 12.711C17.964 13.2025 17.6051 13.644 17.1317 13.9861Z" fill="#F0F0F0"/>
<path d="M17.0669 7.82727L17.9221 8.74888L19.0628 8.2205L18.4505 9.3185L19.3056 10.2402L18.0721 9.99716L17.4598 11.0953L17.3097 9.84697L16.0762 9.60392L17.217 9.07555L17.0669 7.82727Z" fill="#F0F0F0"/>
</g>
<defs>
<clipPath id="clip0_6346_28329">
<rect width="24" height="24" fill="white"/>
</clipPath>
</defs>
</svg>
