<svg width="24" height="24" viewBox="0 0 24 24" fill="none" xmlns="http://www.w3.org/2000/svg">
<g clip-path="url(#clip0_6346_28321)">
<path d="M24 12C24 18.6274 18.6274 24 12 24C5.37262 24 0 18.6274 0 12C0 12.0029 12 0.0013125 12 0C18.6274 0 24 5.37262 24 12Z" fill="#0052B4"/>
<path d="M11.9688 12.0007H12.0009C12.0009 11.9899 12.0009 11.9794 12.0009 11.9685C11.9902 11.9793 11.9795 11.99 11.9688 12.0007Z" fill="#F0F0F0"/>
<path d="M12 6.26104C12 4.14956 12 2.76604 12 0.000183105H11.998C5.37145 0.00130811 0 5.37342 0 12.0002H6.26086V8.47467L9.78637 12.0002H11.9679C11.9786 11.9895 11.9893 11.9788 12 11.9681C12 11.1596 12 10.4383 12 9.78665L8.47443 6.26104H12Z" fill="#F0F0F0"/>
<path d="M6.07222 1.565C4.19539 2.63371 2.63506 4.19399 1.56641 6.07082V11.9998H4.69686V4.69555V4.69546H12.0012C12.0012 3.70813 12.0012 2.76753 12.0012 1.565H6.07222Z" fill="#D80027"/>
<path d="M12.0009 10.5247L7.73734 6.26129H6.26172V6.26139L12.0008 12.0004H12.0009C12.0009 12.0004 12.0009 10.9829 12.0009 10.5247Z" fill="#D80027"/>
<path d="M18.783 7.30388L17.2178 7.82564L15.6526 7.30388L15.1309 5.99953L15.6526 4.69519H18.783L18.2613 5.99953L18.783 7.30388Z" fill="#ACABB1"/>
<path d="M13.5645 7.30389V13.043C13.5645 15.8386 17.2166 16.6952 17.2166 16.6952C17.2166 16.6952 20.8688 15.8386 20.8688 13.043V7.30389H13.5645Z" fill="#338AF3"/>
<path d="M13.8945 14.4023C14.7923 16.1258 17.2175 16.6948 17.2175 16.6948C17.2175 16.6948 19.6427 16.1258 20.5405 14.4023L17.2175 8.86877L13.8945 14.4023Z" fill="#6DA544"/>
<path d="M20.8688 12.985L17.2166 7.30389L13.5645 12.985V13.043C13.5645 13.5604 13.6898 14.0112 13.8937 14.4026L17.2166 9.2335L20.5396 14.4026C20.7435 14.0111 20.8688 13.5603 20.8688 13.0429V12.985Z" fill="#FFDA44"/>
</g>
<defs>
<clipPath id="clip0_6346_28321">
<rect width="24" height="24" fill="white"/>
</clipPath>
</defs>
</svg>
