<svg width="24" height="24" viewBox="0 0 24 24" fill="none" xmlns="http://www.w3.org/2000/svg">
<g clip-path="url(#clip0_6346_28457)">
<path d="M0 12.0007C0 17.1602 3.2565 21.5587 7.82602 23.2542L8.86955 12.0006L7.82602 0.74707C3.2565 2.44263 0 6.8411 0 12.0007Z" fill="#6DA544"/>
<path d="M24.0002 11.9999C24.0002 5.37256 18.6275 -6.10352e-05 12.0002 -6.10352e-05C10.5323 -6.10352e-05 9.1262 0.263986 7.82617 0.74633V23.2535C9.1262 23.7359 10.5323 23.9999 12.0002 23.9999C18.6275 23.9999 24.0002 18.6273 24.0002 11.9999Z" fill="#D80027"/>
<path d="M7.82623 16.1745C10.1314 16.1745 12.0001 14.3058 12.0001 12.0006C12.0001 9.69544 10.1314 7.82672 7.82623 7.82672C5.52106 7.82672 3.65234 9.69544 3.65234 12.0006C3.65234 14.3058 5.52106 16.1745 7.82623 16.1745Z" fill="#FFDA44"/>
<path d="M5.47852 9.9126V12.5213C5.47852 13.8179 6.52964 14.8691 7.82635 14.8691C9.12305 14.8691 10.1742 13.818 10.1742 12.5213V9.9126H5.47852Z" fill="#D80027"/>
<path d="M7.82559 13.3038C7.39406 13.3038 7.04297 12.9527 7.04297 12.5212V11.4777H8.60817V12.5212C8.60817 12.9527 8.25708 13.3038 7.82559 13.3038Z" fill="#F0F0F0"/>
</g>
<defs>
<clipPath id="clip0_6346_28457">
<rect width="24" height="24" fill="white"/>
</clipPath>
</defs>
</svg>
