<svg width="24" height="24" viewBox="0 0 24 24" fill="none" xmlns="http://www.w3.org/2000/svg">
<g clip-path="url(#clip0_6346_28502)">
<path d="M12 24C18.6274 24 24 18.6274 24 12C24 5.37258 18.6274 0 12 0C5.37258 0 0 5.37258 0 12C0 18.6274 5.37258 24 12 24Z" fill="#F0F0F0"/>
<path d="M23.9997 11.9999C23.9997 5.37256 18.627 -6.10352e-05 11.9997 -6.10352e-05C9.65216 -6.10352e-05 7.46244 0.674705 5.61284 1.83983L8.24314 2.95738L4.69531 4.46478L8.24314 5.97214L4.69531 7.47945L8.24314 8.98672L4.69531 10.4938L8.24314 12.0008L4.69531 13.5081L8.24314 15.0153L4.69531 16.5224L8.24314 18.0296L4.69531 19.5369L8.24314 21.044L5.61402 22.1609C7.46338 23.3255 9.65263 23.9999 11.9997 23.9999C18.627 23.9999 23.9997 18.6273 23.9997 11.9999Z" fill="#751A46"/>
</g>
<defs>
<clipPath id="clip0_6346_28502">
<rect width="24" height="24" fill="white"/>
</clipPath>
</defs>
</svg>
