<svg width="24" height="24" viewBox="0 0 24 24" fill="none" xmlns="http://www.w3.org/2000/svg">
<g clip-path="url(#clip0_6346_28422)">
<path d="M0 11.999C0 14.0779 0.528891 16.0333 1.45908 17.7382L12 18.7816L22.5409 17.7382C23.4711 16.0333 24 14.0779 24 11.999L12 10.9555L0 11.999Z" fill="#FFDA44"/>
<path d="M22.5409 6.26086C20.5057 2.53073 16.5485 0 12 0C7.45148 0 3.49434 2.53073 1.45908 6.26086C0.528891 7.96575 0 9.92109 0 12H24C24 9.92109 23.4711 7.96575 22.5409 6.26086Z" fill="#338AF3"/>
<path d="M11.9999 23.9991C16.5484 23.9991 20.5056 21.4684 22.5408 17.7383H1.45898C3.49425 21.4684 7.45139 23.9991 11.9999 23.9991Z" fill="#496E2D"/>
<path d="M13.5645 7.02247L15.03 7.71186L14.2496 9.13123L15.841 8.82683L16.0427 10.4344L17.1511 9.25203L18.2596 10.4344L18.4612 8.82683L20.0526 9.13114L19.2722 7.71181L20.7377 7.02247L19.2722 6.33317L20.0526 4.9138L18.4612 5.2182L18.2595 3.61063L17.1511 4.793L16.0426 3.61063L15.841 5.2182L14.2496 4.9138L15.03 6.33322L13.5645 7.02247Z" fill="#FFDA44"/>
</g>
<defs>
<clipPath id="clip0_6346_28422">
<rect width="24" height="24" fill="white"/>
</clipPath>
</defs>
</svg>
