<svg width="24" height="24" viewBox="0 0 24 24" fill="none" xmlns="http://www.w3.org/2000/svg">
<g clip-path="url(#clip0_6346_28391)">
<path d="M12 24C18.6274 24 24 18.6274 24 12C24 5.37258 18.6274 0 12 0C5.37258 0 0 5.37258 0 12C0 18.6274 5.37258 24 12 24Z" fill="#6DA544"/>
<path d="M6.78125 14.3477C6.78125 15.2121 7.48203 15.9129 8.34645 15.9129H13.0421C13.0421 16.6332 13.6261 17.2172 14.3465 17.2172H15.9117C16.632 17.2172 17.216 16.6332 17.216 15.9129V14.3477H6.78125Z" fill="#F0F0F0"/>
<path d="M17.3462 6.78308V10.4352C17.3462 11.0106 16.8781 11.4787 16.3027 11.4787V13.0439C17.7412 13.0439 18.9114 11.8737 18.9114 10.4352V6.78308H17.3462Z" fill="#F0F0F0"/>
<path d="M6.12942 10.435C6.12942 11.0104 5.66133 11.4785 5.08594 11.4785V13.0437C6.52439 13.0437 7.69462 11.8734 7.69462 10.435V6.78284H6.12942V10.435Z" fill="#F0F0F0"/>
<path d="M16.5652 6.78308H15V10.4353H16.5652V6.78308Z" fill="#F0F0F0"/>
<path d="M12.6505 8.87005C12.6505 9.01391 12.5334 9.13091 12.3896 9.13091C12.2458 9.13091 12.1287 9.01386 12.1287 8.87005V6.78308H10.5635V8.87005C10.5635 9.01391 10.4465 9.13091 10.3027 9.13091C10.1589 9.13091 10.0418 9.01386 10.0418 8.87005V6.78308H8.47656V8.87005C8.47656 9.87697 9.29575 10.6962 10.3027 10.6962C10.6905 10.6962 11.0501 10.5743 11.3462 10.3673C11.6422 10.5742 12.0019 10.6962 12.3896 10.6962C12.4677 10.6962 12.5445 10.6907 12.62 10.6811C12.5091 11.138 12.0976 11.4787 11.607 11.4787V13.0439C13.0455 13.0439 14.2157 11.8737 14.2157 10.4353V8.87005V6.78308H12.6505V8.87005H12.6505Z" fill="#F0F0F0"/>
<path d="M10.8244 11.4781H8.47656V13.0433H10.8244V11.4781Z" fill="#F0F0F0"/>
</g>
<defs>
<clipPath id="clip0_6346_28391">
<rect width="24" height="24" fill="white"/>
</clipPath>
</defs>
</svg>
