<svg width="24" height="24" viewBox="0 0 24 24" fill="none" xmlns="http://www.w3.org/2000/svg">
<g clip-path="url(#clip0_6346_28484)">
<path d="M12 24C18.6274 24 24 18.6274 24 12C24 5.37258 18.6274 0 12 0C5.37258 0 0 5.37258 0 12C0 18.6274 5.37258 24 12 24Z" fill="#F0F0F0"/>
<path d="M20.0996 3.14644C17.9649 1.19212 15.1214 -0.000610352 11.9992 -0.000610352C11.488 -0.000610352 10.9844 0.0315928 10.49 0.0936084L4.69483 6.78201L0.378906 15.0055C0.657719 16.0865 1.084 17.1081 1.63398 18.0485L11.9992 11.9994L20.0996 3.14644Z" fill="#FFDA44"/>
<path d="M21.9903 18.6479L5.20117 21.8879C7.13378 23.2192 9.47556 23.9993 11.9998 23.9993C16.168 23.9993 19.8392 21.8738 21.9903 18.6479Z" fill="#6DA544"/>
<path d="M20.103 3.14819L1.64258 18.0603C2.12544 18.8838 2.70355 19.6446 3.362 20.3276L24.0009 11.9996C24.0009 8.49522 22.4985 5.34204 20.103 3.14819Z" fill="#D80027"/>
<path d="M0 12C0 13.0382 0.131906 14.0455 0.379734 15.0062L10.4909 0.0942383C4.57584 0.836457 0 5.88377 0 12Z" fill="#0052B4"/>
</g>
<defs>
<clipPath id="clip0_6346_28484">
<rect width="24" height="24" fill="white"/>
</clipPath>
</defs>
</svg>
