<svg width="24" height="24" viewBox="0 0 24 24" fill="none" xmlns="http://www.w3.org/2000/svg">
<g clip-path="url(#clip0_6346_28307)">
<path d="M12 24C18.6274 24 24 18.6274 24 12C24 5.37258 18.6274 0 12 0C5.37258 0 0 5.37258 0 12C0 18.6274 5.37258 24 12 24Z" fill="#F0F0F0"/>
<path d="M12 23.9996C18.6274 23.9996 24 18.627 24 11.9996C24 10.5318 23.736 9.12568 23.2536 7.82574H0.746391C0.264047 9.12568 0 10.5318 0 11.9996C0 18.627 5.37262 23.9996 12 23.9996Z" fill="#0052B4"/>
<path d="M11.9997 23.9996C17.1593 23.9996 21.5578 20.7431 23.2533 16.1735H0.746094C2.44161 20.7431 6.84012 23.9996 11.9997 23.9996Z" fill="#D80027"/>
<path d="M3.10352 6.78192V12.7681C3.10352 16.1733 7.552 17.2167 7.552 17.2167C7.552 17.2167 12.0004 16.1733 12.0004 12.7681V6.78192H3.10352Z" fill="#F0F0F0"/>
<path d="M4.14648 6.78192V12.7681C4.14648 13.1679 4.23527 13.5454 4.41114 13.8994C6.15648 13.8994 8.76517 13.8994 10.6918 13.8994C10.8677 13.5455 10.9564 13.1679 10.9564 12.7681V6.78192H4.14648Z" fill="#D80027"/>
<path d="M9.63874 10.9562H8.07358V9.91267H9.11707V8.86918H8.07358V7.82574H7.03009V8.86918H5.98666V9.91267H7.03009V10.9562H5.46484V11.9996H7.03009V13.0431H8.07358V11.9996H9.63874V10.9562Z" fill="#F0F0F0"/>
<path d="M5.83342 15.3573C6.50584 15.7799 7.19669 16.0252 7.55036 16.1343C7.90403 16.0253 8.59488 15.7799 9.2673 15.3573C9.94539 14.9311 10.4208 14.4437 10.6907 13.9007C10.393 13.69 10.0297 13.5658 9.63733 13.5658C9.49445 13.5658 9.35566 13.5827 9.2222 13.6138C8.93941 12.9713 8.29745 12.5223 7.55041 12.5223C6.80336 12.5223 6.16136 12.9713 5.87861 13.6138C5.74516 13.5827 5.60631 13.5658 5.46348 13.5658C5.07109 13.5658 4.70786 13.69 4.41016 13.9007C4.67992 14.4437 5.15528 14.9311 5.83342 15.3573Z" fill="#0052B4"/>
</g>
<defs>
<clipPath id="clip0_6346_28307">
<rect width="24" height="24" fill="white"/>
</clipPath>
</defs>
</svg>
