<svg width="24" height="24" viewBox="0 0 24 24" fill="none" xmlns="http://www.w3.org/2000/svg">
<g clip-path="url(#clip0_6346_28312)">
<path d="M24 11.9997C24 18.627 18.6274 23.9997 12 23.9997C5.37262 23.9997 0 18.627 0 11.9997C0.521719 11.9997 12 10.4344 12 10.4344L24 11.9997Z" fill="#338AF3"/>
<path d="M0 12C0 5.37262 5.37262 0 12 0C18.6274 0 24 5.37262 24 12" fill="#F0F0F0"/>
<path d="M16.7641 8.28088L12.0008 13.0442L7.23756 8.28088C6.62158 9.19527 6.26172 10.2959 6.26172 11.4789V13.0441C6.26172 15.5574 7.8857 17.6983 10.1393 18.4732C9.83851 19.0627 9.88923 19.7984 10.33 20.3485C10.9154 19.8793 11.5214 19.3936 12.0355 18.9817C12.5497 19.3937 13.1558 19.8794 13.7411 20.3485C14.187 19.792 14.2341 19.0453 13.9214 18.4523C16.1442 17.6606 17.7399 15.5354 17.7399 13.0441V11.479C17.7399 10.2959 17.38 9.19532 16.7641 8.28088Z" fill="#6DA544"/>
<path d="M12.0001 17.2176C9.69855 17.2176 7.82617 15.3451 7.82617 13.0437V11.4785C7.82617 9.17694 9.69859 7.30457 12.0001 7.30457C14.3015 7.30457 16.174 9.17699 16.174 11.4785V13.0437C16.174 15.3451 14.3016 17.2176 12.0001 17.2176Z" fill="#FFDA44"/>
<path d="M14.608 13.0433V11.4781C14.608 10.0396 13.4377 8.86938 11.9993 8.86938C10.5609 8.86938 9.39062 10.0397 9.39062 11.4781V13.0433L11.9993 13.565L14.608 13.0433Z" fill="#338AF3"/>
<path d="M9.39062 13.0432C9.39062 14.4817 10.5609 15.6519 11.9993 15.6519C13.4377 15.6519 14.608 14.4816 14.608 13.0432H9.39062Z" fill="#6DA544"/>
<path d="M15.13 7.30391C15.13 6.43948 14.4292 5.7387 13.5648 5.7387C13.1638 5.7387 12.7983 5.88964 12.5213 6.13756V5.21694H13.043V4.17345H12.5213V3.65173H11.4778V4.17345H10.9561V5.21694H11.4778V6.13756C11.2008 5.88964 10.8353 5.7387 10.4343 5.7387C9.56992 5.7387 8.86914 6.43948 8.86914 7.30391C8.86914 7.76736 9.07075 8.18361 9.39086 8.47025V9.39088H14.6082V8.47025C14.9284 8.18361 15.13 7.76736 15.13 7.30391Z" fill="#FFDA44"/>
</g>
<defs>
<clipPath id="clip0_6346_28312">
<rect width="24" height="24" fill="white"/>
</clipPath>
</defs>
</svg>
