<svg width="24" height="24" viewBox="0 0 24 24" fill="none" xmlns="http://www.w3.org/2000/svg">
<g clip-path="url(#clip0_6346_28356)">
<path d="M17.2165 1.19084C15.6389 0.427997 13.869 0.00012207 11.9991 0.00012207C10.1293 0.00012207 8.35939 0.427997 6.78177 1.19084L5.73828 12.0001L6.78177 22.8094C8.35939 23.5722 10.1293 24.0001 11.9991 24.0001C13.869 24.0001 15.6389 23.5722 17.2165 22.8094L18.26 12.0001L17.2165 1.19084Z" fill="#FFDA44"/>
<path d="M12 7.82605L13.0359 11.0145H16.3888L13.6764 12.9853L14.7124 16.1738L12 14.2032L9.28753 16.1738L10.3237 12.9853L7.61133 11.0145H10.964L12 7.82605Z" fill="#496E2D"/>
<path d="M6.78262 1.1908C2.76872 3.13175 0 7.24217 0 11.9997C0 16.7571 2.76872 20.8676 6.78262 22.8085V1.1908Z" fill="#496E2D"/>
<path d="M17.2168 1.19141V22.8091C21.2307 20.8682 23.9994 16.7578 23.9994 12.0003C23.9994 7.24278 21.2307 3.13236 17.2168 1.19141Z" fill="#D80027"/>
</g>
<defs>
<clipPath id="clip0_6346_28356">
<rect width="24" height="24" fill="white"/>
</clipPath>
</defs>
</svg>
