<svg width="24" height="24" viewBox="0 0 24 24" fill="none" xmlns="http://www.w3.org/2000/svg">
<g clip-path="url(#clip0_6346_28293)">
<path d="M12 24C18.6274 24 24 18.6274 24 12C24 5.37258 18.6274 0 12 0C5.37258 0 0 5.37258 0 12C0 18.6274 5.37258 24 12 24Z" fill="#F0F0F0"/>
<path d="M23.2536 7.82678H0.746344C0.264047 9.12681 0 10.5328 0 12.0007C0 13.4685 0.264047 14.8746 0.746344 16.1746H23.2536C23.736 14.8746 24 13.4685 24 12.0007C24 10.5328 23.736 9.12681 23.2536 7.82678Z" fill="#A2001D"/>
<path d="M12.0345 24.0012C16.1446 24.0012 19.7716 21.9344 21.9343 18.7838H2.13477C4.29748 21.9344 7.92439 24.0012 12.0345 24.0012Z" fill="#6DA544"/>
<path d="M12.0345 0.000244141C16.1446 0.000244141 19.7716 2.06706 21.9343 5.21762H2.13477C4.29748 2.06706 7.92439 0.000244141 12.0345 0.000244141Z" fill="#6DA544"/>
<path d="M12 7.82678L13.036 11.0152H16.3888L13.6764 12.986L14.7125 16.1746L12 14.204L9.28763 16.1746L10.3238 12.986L7.61133 11.0152H10.9641L12 7.82678Z" fill="#FFDA44"/>
</g>
<defs>
<clipPath id="clip0_6346_28293">
<rect width="24" height="24" fill="white"/>
</clipPath>
</defs>
</svg>
