<svg width="24" height="24" viewBox="0 0 24 24" fill="none" xmlns="http://www.w3.org/2000/svg">
<g clip-path="url(#clip0_6346_28487)">
<path d="M12 24C18.6274 24 24 18.6274 24 12C24 5.37258 18.6274 0 12 0C5.37258 0 0 5.37258 0 12C0 18.6274 5.37258 24 12 24Z" fill="#F0F0F0"/>
<path d="M23.0644 7.347C21.2471 3.03024 16.9781 -0.000793457 12.0005 -0.000793457C8.68674 -0.000793457 5.68706 1.3426 3.51562 3.51432L6.52078 7.347H23.0644Z" fill="black"/>
<path d="M6.55486 16.6075L3.51562 20.4837C5.68706 22.6554 8.68674 23.9988 12.0005 23.9988C16.9949 23.9988 21.276 20.9475 23.0829 16.6075H6.55486Z" fill="#496E2D"/>
<path d="M2.60938 8.82605V15.1304H23.5873C23.8565 14.1323 24.0007 13.0831 24.0007 12C24.0007 10.9011 23.8526 9.83705 23.5759 8.82605H2.60938Z" fill="#A2001D"/>
<path d="M3.51471 3.51459C-1.17157 8.20087 -1.17157 15.7989 3.51471 20.4852C5.45126 18.5487 7.31375 16.6862 12 11.9999L3.51471 3.51459Z" fill="#0052B4"/>
<path d="M3.90889 9.01648L5.3735 11.0603L7.77013 10.2988L6.27899 12.3235L7.7436 14.3674L5.35728 13.5748L3.8661 15.5995L3.8825 13.085L1.49609 12.2923L3.89253 11.5309L3.90889 9.01648Z" fill="#FFDA44"/>
</g>
<defs>
<clipPath id="clip0_6346_28487">
<rect width="24" height="24" fill="white"/>
</clipPath>
</defs>
</svg>
