<svg width="24" height="24" viewBox="0 0 24 24" fill="none" xmlns="http://www.w3.org/2000/svg">
<g clip-path="url(#clip0_6346_28314)">
<path d="M12 24C18.6274 24 24 18.6274 24 12C24 5.37258 18.6274 0 12 0C5.37258 0 0 5.37258 0 12C0 18.6274 5.37258 24 12 24Z" fill="#F0F0F0"/>
<path d="M12.0007 -0.000976562C7.24316 -0.000976562 3.13241 2.7677 1.19141 6.78165H22.8099C20.869 2.7677 16.7582 -0.000976562 12.0007 -0.000976562Z" fill="#0052B4"/>
<path d="M12.0007 23.9988C16.7582 23.9988 20.869 21.2301 22.81 17.2162H1.19141C3.13241 21.2301 7.24316 23.9988 12.0007 23.9988Z" fill="#0052B4"/>
<path d="M9.58984 12.5224L11.9997 8.34851L14.4095 12.5224H9.58984Z" fill="#FFDA44"/>
<path d="M15.13 13.8997L11.9996 15.4649L8.86914 13.8997V11.8127H15.13V13.8997Z" fill="#6DA544"/>
<path d="M14.9514 8.52722L13.8446 9.63399C14.3167 10.1061 14.6088 10.7582 14.6088 11.4786C14.6088 12.9194 13.4408 14.0873 12.0001 14.0873C10.5594 14.0873 9.39138 12.9193 9.39138 11.4786C9.39138 10.7582 9.68341 10.1061 10.1555 9.63399L9.04872 8.52722C8.29333 9.28247 7.82617 10.326 7.82617 11.4786C7.82617 13.7838 9.69489 15.6525 12.0001 15.6525C14.3052 15.6525 16.174 13.7838 16.174 11.4786C16.1739 10.326 15.7068 9.28247 14.9514 8.52722Z" fill="#FFDA44"/>
</g>
<defs>
<clipPath id="clip0_6346_28314">
<rect width="24" height="24" fill="white"/>
</clipPath>
</defs>
</svg>
