<svg width="24" height="24" viewBox="0 0 24 24" fill="none" xmlns="http://www.w3.org/2000/svg">
<g clip-path="url(#clip0_6346_28303)">
<path d="M10.9555 13.0426C10.9555 13.0426 3.5207 3.51219 3.51367 3.51388C5.6852 1.3423 8.68525 -0.000854492 11.999 -0.000854492C18.6264 -0.000854492 23.999 5.37177 23.999 11.9991L10.9555 13.0426Z" fill="#D80027"/>
<path d="M10.9555 11.9995C10.9555 11.9995 3.5207 20.4865 3.51367 20.4848C5.6852 22.6563 8.68525 23.9995 11.999 23.9995C18.6264 23.9995 23.999 18.6269 23.999 11.9995H10.9555Z" fill="#0052B4"/>
<path d="M3.51471 3.51465C-1.17157 8.20093 -1.17157 15.7989 3.51471 20.4853C5.45126 18.5487 7.31375 16.6862 12 12L3.51471 3.51465Z" fill="#F0F0F0"/>
<path d="M1.3157 11.9995C1.30914 12.0857 1.30469 12.1725 1.30469 12.2603C1.30469 14.1333 2.82306 15.6516 4.696 15.6516C6.56894 15.6516 8.08731 14.1333 8.08731 12.2603C8.08731 12.1725 8.08286 12.0856 8.0763 11.9995H1.3157Z" fill="#FFDA44"/>
<path d="M4.69583 10.4338C5.27213 10.4338 5.73931 9.96659 5.73931 9.39029C5.73931 8.81399 5.27213 8.3468 4.69583 8.3468C4.11953 8.3468 3.65234 8.81399 3.65234 9.39029C3.65234 9.96659 4.11953 10.4338 4.69583 10.4338Z" fill="#FFDA44"/>
<path d="M2.34766 9.13025V12.5216C2.34766 14.3187 4.69548 14.8694 4.69548 14.8694C4.69548 14.8694 7.04331 14.3187 7.04331 12.5216V9.13025H2.34766Z" fill="#D80027"/>
<path d="M4.69614 13.7777C4.26058 13.6209 3.39062 13.2203 3.39062 12.5219V10.1741H5.99936V12.5219C5.99936 13.2226 5.1295 13.6222 4.69614 13.7777Z" fill="#338AF3"/>
<path d="M5.21841 11.4777V10.9559L4.69669 10.6951L4.17492 10.9559V11.4777L3.91406 11.7386V12.782H5.47931V11.7386L5.21841 11.4777Z" fill="#F3F3F3"/>
</g>
<defs>
<clipPath id="clip0_6346_28303">
<rect width="24" height="24" fill="white"/>
</clipPath>
</defs>
</svg>
