<svg width="24" height="24" viewBox="0 0 24 24" fill="none" xmlns="http://www.w3.org/2000/svg">
<g clip-path="url(#clip0_6346_28286)">
<path d="M24 12C24 18.6274 18.6274 24 12 24C5.37262 24 0 18.6274 0 12C0 12.0029 12 0.0013125 12 0C18.6274 0 24 5.37262 24 12Z" fill="#0052B4"/>
<path d="M11.9688 11.9996H12.0009C12.0009 11.9888 12.0009 11.9783 12.0009 11.9674C11.9902 11.9782 11.9795 11.9889 11.9688 11.9996Z" fill="#F0F0F0"/>
<path d="M12 6.26116C12 4.14968 12 2.76616 12 0.000305176H11.998C5.37145 0.00143018 0 5.37354 0 12.0003H6.26086V8.47479L9.78638 12.0003H11.9679C11.9786 11.9896 11.9893 11.9789 12 11.9682C12 11.1597 12 10.4384 12 9.78677L8.47444 6.26116H12Z" fill="#F0F0F0"/>
<path d="M6.07027 1.56537C4.19344 2.63407 2.63311 4.19435 1.56445 6.07118V12.0002H4.69491V4.69592V4.69582H11.9993C11.9993 3.70849 11.9993 2.7679 11.9993 1.56537H6.07027Z" fill="#D80027"/>
<path d="M11.9989 10.524L7.73539 6.26062H6.25977V6.26071L11.9988 11.9997H11.9989C11.9989 11.9997 11.9989 10.9822 11.9989 10.524Z" fill="#D80027"/>
<path d="M13.5645 6.26044V11.9995C13.5645 14.7952 17.2166 15.6517 17.2166 15.6517C17.2166 15.6517 20.8688 14.7952 20.8688 11.9995V6.26044H13.5645Z" fill="#FFDA44"/>
<path d="M16.6963 8.34775C16.6963 8.92407 16.2292 10.4347 15.6529 10.4347C15.0765 10.4347 14.6094 8.92407 14.6094 8.34775C14.6094 7.77142 15.6529 7.30426 15.6529 7.30426C15.6529 7.30426 16.6963 7.77142 16.6963 8.34775Z" fill="#FF9811"/>
<path d="M19.4642 9.48423C19.6326 9.07337 19.7636 8.47281 19.7636 8.17384C19.7636 7.69356 19.1374 7.30426 19.1374 7.30426C19.1374 7.30426 18.5113 7.6936 18.5113 8.17384C18.5113 8.47281 18.6423 9.07337 18.8107 9.48423L18.4492 10.3003C18.6617 10.3867 18.8939 10.4347 19.1374 10.4347C19.3809 10.4347 19.6131 10.3867 19.8256 10.3003L19.4642 9.48423Z" fill="#A2001D"/>
<path d="M16.4358 12C16.4358 12 15.9141 13.0435 15.9141 14.087C15.9141 14.087 17.4793 14.087 18.5228 14.087C18.5227 13.0435 18.001 12 18.001 12L17.2184 11.4783L16.4358 12Z" fill="#6DA544"/>
<path d="M18.0008 12.0005V11.7397C18.0008 11.3075 17.6504 10.957 17.2182 10.957C16.786 10.957 16.4355 11.3074 16.4355 11.7397V12.0005H18.0008Z" fill="#D80027"/>
</g>
<defs>
<clipPath id="clip0_6346_28286">
<rect width="24" height="24" fill="white"/>
</clipPath>
</defs>
</svg>
