<svg width="24" height="24" viewBox="0 0 24 24" fill="none" xmlns="http://www.w3.org/2000/svg">
<g clip-path="url(#clip0_6346_28305)">
<path d="M12.0003 -0.000549316C10.5325 -0.000549316 9.12639 0.263498 7.82645 0.745841L7.30469 11.9995L7.82641 23.2531C9.12639 23.7355 10.5325 23.9995 12.0003 23.9995C13.4682 23.9995 14.8743 23.7355 16.1742 23.2531L16.696 11.9995L16.1743 0.745841C14.8743 0.263498 13.4682 -0.000549316 12.0003 -0.000549316Z" fill="#FFDA44"/>
<path d="M23.9999 12.0004C23.9999 6.8408 20.7434 2.44228 16.1738 0.746765V23.254C20.7434 21.5585 23.9999 17.16 23.9999 12.0004Z" fill="#D80027"/>
<path d="M7.82611 23.254V0.746765C3.2565 2.44228 0 6.8408 0 12.0004C0 17.16 3.2565 21.5585 7.82611 23.254Z" fill="#0052B4"/>
</g>
<defs>
<clipPath id="clip0_6346_28305">
<rect width="24" height="24" fill="white"/>
</clipPath>
</defs>
</svg>
