<svg width="24" height="24" viewBox="0 0 24 24" fill="none" xmlns="http://www.w3.org/2000/svg">
<g clip-path="url(#clip0_6346_28290)">
<path d="M12 24C18.6274 24 24 18.6274 24 12C24 5.37258 18.6274 0 12 0C5.37258 0 0 5.37258 0 12C0 18.6274 5.37258 24 12 24Z" fill="#FFDA44"/>
<path d="M19.3043 5.73914C19.1967 6.25641 19.1478 6.80733 19.1478 7.35652C19.1478 10.5222 21.035 13.2621 23.7394 14.4955C23.9097 13.6904 24 12.8558 24 12C24 5.37262 18.6274 0 12 0C5.37262 0 0 5.37262 0 12C0 18.6274 5.37262 24 12 24C16.1101 24 19.7371 21.9332 21.8998 18.7826H6.78263V17.2174H22.8093C22.9733 16.8782 23.1215 16.53 23.2537 16.1739H6.78263L19.3043 5.73914Z" fill="#0052B4"/>
<path d="M8.81596 6.26123L9.07499 7.05839H9.91311L9.23507 7.55109L9.4941 8.3482L8.81596 7.85559L8.13791 8.3482L8.39689 7.55109L7.71875 7.05839H8.55692L8.81596 6.26123Z" fill="#F0F0F0"/>
<path d="M5.41244 12L5.73625 12.9965H6.78391L5.93627 13.6122L6.26008 14.6087L5.41244 13.9928L4.56485 14.6087L4.88861 13.6122L4.04102 12.9965H5.08867L5.41244 12Z" fill="#F0F0F0"/>
<path d="M5.41244 3.65247L5.73625 4.64898H6.78391L5.93627 5.26468L6.26008 6.26115L5.41244 5.64531L4.56485 6.26115L4.88861 5.26468L4.04102 4.64898H5.08867L5.41244 3.65247Z" fill="#F0F0F0"/>
<path d="M2.80306 8.34753L3.12688 9.34405H4.17448L3.32689 9.95975L3.6507 10.9562L2.80306 10.3404L1.95547 10.9562L2.27923 9.95975L1.43164 9.34405H2.47925L2.80306 8.34753Z" fill="#F0F0F0"/>
</g>
<defs>
<clipPath id="clip0_6346_28290">
<rect width="24" height="24" fill="white"/>
</clipPath>
</defs>
</svg>
