<svg width="24" height="24" viewBox="0 0 24 24" fill="none" xmlns="http://www.w3.org/2000/svg">
<g clip-path="url(#clip0_6346_28287)">
<path d="M11.9995 -0.000610352C11.1035 -0.000610352 10.2308 0.0984365 9.39086 0.284624L8.86914 11.9993L9.39086 23.7141C10.2308 23.9003 11.1036 23.9994 11.9995 23.9994C18.6269 23.9994 23.9995 18.6268 23.9995 11.9993C23.9995 5.37197 18.6269 -0.000610352 11.9995 -0.000610352Z" fill="#496E2D"/>
<path d="M3.13041 3.91705C1.18584 6.04968 0 8.88608 0 11.9996C0 15.1131 1.18589 17.9496 3.13045 20.0823L3.65217 11.9996L3.13041 3.91705Z" fill="#496E2D"/>
<path d="M17.5522 9.05162C18.1425 7.40602 17.4793 5.61629 16.0558 4.72491C16.3118 4.75824 16.5682 4.81852 16.8211 4.90923C18.7197 5.59041 19.7066 7.6816 19.0254 9.58013C18.3442 11.4788 16.253 12.4656 14.3544 11.7844C14.1015 11.6937 13.8653 11.5772 13.6465 11.4402C15.312 11.6571 16.9618 10.6972 17.5522 9.05162Z" fill="#F0F0F0"/>
<path d="M14.2766 4.27429L13.7636 4.9372L12.9747 4.65412L13.4465 5.34684L12.9336 6.00965L13.7382 5.77499L14.2101 6.46762L14.2355 5.62987L15.0401 5.39517L14.2513 5.11218L14.2766 4.27429Z" fill="#F0F0F0"/>
<path d="M15.6634 6.4353L15.1503 7.09816L14.3614 6.81508L14.8333 7.5078L14.3203 8.17062L15.1249 7.93587L15.5969 8.62863L15.6223 7.79083L16.4269 7.55608L15.638 7.27305L15.6634 6.4353Z" fill="#F0F0F0"/>
<path d="M11.8352 5.06036L11.3222 5.72318L10.5333 5.44019L11.0052 6.13286L10.4922 6.79572L11.2967 6.56102L11.7687 7.25369L11.7941 6.41594L12.5987 6.18124L11.8098 5.89816L11.8352 5.06036Z" fill="#F0F0F0"/>
<path d="M11.7786 7.53455L11.2656 8.19741L10.4767 7.91437L10.9486 8.60709L10.4355 9.26991L11.2402 9.03525L11.7121 9.72787L11.7375 8.89012L12.5422 8.65542L11.7532 8.37234L11.7786 7.53455Z" fill="#F0F0F0"/>
<path d="M14.1321 8.38L13.6191 9.04282L12.8302 8.75979L13.3022 9.4525L12.7891 10.1153L13.5938 9.88061L14.0657 10.5733L14.091 9.73549L14.8957 9.50083L14.1067 9.2178L14.1321 8.38Z" fill="#F0F0F0"/>
<path d="M3.13086 3.9175V20.0827C4.76586 21.8758 6.93758 23.1707 9.39172 23.7148V0.285339C6.93753 0.829371 4.76591 2.12429 3.13086 3.9175Z" fill="#D80027"/>
<path d="M5.51888 6.31755L4.4707 5.5367V4.43247L5.51888 3.65167H7.0013L8.04947 4.43247V5.5367L7.0013 6.31755H5.51888Z" fill="#F0F0F0"/>
<path d="M6.26011 3.65167H5.51887L4.4707 4.43247V4.97233H6.26011V3.65167Z" fill="#FF9811"/>
<path d="M6.25977 6.31668H7.00095L8.04913 5.53583V4.97253H6.25977V6.31668Z" fill="#FF9811"/>
<path d="M5.51888 20.3484L4.4707 19.5676V18.4634L5.51888 17.6826H7.0013L8.04947 18.4634V19.5676L7.0013 20.3484H5.51888Z" fill="#F0F0F0"/>
<path d="M6.26011 17.6826H5.51887L4.4707 18.4634V19.0033H6.26011V17.6826Z" fill="#FF9811"/>
<path d="M6.25977 20.3493H7.00095L8.04913 19.5684V19.0052H6.25977V20.3493Z" fill="#FF9811"/>
<path d="M5.51887 13.3323L4.4707 12.5515V11.4473L5.51887 10.6664H7.00129L8.04946 11.4473V12.5515L7.00129 13.3323H5.51887Z" fill="#496E2D"/>
<path d="M8.08572 15.0514H7.62916V14.5949H6.82689L6.25961 14.0276L5.69238 14.5949H4.89011V15.0514H4.43359V15.9644H4.89011V16.4209H5.69233L6.25966 16.9883L6.82689 16.4209H7.62916V15.9644H8.08572V15.0514Z" fill="#496E2D"/>
<path d="M8.08572 8.03605H7.62916V7.57949H6.82689L6.25961 7.01221L5.69238 7.57949H4.89011V8.03605H4.43359V8.94908H4.89011V9.4056H5.69233L6.25966 9.97297L6.82689 9.4056H7.62916V8.94908H8.08572V8.03605Z" fill="#496E2D"/>
<path d="M6.78176 11.4792H5.73828V12.5227H6.78176V11.4792Z" fill="#D80027"/>
<path d="M6.26 9.01487C6.54813 9.01487 6.78171 8.78129 6.78171 8.49315C6.78171 8.20502 6.54813 7.97144 6.26 7.97144C5.97186 7.97144 5.73828 8.20502 5.73828 8.49315C5.73828 8.78129 5.97186 9.01487 6.26 9.01487Z" fill="#D80027"/>
<path d="M6.26 16.0308C6.54813 16.0308 6.78171 15.7972 6.78171 15.5091C6.78171 15.2209 6.54813 14.9874 6.26 14.9874C5.97186 14.9874 5.73828 15.2209 5.73828 15.5091C5.73828 15.7972 5.97186 16.0308 6.26 16.0308Z" fill="#D80027"/>
</g>
<defs>
<clipPath id="clip0_6346_28287">
<rect width="24" height="24" fill="white"/>
</clipPath>
</defs>
</svg>
