<svg width="24" height="24" viewBox="0 0 24 24" fill="none" xmlns="http://www.w3.org/2000/svg">
<g clip-path="url(#clip0_6346_28476)">
<path d="M6.49714 1.33191C5.42286 1.88639 4.41444 2.61319 3.51387 3.51375C2.61327 4.41436 1.88647 5.42278 1.33203 6.49706L9.04798 14.9509L17.5018 22.6669C18.5762 22.1124 19.5846 21.3856 20.4852 20.4851C21.3858 19.5845 22.1125 18.576 22.667 17.5018L14.951 9.04786L6.49714 1.33191Z" fill="#F0F0F0"/>
<path d="M20.4849 20.486C20.9883 19.9826 21.4372 19.4455 21.8325 18.8821L5.11755 2.16711C4.55416 2.56232 4.01702 3.01129 3.51363 3.51468C3.01023 4.01807 2.56127 4.55521 2.16602 5.11865L18.8809 21.8335C19.4443 21.4383 19.9815 20.9894 20.4849 20.486Z" fill="black"/>
<path d="M3.51431 20.4865C7.30026 24.2725 12.9861 24.9992 17.5023 22.6683L1.33251 6.49854C-0.998347 11.0148 -0.271457 16.7006 3.51431 20.4865Z" fill="#D80027"/>
<path d="M20.486 3.51461C16.7001 -0.271293 11.0143 -0.998043 6.49805 1.33272L22.6678 17.5026C24.9987 12.9864 24.272 7.30052 20.486 3.51461Z" fill="#D80027"/>
</g>
<defs>
<clipPath id="clip0_6346_28476">
<rect width="24" height="24" fill="white"/>
</clipPath>
</defs>
</svg>
