<svg width="24" height="24" viewBox="0 0 24 24" fill="none" xmlns="http://www.w3.org/2000/svg">
<g clip-path="url(#clip0_6346_28285)">
<path d="M24 12C24 18.6274 18.6274 24 12 24C5.37263 24 0 18.6274 0 12C0 12.0029 12 0.0013125 12 0C18.6274 0 24 5.37262 24 12Z" fill="#338AF3"/>
<path d="M5.74023 12.0012H9.78752L6.26195 7.82727L5.74023 9.39247V12.0012Z" fill="#0052B4"/>
<path d="M12.0001 9.78671L7.82617 5.73938H12.0001L12.0001 9.78671Z" fill="#0052B4"/>
<path d="M11.9688 11.9996H12.0009C12.0009 11.9888 12.0009 11.9783 12.0009 11.9674C11.9902 11.9782 11.9795 11.9889 11.9688 11.9996Z" fill="#F0F0F0"/>
<path d="M12 6.26116C12 4.14968 12 2.76612 12 0.000305176H11.998C5.3715 0.00143018 0 5.37354 0 12.0003H6.26091V8.47479L9.78642 12.0003H11.968C11.9787 11.9896 11.9894 11.9789 12.0001 11.9682C12.0001 11.1597 12.0001 10.4384 12.0001 9.78677L8.47444 6.26116H12Z" fill="#F0F0F0"/>
<path d="M6.07222 1.56537C4.19539 2.63407 2.63511 4.19435 1.56641 6.07118V12.0002H4.69686V4.69592V4.69582H12.0012C12.0012 3.70849 12.0012 2.7679 12.0012 1.56537H6.07222Z" fill="#D80027"/>
<path d="M12.0009 10.524L7.73735 6.26062H6.26172V6.26071L12.0008 11.9997H12.0009C12.0009 11.9997 12.0009 10.9822 12.0009 10.524Z" fill="#D80027"/>
<path d="M13.0972 19.8252L13.3562 20.6224H14.1944L13.5163 21.115L13.7753 21.9121L13.0972 21.4195L12.4191 21.9121L12.6781 21.115L12 20.6224H12.8381L13.0972 19.8252Z" fill="#FFDA44"/>
<path d="M19.773 14.6093L20.032 15.4064H20.8701L20.1921 15.8991L20.4512 16.6962L19.773 16.2036L19.0949 16.6962L19.354 15.8991L18.6758 15.4064H19.5139L19.773 14.6093Z" fill="#FFDA44"/>
<path d="M21.4448 6.78253L21.7038 7.57969H22.542L21.864 8.07234L22.123 8.86945L21.4448 8.37684L20.7668 8.86945L21.0258 8.07234L20.3477 7.57969H21.1858L21.4448 6.78253Z" fill="#FFDA44"/>
<path d="M21.8589 12.5214L22.1179 13.3186H22.9561L22.278 13.8113L22.5371 14.6084L21.8589 14.1158L21.1809 14.6084L21.4399 13.8113L20.7617 13.3186H21.5999L21.8589 12.5214Z" fill="#FFDA44"/>
<path d="M14.298 17.9513L15.045 18.3319L15.6376 17.7393L15.5065 18.567L16.2533 18.9475L15.4254 19.0787L15.2943 19.9066L14.9138 19.1597L14.0859 19.2909L14.6786 18.6983L14.298 17.9513Z" fill="#FFDA44"/>
<path d="M14.298 14.8214L15.045 15.2019L15.6376 14.6093L15.5065 15.4371L16.2533 15.8175L15.4254 15.9487L15.2943 16.7766L14.9138 16.0297L14.0859 16.1609L14.6786 15.5683L14.298 14.8214Z" fill="#FFDA44"/>
<path d="M16.9074 16.8271L17.6543 17.2077L18.247 16.6151L18.1159 17.4428L18.8627 17.8234L18.0348 17.9545L17.9037 18.7824L17.5232 18.0355L16.6953 18.1667L17.288 17.5741L16.9074 16.8271Z" fill="#FFDA44"/>
<path d="M16.9074 10.1248L17.6543 10.5053L18.247 9.91266L18.1159 10.7405L18.8627 11.121L18.0348 11.2521L17.9037 12.08L17.5232 11.3332L16.6953 11.4643L17.288 10.8717L16.9074 10.1248Z" fill="#FFDA44"/>
<path d="M19.4367 10.0444L20.1836 10.425L20.7763 9.83234L20.6451 10.6601L21.392 11.0406L20.5641 11.1718L20.4329 11.9996L20.0525 11.2528L19.2246 11.384L19.8172 10.7914L19.4367 10.0444Z" fill="#FFDA44"/>
</g>
<defs>
<clipPath id="clip0_6346_28285">
<rect width="24" height="24" fill="white"/>
</clipPath>
</defs>
</svg>
