<svg width="24" height="24" viewBox="0 0 24 24" fill="none" xmlns="http://www.w3.org/2000/svg">
<g clip-path="url(#clip0_6346_28416)">
<path d="M12 24C18.6274 24 24 18.6274 24 12C24 5.37258 18.6274 0 12 0C5.37258 0 0 5.37258 0 12C0 18.6274 5.37258 24 12 24Z" fill="#FFDA44"/>
<path d="M3.51544 20.4856C4.01883 20.989 4.55592 21.4379 5.11931 21.8331L21.8335 5.11887C21.4384 4.55548 20.9894 4.01839 20.486 3.515C19.9826 3.01161 19.4455 2.56273 18.8821 2.16748L2.16797 18.8817C2.56313 19.445 3.01209 19.9821 3.51544 20.4856Z" fill="black"/>
<path d="M3.51422 3.5138C-0.271495 7.29961 -0.998292 12.9851 1.33247 17.5012L17.5016 1.3321C12.9856 -0.998668 7.29999 -0.271825 3.51422 3.5138Z" fill="#6DA544"/>
<path d="M20.4854 20.4851C24.2711 16.6994 24.9979 11.0138 22.6672 6.49768L6.49805 22.6668C11.014 24.9976 16.6996 24.2708 20.4854 20.4851Z" fill="#338AF3"/>
</g>
<defs>
<clipPath id="clip0_6346_28416">
<rect width="24" height="24" fill="white"/>
</clipPath>
</defs>
</svg>
