<svg width="24" height="24" viewBox="0 0 24 24" fill="none" xmlns="http://www.w3.org/2000/svg">
<g clip-path="url(#clip0_6346_28282)">
<path d="M0.566625 8.34788C0.199031 9.4995 -4.68667e-05 10.7264 8.27601e-09 11.9999C-4.68667e-05 13.2735 0.199078 14.5005 0.566672 15.6521L12 16.1739L23.4333 15.6522C23.8009 14.5005 24.0001 13.2735 24.0001 12C24 10.7264 23.8009 9.4995 23.4333 8.34783L12 7.82611L0.566625 8.34788Z" fill="#F0F0F0"/>
<path d="M23.4332 8.34783L11.9999 7.82611L0.5665 8.34783C0.457563 8.68927 0.363766 9.03741 0.285156 9.39131H23.7144C23.6359 9.03736 23.5421 8.68917 23.4332 8.34783Z" fill="#D80027"/>
<path d="M0.285156 14.609C0.363672 14.9629 0.457469 15.311 0.566406 15.6524L0.567531 15.6525L11.9997 16.1742L23.433 15.6525C23.542 15.3111 23.6358 14.9629 23.7143 14.609H0.285156Z" fill="#D80027"/>
<path d="M11.9997 24.0007C17.3536 24.0007 21.8878 20.4943 23.433 15.6529H0.566406C2.11164 20.4943 6.64595 24.0007 11.9997 24.0007Z" fill="#6DA544"/>
<path d="M11.9997 -0.000823974C6.64595 -0.000777099 2.11173 3.50561 0.566406 8.347L23.433 8.34705C21.8879 3.50557 17.3536 -0.000870849 11.9997 -0.000823974Z" fill="#338AF3"/>
<path d="M5.48278 4.95627C5.48278 3.83235 6.27267 2.89344 7.3275 2.6631C7.1654 2.62766 6.99717 2.60849 6.82439 2.60849C5.52773 2.60849 4.47656 3.65962 4.47656 4.95632C4.47656 6.25302 5.52764 7.30415 6.82439 7.30415C6.99717 7.30415 7.16536 7.28493 7.3275 7.24954C6.27272 7.0191 5.48278 6.0802 5.48278 4.95627Z" fill="#F0F0F0"/>
<path d="M8.71433 6.02243L8.87324 6.51157H9.38755L8.97149 6.81392L9.1304 7.30306L8.71433 7.00076L8.29817 7.30306L8.45713 6.81392L8.04102 6.51157H8.55533L8.71433 6.02243Z" fill="#F0F0F0"/>
<path d="M10.3568 6.02243L10.5158 6.51157H11.0301L10.614 6.81392L10.7729 7.30306L10.3568 7.00076L9.9407 7.30306L10.0997 6.81392L9.68359 6.51157H10.1979L10.3568 6.02243Z" fill="#F0F0F0"/>
<path d="M11.9975 6.02243L12.1564 6.51157H12.6708L12.2547 6.81392L12.4136 7.30306L11.9975 7.00076L11.5814 7.30306L11.7404 6.81392L11.3242 6.51157H11.8386L11.9975 6.02243Z" fill="#F0F0F0"/>
<path d="M13.6401 6.02243L13.7991 6.51157H14.3133L13.8973 6.81392L14.0562 7.30306L13.6401 7.00076L13.224 7.30306L13.383 6.81392L12.9668 6.51157H13.4811L13.6401 6.02243Z" fill="#F0F0F0"/>
<path d="M15.2806 6.02243L15.4396 6.51157H15.9539L15.5378 6.81392L15.6968 7.30306L15.2806 7.00076L14.8645 7.30306L15.0235 6.81392L14.6074 6.51157H15.1217L15.2806 6.02243Z" fill="#F0F0F0"/>
<path d="M10.3568 4.31516L10.5158 4.80425H11.0301L10.614 5.10664L10.7729 5.59573L10.3568 5.29344L9.9407 5.59573L10.0997 5.10664L9.68359 4.80425H10.1979L10.3568 4.31516Z" fill="#F0F0F0"/>
<path d="M11.9975 4.31516L12.1564 4.80425H12.6708L12.2547 5.10664L12.4136 5.59573L11.9975 5.29344L11.5814 5.59573L11.7404 5.10664L11.3242 4.80425H11.8386L11.9975 4.31516Z" fill="#F0F0F0"/>
<path d="M13.6401 4.31516L13.7991 4.80425H14.3133L13.8973 5.10664L14.0562 5.59573L13.6401 5.29344L13.224 5.59573L13.383 5.10664L12.9668 4.80425H13.4811L13.6401 4.31516Z" fill="#F0F0F0"/>
<path d="M15.2806 4.31516L15.4396 4.80425H15.9539L15.5378 5.10664L15.6968 5.59573L15.2806 5.29344L14.8645 5.59573L15.0235 5.10664L14.6074 4.80425H15.1217L15.2806 4.31516Z" fill="#F0F0F0"/>
<path d="M11.9975 2.60806L12.1564 3.09725H12.6708L12.2547 3.39955L12.4136 3.88873L11.9975 3.58644L11.5814 3.88873L11.7404 3.39955L11.3242 3.09725H11.8386L11.9975 2.60806Z" fill="#F0F0F0"/>
<path d="M13.6401 2.60806L13.7991 3.09725H14.3133L13.8973 3.39955L14.0562 3.88873L13.6401 3.58644L13.224 3.88873L13.383 3.39955L12.9668 3.09725H13.4811L13.6401 2.60806Z" fill="#F0F0F0"/>
<path d="M15.2806 2.60806L15.4396 3.09725H15.9539L15.5378 3.39955L15.6968 3.88873L15.2806 3.58644L14.8645 3.88873L15.0235 3.39955L14.6074 3.09725H15.1217L15.2806 2.60806Z" fill="#F0F0F0"/>
</g>
<defs>
<clipPath id="clip0_6346_28282">
<rect width="24" height="24" fill="white"/>
</clipPath>
</defs>
</svg>
