<svg width="24" height="24" viewBox="0 0 24 24" fill="none" xmlns="http://www.w3.org/2000/svg">
<g clip-path="url(#clip0_6346_28397)">
<path d="M17.7386 1.45935C16.0337 0.529165 14.0783 0.000274658 11.9994 0.000274658C9.92052 0.000274658 7.96517 0.529165 6.26028 1.45935L5.2168 12.0003L6.26028 22.5412C7.96517 23.4714 9.92052 24.0003 11.9994 24.0003C14.0783 24.0003 16.0337 23.4714 17.7386 22.5412L18.782 12.0003L17.7386 1.45935Z" fill="#FFDA44"/>
<path d="M6.26086 22.5408V1.45905C2.53073 3.49436 0 7.4515 0 12C0 16.5485 2.53073 20.5057 6.26086 22.5408Z" fill="#338AF3"/>
<path d="M24.0011 12.0002C24.0011 7.45165 21.4704 3.49451 17.7402 1.4592V22.541C21.4704 20.5058 24.0011 16.5487 24.0011 12.0002Z" fill="#6DA544"/>
<path d="M9.3917 15.1298L7.30469 11.9993L9.39166 8.86887L11.4787 11.9993L9.3917 15.1298Z" fill="#6DA544"/>
<path d="M14.6104 15.1298L12.5234 11.9993L14.6104 8.86887L16.6974 11.9993L14.6104 15.1298Z" fill="#6DA544"/>
<path d="M12.001 19.3037L9.91406 16.1733L12.001 13.0429L14.088 16.1733L12.001 19.3037Z" fill="#6DA544"/>
</g>
<defs>
<clipPath id="clip0_6346_28397">
<rect width="24" height="24" fill="white"/>
</clipPath>
</defs>
</svg>
