<svg width="24" height="24" viewBox="0 0 24 24" fill="none" xmlns="http://www.w3.org/2000/svg">
<g clip-path="url(#clip0_6346_28462)">
<path d="M24 12C24 18.6274 18.6274 24 12 24C5.37262 24 0 18.6274 0 12C4.12172 7.87828 7.61737 4.38263 12 0C18.6274 0 24 5.37262 24 12Z" fill="#D80027"/>
<path d="M12 12C12 5.37262 12 4.59131 12 0C5.37262 0 0 5.37262 0 12H12Z" fill="#0052B4"/>
<path d="M9.61195 7.82629L9.80625 8.42418H10.4348L9.92625 8.7936L10.1205 9.39149L9.61195 9.02198L9.10336 9.39149L9.29766 8.7936L8.78906 8.42418H9.41766L9.61195 7.82629Z" fill="#F0F0F0"/>
<path d="M6.4535 3.13123L6.77727 4.12774H7.82502L6.97733 4.74345L7.30119 5.73992L6.4535 5.12402L5.60586 5.73992L5.92967 4.74345L5.08203 4.12774H6.12969L6.4535 3.13123Z" fill="#F0F0F0"/>
<path d="M9.58436 4.17505L9.90813 5.17161H10.9558L10.1082 5.78732L10.432 6.78379L9.58436 6.16789L8.73672 6.78379L9.06053 5.78732L8.21289 5.17161H9.26055L9.58436 4.17505Z" fill="#F0F0F0"/>
<path d="M7.10975 8.34912L7.43356 9.34564H8.48122L7.63358 9.96134L7.95739 10.9578L7.10975 10.342L6.26211 10.9578L6.58592 9.96134L5.73828 9.34564H6.78598L7.10975 8.34912Z" fill="#F0F0F0"/>
<path d="M4.36752 5.73999L4.69133 6.73651H5.73903L4.89135 7.35221L5.21516 8.34868L4.36752 7.73283L3.51992 8.34868L3.84369 7.35221L2.99609 6.73651H4.04375L4.36752 5.73999Z" fill="#F0F0F0"/>
</g>
<defs>
<clipPath id="clip0_6346_28462">
<rect width="24" height="24" fill="white"/>
</clipPath>
</defs>
</svg>
