<svg width="24" height="24" viewBox="0 0 24 24" fill="none" xmlns="http://www.w3.org/2000/svg">
<g clip-path="url(#clip0_6346_28299)">
<path d="M12 24C18.6274 24 24 18.6274 24 12C24 5.37258 18.6274 0 12 0C5.37258 0 0 5.37258 0 12C0 18.6274 5.37258 24 12 24Z" fill="#F0F0F0"/>
<path d="M3.51471 20.4852C-1.17157 15.7989 -1.17157 8.20092 3.51471 3.51459C3.51438 3.5151 10.4348 11.9999 10.4348 11.9999L3.51471 20.4852Z" fill="black"/>
<path d="M10.4341 12.0002L1.59089 6.02423C1.31672 6.50081 1.07494 6.99825 0.867188 7.51312L5.34417 12.0002L0.867328 16.4876C1.07489 17.0021 1.31644 17.4992 1.59042 17.9754L10.4341 12.0002Z" fill="#FFDA44"/>
<path d="M23.8991 10.4348H10.4352L3.51531 3.51483C2.76962 4.26052 2.12177 5.10385 1.59227 6.02405L7.55659 12L1.5918 17.9751C2.1213 18.8955 2.76944 19.7392 3.51531 20.485L10.4352 13.5652H23.8991C23.9658 13.0528 24.0007 12.5304 24.0007 12C24.0007 11.4695 23.9658 10.9471 23.8991 10.4348Z" fill="#6DA544"/>
<path d="M4.69336 21.5181C6.71691 23.0735 9.24989 23.9988 11.9994 23.9988C17.5437 23.9988 22.209 20.2385 23.586 15.1293H11.0822L4.69336 21.5181Z" fill="#0052B4"/>
<path d="M23.586 8.86875C22.209 3.75957 17.5437 -0.000793457 11.9994 -0.000793457C9.24989 -0.000793457 6.71691 0.924566 4.69336 2.47997L11.0821 8.86875H23.586Z" fill="#D80027"/>
</g>
<defs>
<clipPath id="clip0_6346_28299">
<rect width="24" height="24" fill="white"/>
</clipPath>
</defs>
</svg>
