<svg width="24" height="24" viewBox="0 0 24 24" fill="none" xmlns="http://www.w3.org/2000/svg">
<g clip-path="url(#clip0_6346_28459)">
<path d="M12 24C18.6274 24 24 18.6274 24 12C24 5.37258 18.6274 0 12 0C5.37258 0 0 5.37258 0 12C0 18.6274 5.37258 24 12 24Z" fill="#F0F0F0"/>
<path d="M22.8512 6.87252C22.2416 5.58467 21.4095 4.42297 20.4045 3.43649L11.9998 2.60919L3.59512 3.43654C3.56831 3.46283 3.54216 3.48974 3.51562 3.51632L6.87188 6.87256L11.9998 7.02917L22.8512 6.87252Z" fill="#FFDA44"/>
<path d="M3.51562 20.4854C3.55978 20.5295 3.60384 20.5737 3.64866 20.6172L12 21.3924L20.3512 20.6172C21.3665 19.6329 22.2088 18.4711 22.827 17.1812L7.30425 16.6967C5.96864 18.0324 4.42814 19.5728 3.51562 20.4854Z" fill="#FFDA44"/>
<path d="M23.8798 10.3082L9.91211 9.91315L11.9991 12.0001C11.3809 12.6183 10.4582 13.541 9.91211 14.0871L23.8724 13.7442C23.9554 13.1748 23.9991 12.5926 23.9991 12.0001C23.9991 11.4257 23.9578 10.8611 23.8798 10.3082Z" fill="black"/>
<path d="M12.0004 0.000671387C8.7272 0.000671387 5.76067 1.31177 3.5957 3.4367H20.4051C18.2401 1.31177 15.2736 0.000671387 12.0004 0.000671387Z" fill="#6DA544"/>
<path d="M10.3091 10.3086H23.8817C23.7105 9.09548 23.3581 7.94076 22.8525 6.87253H6.87305L10.3091 10.3086Z" fill="#D80027"/>
<path d="M6.82031 17.1815H22.8276C23.3392 16.114 23.6971 14.9592 23.8739 13.7455H10.2563C8.9257 15.0761 7.79798 16.2038 6.82031 17.1815Z" fill="#D80027"/>
<path d="M11.9996 24.0005C15.246 24.0005 18.1907 22.7109 20.3508 20.6166H3.64844C5.80863 22.7109 8.75331 24.0005 11.9996 24.0005Z" fill="#6DA544"/>
<path d="M4.28602 2.80991C4.01925 3.03406 3.76186 3.26905 3.51562 3.51519L12.0009 12.0005L3.51562 20.4858C3.76181 20.732 4.01925 20.9669 4.28602 21.1911L13.4766 12.0005L4.28602 2.80991Z" fill="black"/>
<path d="M4.82467 8.86911L5.60163 11.2605H8.11624L6.08195 12.7385L6.85895 15.13L4.82467 13.652L2.79034 15.13L3.56744 12.7385L1.5332 11.2605H4.04767L4.82467 8.86911Z" fill="#D80027"/>
<path d="M6.96184 12.1947L4.93694 11.4773C4.93694 11.4773 4.78731 10.0737 4.77827 10.0262C4.70955 9.66415 4.39141 9.39035 4.00937 9.39035C3.57719 9.39035 3.22675 9.74074 3.22675 10.173C3.22675 10.2446 3.2372 10.3137 3.25525 10.3797L2.6875 10.9512C2.6875 10.9512 3.36184 10.9512 3.697 10.9512C3.697 11.999 2.91512 11.999 2.91512 13.0425L3.34886 14.086H5.95755L6.39236 13.0425H6.39217C6.43572 12.9424 6.46216 12.8391 6.47308 12.736C6.84789 12.5844 6.96184 12.1947 6.96184 12.1947Z" fill="#FFDA44"/>
</g>
<defs>
<clipPath id="clip0_6346_28459">
<rect width="24" height="24" fill="white"/>
</clipPath>
</defs>
</svg>
