<svg width="20" height="19" viewBox="0 0 20 19" fill="none" xmlns="http://www.w3.org/2000/svg">
<g id="Group 226">
<path id="Vector" d="M18.6371 0.666626L11.3262 6.09654L12.6781 2.89296L18.6371 0.666626Z" fill="#E2761B"/>
<path id="Vector_2" d="M1.75917 0.666626L9.0113 6.14797L7.72546 2.89296L1.75917 0.666626ZM16.0063 13.2531L14.0591 16.2363L18.2253 17.3825L19.4229 13.3193L16.0063 13.2531ZM0.987671 13.3193L2.17799 17.3825L6.34411 16.2363L4.39698 13.2531L0.987671 13.3193Z" fill="#E4761B"/>
<path id="Vector_3" d="M6.10941 8.21262L4.94849 9.96871L9.08521 10.1524L8.93826 5.70707L6.10941 8.21262ZM14.2873 8.21262L11.4218 5.65564L11.3262 10.1524L15.4556 9.96871L14.2873 8.21262ZM6.34454 16.2363L8.82804 15.0239L6.68253 13.3486L6.34454 16.2363ZM11.5687 15.0239L14.0596 16.2363L13.7142 13.3486L11.5687 15.0239Z" fill="#E4761B"/>
<path id="Vector_4" d="M14.0596 16.2362L11.5688 15.0238L11.7672 16.6476L11.7451 17.331L14.0596 16.2362ZM6.3446 16.2362L8.65911 17.331L8.64442 16.6476L8.82811 15.0238L6.3446 16.2362Z" fill="#D7C1B3"/>
<path id="Vector_5" d="M6.34471 16.2363L6.6974 13.2531L4.39758 13.3193L6.34471 16.2363ZM13.7071 13.2531L14.0597 16.2363L16.0069 13.3193L13.7071 13.2531ZM15.4558 9.96875L11.3264 10.1524L11.7085 12.2759L12.3183 10.9974L13.7879 11.6661L15.4558 9.96875ZM6.62392 11.6661L8.09345 10.9974L8.69596 12.2759L9.08538 10.1524L4.94866 9.96875L6.62392 11.6661Z" fill="#CD6116"/>
<path id="Vector_6" d="M8.69569 12.2758L6.62366 11.6659L8.08584 10.9973L8.69569 12.2758ZM11.7009 12.2758L12.3107 10.9973L13.7803 11.6659L11.7009 12.2758Z" fill="#233447"/>
<path id="Vector_7" d="M4.94849 9.96875L6.68253 13.3487L6.62375 11.6661L4.94849 9.96875ZM13.7877 11.6661L13.7142 13.3487L15.4556 9.96875L13.7877 11.6661ZM9.08521 10.1524L8.69579 12.2759L9.18073 14.7815L9.29095 11.4824L9.08521 10.1524ZM11.3262 10.1524L11.1279 11.475L11.216 14.7815L11.7083 12.2759L11.3262 10.1524Z" fill="#E4751F"/>
<path id="Vector_8" d="M11.7082 12.276L11.2159 14.7815L11.5686 15.024L13.7141 13.3487L13.7876 11.6661L11.7082 12.276ZM6.62366 11.6661L6.68244 13.3487L8.82795 15.024L9.18064 14.7815L8.69569 12.276L6.62366 11.6661Z" fill="#F6851B"/>
<path id="Vector_9" d="M11.7451 17.3311L11.7672 16.6478L11.5835 16.4861H8.81341L8.64442 16.6478L8.65911 17.3311L6.3446 16.2363L7.15285 16.8976L8.79137 18.0365H11.6055L13.2514 16.8976L14.0596 16.2363L11.7451 17.3311Z" fill="#C0AD9E"/>
<path id="Vector_10" d="M11.5689 15.024L11.2162 14.7815H9.18091L8.82822 15.024L8.64453 16.6478L8.81353 16.4861H11.5836L11.7673 16.6478L11.5689 15.024Z" fill="#161616"/>
<path id="Vector_11" d="M18.9457 6.44922L19.5702 3.45138L18.6371 0.666626L11.5687 5.91285L14.2873 8.21266L18.1301 9.33685L18.9824 8.34492L18.615 8.0804L19.2029 7.54402L18.7473 7.19134L19.3351 6.74313L18.9457 6.44922ZM0.83374 3.45138L1.45829 6.44922L1.06152 6.74313L1.64933 7.19134L1.20112 7.54402L1.78893 8.0804L1.42155 8.34492L2.26653 9.33685L6.10935 8.21266L8.82798 5.91285L1.75954 0.666626L0.83374 3.45138Z" fill="#763D16"/>
<path id="Vector_12" d="M18.1297 9.33683L14.2869 8.21264L15.4552 9.96873L13.7138 13.3486L16.0063 13.3193H19.4229L18.1297 9.33683ZM6.10898 8.21264L2.26616 9.33683L0.987671 13.3193H4.39698L6.6821 13.3486L4.94805 9.96873L6.10898 8.21264ZM11.3258 10.1524L11.5683 5.91283L12.6851 2.89294H7.72546L8.82761 5.91283L9.08478 10.1524L9.17295 11.4897L9.1803 14.7814H11.2156L11.2303 11.4897L11.3258 10.1524Z" fill="#F6851B"/>
</g>
</svg>
