<svg width="20" height="20" viewBox="0 0 20 20" fill="none" xmlns="http://www.w3.org/2000/svg">
<g id="MetaMask_Fox 2">
<path id="Vector" fill-rule="evenodd" clip-rule="evenodd" d="M7.87347 7.66505C7.83762 7.79723 7.77509 7.92132 7.68935 8.03035C7.52975 8.22916 7.31853 8.38419 7.07686 8.47998C6.85952 8.56988 6.6293 8.62803 6.39398 8.65238C6.34559 8.65828 6.29547 8.66189 6.24685 8.66544L6.23893 8.66601C6.08989 8.67146 5.9466 8.72256 5.82999 8.81182C5.71337 8.90114 5.62962 9.02392 5.59095 9.16217C5.57326 9.23098 5.56007 9.30076 5.55156 9.37117C5.53801 9.47733 5.53105 9.58602 5.5235 9.70358C5.5181 9.78792 5.51235 9.87689 5.50371 9.97274C5.45311 10.3632 5.33542 10.743 5.1555 11.0965C5.11874 11.1708 5.08127 11.2429 5.0444 11.3137C4.84715 11.693 4.66891 12.0356 4.72005 12.4944C4.7601 12.848 4.94877 13.0849 5.19944 13.3292C5.31851 13.4461 5.47637 13.546 5.64023 13.6497C6.09888 13.9398 6.60454 14.2597 6.43792 15.0657C6.30159 15.7188 5.1736 16.4041 3.58817 16.6435C3.74195 16.6211 3.40321 16.0663 3.36562 16.0047L3.36334 16.001C3.31963 15.9352 3.27484 15.8705 3.23018 15.8059C3.10116 15.6192 2.97261 15.4335 2.87237 15.2276C2.60749 14.6899 2.4847 14.0678 2.59322 13.4786C2.69155 12.9454 3.05883 12.5195 3.41238 12.1093C3.47006 12.0424 3.52731 11.976 3.58301 11.9096C4.05593 11.3459 4.55212 10.6072 4.66189 9.8754C4.67118 9.81181 4.67946 9.74248 4.68815 9.66955C4.70374 9.53898 4.72065 9.39684 4.74721 9.25521C4.7866 9.01063 4.86646 8.77361 4.98367 8.55315C5.06365 8.4086 5.16899 8.27831 5.29507 8.16803C5.36078 8.10947 5.40413 8.03144 5.41822 7.94642C5.43225 7.86145 5.41618 7.77437 5.37259 7.69914L2.84521 3.33551L6.47539 7.63589C6.51676 7.68574 6.56898 7.72624 6.62846 7.75449C6.68793 7.78273 6.75316 7.79809 6.81947 7.79946C6.88584 7.80084 6.95167 7.78818 7.01235 7.76234C7.07302 7.73656 7.12704 7.69823 7.17057 7.65016C7.21655 7.59871 7.24263 7.53357 7.24437 7.46573C7.24617 7.39796 7.22351 7.33167 7.18022 7.27804C7.01145 7.07099 6.83578 6.86112 6.66095 6.65218C6.59021 6.56767 6.51952 6.48317 6.44955 6.39923L5.53603 5.31394L3.7025 3.14696L1.66663 0.833374L3.9377 2.95286L5.8894 5.02427L6.86306 6.06247C6.95251 6.15918 7.04196 6.25503 7.13136 6.35082C7.36494 6.60107 7.59852 6.85133 7.8321 7.11682L7.8851 7.17881L7.89674 7.27495C7.91244 7.40529 7.90459 7.53729 7.87347 7.66505ZM17.2096 9.12344L17.2135 9.12905C17.2128 8.66636 16.9144 7.90293 16.3103 7.16861L16.2961 7.15062C16.11 6.92988 15.9073 6.72259 15.6894 6.53043C15.6487 6.49262 15.6048 6.45538 15.5602 6.4182C15.2811 6.18456 14.9761 5.98111 14.6506 5.81164L14.6273 5.80047C13.6046 5.26587 12.2738 4.99052 10.6328 5.30059C10.4124 5.04375 10.175 4.80077 9.92212 4.57315C9.53481 4.21885 9.07892 3.94098 8.58028 3.75512C8.08607 3.58147 7.55679 3.51948 7.03357 3.57402C7.53791 3.61762 8.02917 3.75226 8.48141 3.97094C8.91818 4.19559 9.31154 4.49053 9.64429 4.84294C9.98159 5.20268 10.2986 5.57943 10.594 5.97166L10.6681 6.0643C10.9572 6.42564 11.2514 6.79352 11.618 7.12089C11.8198 7.30314 12.0449 7.46006 12.288 7.58788C12.3526 7.61951 12.4178 7.64924 12.4818 7.67531C12.5457 7.70138 12.6058 7.72556 12.6704 7.7479C12.7951 7.79436 12.9243 7.83286 13.0535 7.86821C13.5704 8.00961 14.0995 8.06043 14.6164 8.08776C14.6883 8.09137 14.76 8.09475 14.8315 8.09813C15.0161 8.10689 15.1991 8.11555 15.3794 8.12804C15.6262 8.14213 15.8712 8.17908 16.1107 8.23844C16.4705 8.3285 16.7872 8.53424 17.0081 8.82139C17.0831 8.91707 17.1505 9.01802 17.2096 9.12344ZM15.6968 6.53118C15.6708 6.50815 15.6444 6.48534 15.618 6.4626C15.6011 6.44799 15.5842 6.43344 15.5675 6.41888C15.5804 6.43017 15.5933 6.44157 15.6062 6.45303C15.6366 6.4799 15.6668 6.50677 15.6968 6.53118ZM15.0507 11.0986C13.3887 10.4512 11.6501 9.77394 11.9089 7.8732C12.4639 8.44194 13.335 8.56122 14.2824 8.69099C15.1418 8.80867 16.064 8.93494 16.8701 9.41311C18.772 10.5406 18.4942 12.7311 17.8482 13.5374C17.9064 12.2109 16.508 11.6663 15.0507 11.0986ZM8.35461 10.1473C8.79329 10.1069 9.72816 9.88801 9.31016 9.18159C9.22023 9.0379 9.08989 8.92148 8.93413 8.84562C8.77837 8.76983 8.60348 8.73774 8.42955 8.75304C8.2531 8.77126 8.08667 8.8411 7.95297 8.95316C7.81927 9.06523 7.72467 9.21402 7.6821 9.37942C7.55224 9.84149 7.68983 10.2092 8.35461 10.1473ZM8.22852 4.55819C7.95333 4.25305 7.52628 4.09303 7.10761 4.03477C7.09197 4.13486 7.08207 4.23569 7.07794 4.33681C7.05917 5.16968 7.36734 6.08447 7.96364 6.72019C8.15442 6.92569 8.38447 7.09408 8.64137 7.21634C8.78994 7.28578 9.18408 7.45817 9.33007 7.30314C9.34116 7.28893 9.34817 7.27214 9.35033 7.2545C9.35249 7.23685 9.34973 7.21898 9.34236 7.2027C9.31814 7.1363 9.27143 7.07603 9.22503 7.01622C9.19211 6.97382 9.15938 6.93165 9.13497 6.88759C9.11027 6.84325 9.08383 6.79994 9.05745 6.75674C9.00787 6.6755 8.95841 6.59443 8.92046 6.5062C8.82033 6.27525 8.76823 6.0297 8.71625 5.78488C8.70588 5.73596 8.69545 5.68674 8.68466 5.63793C8.60522 5.26026 8.50377 4.86333 8.22852 4.55819ZM14.1086 11.2022C13.6817 12.3459 14.3703 13.3119 15.0548 14.2723C15.8205 15.3464 16.5811 16.4135 15.7696 17.7142C17.3466 17.0891 18.0954 15.2006 17.4409 13.7022C17.0286 12.7545 16.0347 12.2407 15.1121 11.7638C14.7541 11.5788 14.4069 11.3993 14.1086 11.2022ZM9.4938 13.9323C9.208 14.0443 8.9385 14.1913 8.69203 14.3696C9.25249 14.1745 9.84076 14.063 10.4364 14.039C10.5443 14.0329 10.653 14.0281 10.7626 14.0232C10.952 14.0148 11.1445 14.0064 11.3409 13.9907C11.6628 13.9697 11.9803 13.9071 12.2847 13.8046C12.6038 13.6974 12.8942 13.5237 13.135 13.2961C13.3783 13.061 13.5489 12.7658 13.6279 12.4433C13.6975 12.1386 13.6877 11.8221 13.5995 11.522C13.5112 11.2218 13.3473 10.9471 13.1221 10.7222C13.2307 10.9868 13.2976 11.2654 13.3204 11.549C13.3401 11.8129 13.3027 12.0779 13.2106 12.3273C13.1206 12.5637 12.9736 12.7762 12.7816 12.9475C12.5832 13.1205 12.3535 13.257 12.1039 13.3506C11.7569 13.4848 11.3646 13.5397 10.9559 13.5968C10.7695 13.6229 10.5797 13.6495 10.3892 13.6843C10.0829 13.7381 9.7829 13.8213 9.4938 13.9323ZM14.4481 18.654L14.4207 18.6751C14.3485 18.7309 14.2751 18.7877 14.196 18.8386C14.0952 18.9023 13.9897 18.9587 13.8801 19.0073C13.652 19.1141 13.4013 19.1687 13.1475 19.1667C12.4601 19.1543 11.9742 18.6631 11.69 18.108C11.6155 17.9625 11.5498 17.8125 11.4842 17.6625C11.3791 17.4225 11.274 17.1824 11.1324 16.9607C10.8036 16.4453 10.2409 16.0304 9.58194 16.1073C9.31316 16.1395 9.06117 16.2555 8.91194 16.4794C8.51912 17.0642 9.08317 17.8835 9.80221 17.7675C9.86336 17.7586 9.9232 17.7428 9.98051 17.7204C10.0377 17.697 10.091 17.6659 10.1388 17.628C10.2393 17.5477 10.3149 17.4427 10.3578 17.3241C10.4051 17.2005 10.4155 17.0667 10.3882 16.9377C10.3587 16.8029 10.2757 16.6844 10.1569 16.6072C10.2951 16.6693 10.4028 16.7805 10.4573 16.9172C10.5139 17.0581 10.5284 17.2111 10.4993 17.3595C10.4711 17.5139 10.4001 17.6583 10.2938 17.7775C10.2374 17.8387 10.1721 17.892 10.1001 17.9356C10.0286 17.9787 9.95203 18.0135 9.872 18.0392C9.7097 18.0924 9.53697 18.1096 9.36676 18.0894C9.12778 18.0567 8.90241 17.9629 8.71427 17.8178C8.6795 17.7914 8.64617 17.7638 8.61385 17.7351C8.48585 17.6292 8.36966 17.5105 8.26719 17.3811C8.22121 17.3325 8.1745 17.2846 8.1257 17.2385C7.89536 17.0065 7.62358 16.816 7.32327 16.676C7.11619 16.5887 6.89945 16.5242 6.67726 16.4838C6.56545 16.4614 6.45243 16.4453 6.33936 16.4317C6.32707 16.4305 6.3035 16.4265 6.27413 16.4216C6.17976 16.4059 6.02598 16.3803 5.99888 16.4043C6.34835 16.0955 6.72924 15.8213 7.13591 15.5857C7.5535 15.3479 8.00184 15.1637 8.46942 15.0381C8.95415 14.9071 9.46125 14.8698 9.96115 14.9283C10.2185 14.958 10.4705 15.0206 10.7106 15.1143C10.9621 15.2108 11.1942 15.3485 11.3967 15.5212C11.597 15.7024 11.7589 15.9191 11.8735 16.1594C11.9769 16.3844 12.054 16.6196 12.1034 16.8608C12.1299 16.9906 12.15 17.1332 12.1706 17.2809C12.2648 17.9537 12.3736 18.73 13.1805 18.8652C13.2317 18.8748 13.2835 18.8819 13.3355 18.8864L13.4964 18.89C13.607 18.8825 13.7169 18.8674 13.8252 18.8448C14.0497 18.7941 14.2685 18.7225 14.4784 18.6309L14.4481 18.654ZM8.30964 17.4264C8.32895 17.4476 8.34849 17.4686 8.36828 17.4894C8.36018 17.4807 8.35215 17.472 8.34406 17.4633C8.3326 17.451 8.32115 17.4387 8.30964 17.4264Z" fill="#FC72FF"/>
</g>
</svg>
