<svg width="20" height="20" viewBox="0 0 20 20" fill="none" xmlns="http://www.w3.org/2000/svg">
<g id="SVGRepo_iconCarrier">
<path id="Vector" d="M10 20C15.5228 20 20 15.5228 20 10C20 4.47715 15.5228 0 10 0C4.47715 0 0 4.47715 0 10C0 15.5228 4.47715 20 10 20Z" fill="#0052FF"/>
<path id="Vector_2" d="M10.084 7.06699C11.2613 7.06699 12.1953 7.79316 12.55 8.87305H14.9219C14.4922 6.56426 12.5873 5 10.1029 5C7.28164 5 5.07812 7.1416 5.07812 10.0096C5.07812 12.8775 7.22656 15 10.1029 15C12.5316 15 14.4744 13.4357 14.9045 11.1078H12.5498C12.2135 12.1879 11.2803 12.933 10.1021 12.933C8.47656 12.933 7.33731 11.6852 7.33731 10.0096C7.33809 8.31484 8.45898 7.06699 10.084 7.06699Z" fill="white"/>
</g>
</svg>
