<svg width="24" height="24" viewBox="0 0 24 24" fill="none" xmlns="http://www.w3.org/2000/svg">
    <g id="log-out-01-alt">
        <g id="Solid">
            <path
                d="M7.46934 2.03699C7.23368 1.99967 6.97167 1.99983 6.66714 2.00003L6.51752 2.00004C6.04054 1.99988 5.68705 1.99977 5.3743 2.0493C3.66273 2.32039 2.32037 3.66274 2.04928 5.37431C1.99975 5.68707 1.99986 6.04056 2.00002 6.51753V17.4826C1.99986 17.9595 1.99975 18.313 2.04928 18.6258C2.32037 20.3374 3.66273 21.6797 5.3743 21.9508C5.68703 22.0003 6.0405 22.0002 6.51743 22.0001L6.66714 22.0001C6.97166 22.0003 7.23368 22.0004 7.46934 21.9631C8.75302 21.7598 9.75979 20.753 9.9631 19.4694C10.0004 19.2337 10.0003 18.9717 10.0001 18.6672V16C10.0001 15.4477 9.55234 15 9.00006 15C7.34321 15 6.00006 13.6569 6.00006 12C6.00006 10.3431 7.34321 9 9.00006 9C9.55234 9 10.0001 8.55228 10.0001 8V5.33294C10.0003 5.02843 10.0004 4.76641 9.9631 4.53075C9.75979 3.24707 8.75302 2.24031 7.46934 2.03699Z"
                fill="current" />
            <path
                d="M15.293 6.29289C15.6835 5.90237 16.3166 5.90237 16.7072 6.29289L21.7072 11.2929C22.0977 11.6834 22.0977 12.3166 21.7072 12.7071L16.7072 17.7071C16.3166 18.0976 15.6835 18.0976 15.293 17.7071C14.9024 17.3166 14.9024 16.6834 15.293 16.2929L18.5858 13H9.00006C8.44778 13 8.00006 12.5523 8.00006 12C8.00006 11.4477 8.44778 11 9.00006 11H18.5858L15.293 7.70711C14.9024 7.31658 14.9024 6.68342 15.293 6.29289Z"
                fill="current" />
        </g>
    </g>
</svg>