<svg width="24" height="24" viewBox="0 0 24 24" fill="none" xmlns="http://www.w3.org/2000/svg">
    <g id="message-question-circle">
        <path id="Solid" fill-rule="evenodd" clip-rule="evenodd"
            d="M12.5005 2C7.25383 2 3.00053 6.25329 3.00053 11.5C3.00053 12.56 3.17452 13.5814 3.49629 14.536C3.55288 14.7039 3.58619 14.8033 3.60785 14.8766L3.61493 14.9012L3.61118 14.909C3.58548 14.962 3.54728 15.0332 3.47582 15.1655L1.82394 18.223C1.72156 18.4124 1.61473 18.6101 1.54127 18.7819C1.46825 18.9527 1.34996 19.2661 1.40816 19.6376C1.47639 20.073 1.73267 20.4564 2.10895 20.6859C2.42996 20.8818 2.76475 20.8923 2.95049 20.8901C3.13736 20.8879 3.36079 20.8648 3.57495 20.8426L8.72992 20.3097C8.81248 20.3012 8.85564 20.2968 8.88726 20.2944L8.89133 20.2941L8.9037 20.2984C8.94255 20.3124 8.99524 20.3326 9.08619 20.3677C10.1471 20.7764 11.2989 21 12.5005 21C17.7472 21 22.0005 16.7467 22.0005 11.5C22.0005 6.25329 17.7472 2 12.5005 2ZM11.9889 8.67211C12.2431 8.52274 12.5419 8.46814 12.8325 8.51797C13.123 8.56781 13.3866 8.71888 13.5764 8.94441C13.7663 9.16994 13.8702 9.45539 13.8698 9.75019V9.75168C13.8698 9.97025 13.6926 10.2714 13.1909 10.6059C12.9705 10.7528 12.743 10.8673 12.5666 10.9457C12.4798 10.9842 12.4089 11.0125 12.362 11.0304C12.3387 11.0393 12.3216 11.0455 12.3117 11.049L12.3025 11.0522L12.3041 11.0517C11.7809 11.2268 11.4982 11.7927 11.6728 12.3162C11.8457 12.835 12.4221 13.1201 12.9389 12.9483C12.9843 12.933 13.0293 12.9164 13.074 12.8994C13.1501 12.8704 13.2549 12.8284 13.3789 12.7733C13.6241 12.6643 13.9586 12.4978 14.3003 12.27C14.9227 11.855 15.8695 11.0322 15.8698 9.75212C15.8707 8.98537 15.6003 8.24301 15.1065 7.65641C14.6125 7.06954 13.9267 6.67645 13.1706 6.54676C12.4145 6.41707 11.6369 6.55916 10.9756 6.94784C10.3142 7.33653 9.81175 7.94674 9.55718 8.67039C9.37391 9.19138 9.64768 9.7623 10.1687 9.94557C10.6897 10.1288 11.2606 9.85507 11.4439 9.33408C11.5417 9.05598 11.7348 8.82148 11.9889 8.67211ZM12.6504 14C12.0981 14 11.6504 14.4477 11.6504 15C11.6504 15.5523 12.0981 16 12.6504 16H12.6604C13.2127 16 13.6604 15.5523 13.6604 15C13.6604 14.4477 13.2127 14 12.6604 14H12.6504Z"
            fill="current" />
    </g>
</svg>