<svg width="24" height="24" viewBox="0 0 24 24" fill="none" xmlns="http://www.w3.org/2000/svg">
    <g id="tag-03">
        <g id="Solid">
            <path
                d="M5.00012 2C5.00012 1.44772 5.44784 1 6.00012 1L10.1138 0.99997C10.7488 0.999668 11.2286 0.99944 11.6913 1.11052C12.0994 1.20851 12.4896 1.37013 12.8475 1.58944C13.2532 1.83807 13.5923 2.17749 14.0411 2.62672L21.7072 10.2929C22.0978 10.6834 22.0978 11.3166 21.7072 11.7071C21.3167 12.0976 20.6835 12.0976 20.293 11.7071L12.6989 4.113C12.1464 3.56048 11.9808 3.40402 11.8025 3.29472C11.6235 3.18506 11.4284 3.10426 11.2244 3.05526C11.021 3.00643 10.7933 3 10.0119 3L6.00012 3C5.44784 3 5.00012 2.55229 5.00012 2Z"
                fill="current" />
            <path
                d="M3.63813 4.82706C3.07364 5.11468 2.6147 5.57362 2.32708 6.13811C2.13429 6.51649 2.06297 6.90971 2.03067 7.30505C2.00007 7.67962 2.00008 8.13439 2.0001 8.66154L2.00005 10.7579C1.99967 11.1648 1.99934 11.5235 2.08299 11.872C2.15648 12.1781 2.2777 12.4707 2.44218 12.7391C2.62942 13.0447 2.88332 13.2981 3.17131 13.5856L11.0575 21.4717C11.4302 21.8445 11.7518 22.166 12.0383 22.4093C12.3407 22.666 12.6692 22.8936 13.0731 23.0248C13.6756 23.2206 14.3246 23.2206 14.9272 23.0248C15.331 22.8936 15.6595 22.666 15.9619 22.4093C16.2484 22.166 16.5699 21.8445 16.9427 21.4717L19.4717 18.9427C19.8445 18.5699 20.1661 18.2484 20.4093 17.9619C20.666 17.6595 20.8936 17.331 21.0248 16.9271C21.2206 16.3246 21.2206 15.6756 21.0248 15.073C20.8936 14.6691 20.666 14.3407 20.4093 14.0383C20.1661 13.7518 19.8445 13.4302 19.4717 13.0575L12.0856 5.67129C11.7981 5.3833 11.5447 5.1294 11.2392 4.94216C10.9708 4.77767 10.6781 4.65646 10.372 4.58297C10.0236 4.49932 9.66482 4.49965 9.25793 4.50003L6.16156 4.50008C5.63442 4.50006 5.17964 4.50005 4.80507 4.53065C4.40973 4.56295 4.01651 4.63427 3.63813 4.82706Z"
                fill="current" />
        </g>
    </g>
</svg>