<svg width="24" height="24" viewBox="0 0 24 24" fill="none" xmlns="http://www.w3.org/2000/svg">
    <g id="wallet-02">
        <path id="Solid" fill-rule="evenodd" clip-rule="evenodd"
            d="M2.00023 14.9998L2.00024 15.0054V17.8386C2.00023 18.3657 2.00021 18.8205 2.03082 19.195C2.06312 19.5904 2.13443 19.9836 2.32723 20.362C2.61485 20.9265 3.07379 21.3854 3.63827 21.673C4.01665 21.8658 4.40987 21.9371 4.80522 21.9694C5.17978 22 5.63455 22 6.16168 22L17.8388 22C18.366 22 18.8207 22 19.1953 21.9694C19.5906 21.9371 19.9838 21.8658 20.3622 21.673C20.9267 21.3854 21.3856 20.9265 21.6733 20.362C21.8661 19.9836 21.9374 19.5904 21.9697 19.195C22.0003 18.8205 22.0003 18.3657 22.0002 17.8386V11.1614C22.0003 10.6343 22.0003 10.1795 21.9697 9.80498C21.9374 9.40963 21.8661 9.01641 21.6733 8.63803C21.3856 8.07355 20.9267 7.6146 20.3622 7.32698C19.9838 7.13419 19.5906 7.06287 19.1953 7.03057C18.8207 6.99997 18.3659 6.99998 17.8388 7H17.0002L17.0002 4.45984C17.0003 4.07898 17.0003 3.72782 16.9742 3.44186C16.9471 3.14551 16.8828 2.77165 16.6498 2.43181C16.3437 1.98523 15.8695 1.68186 15.3357 1.59103C14.9295 1.52191 14.5631 1.62016 14.2827 1.71978C14.0122 1.81591 13.6933 1.96309 13.3475 2.12273L4.32323 6.28766C3.76642 6.54373 3.27694 6.76884 2.90339 7.13392C2.57632 7.45357 2.32665 7.84377 2.17349 8.27469C1.99855 8.76685 1.99928 9.30561 2.00011 9.91848L2.00023 14.9998ZM14.9523 3.60438C14.7785 3.66612 14.544 3.77326 14.1488 3.95566L7.55271 7L15.0002 7V4.50043C15.0002 4.06518 14.9992 3.80737 14.9825 3.6237L14.9796 3.59491L14.9523 3.60438ZM16.5002 13C15.6718 13 15.0002 13.6716 15.0002 14.5C15.0002 15.3284 15.6718 16 16.5002 16C17.3287 16 18.0002 15.3284 18.0002 14.5C18.0002 13.6716 17.3287 13 16.5002 13Z"
            fill="current" />
    </g>
</svg>